<svg width="36" height="35" viewBox="0 0 36 35" fill="none" xmlns="http://www.w3.org/2000/svg">
<path d="M15.4023 0.00019455L15.4023 4.99854L20.4051 4.99854L20.4051 0.000194768L15.4023 0.00019455Z" fill="white"/>
<path d="M20.4053 4.99824L20.4053 9.99658L25.4029 9.99658L25.4029 4.99824L20.4053 4.99824Z" fill="white"/>
<path d="M10.4048 4.99824L10.4048 9.99658L15.4024 9.99658L15.4024 4.99824L10.4048 4.99824Z" fill="white"/>
<path d="M25.4041 9.99648L25.4041 15L30.4068 15L30.4068 9.99648L25.4041 9.99648Z" fill="white"/>
<path d="M5.40723 9.99648L5.40723 15L10.4048 15L10.4048 9.99648L5.40723 9.99648Z" fill="white"/>
<path d="M30.407 15.0017L30.407 20L35.4046 20L35.4046 15.0017L30.407 15.0017Z" fill="white"/>
<path d="M15.4023 15.0017L15.4023 20L20.4051 20L20.4051 15.0017L15.4023 15.0017Z" fill="white"/>
<path d="M0.404541 15.0017L0.404541 20L5.40731 20L5.40731 15.0017L0.404541 15.0017Z" fill="white"/>
<path d="M20.4053 19.9994L20.4053 25.0029L25.4029 25.0029L25.4029 19.9994L20.4053 19.9994Z" fill="white"/>
<path d="M10.4048 19.9994L10.4048 25.0029L15.4024 25.0029L15.4024 19.9994L10.4048 19.9994Z" fill="white"/>
<path d="M25.4041 25.0031L25.4041 30.0015L30.4068 30.0015L30.4068 25.0031L25.4041 25.0031Z" fill="white"/>
<path d="M5.40723 25.0031L5.40723 30.0015L10.4048 30.0015L10.4048 25.0031L5.40723 25.0031Z" fill="white"/>
<path d="M30.407 30.0017L30.407 35L35.4046 35L35.4046 30.0017L30.407 30.0017Z" fill="white"/>
<path d="M0.404541 30.0017L0.404541 35L5.40731 35L5.40731 30.0017L0.404541 30.0017Z" fill="white"/>
</svg>
