<svg width="35" height="35" viewBox="0 0 35 35" fill="none" xmlns="http://www.w3.org/2000/svg">
<path d="M15 20H20.0002V14.9998H15V20Z" fill="white"/>
<path d="M20 25.0005H25.0002V20.0003H20V25.0005Z" fill="white"/>
<path d="M25 20H30.0002V14.9998H25V20Z" fill="white"/>
<path d="M29.9998 20H35V14.9998H29.9998V20Z" fill="white"/>
<path d="M-0.000208378 20H5L5 14.9998H-0.000208378L-0.000208378 20Z" fill="white"/>
<path d="M4.99979 20H10V14.9998H4.99979L4.99979 20Z" fill="white"/>
<path d="M9.99979 25.0005H15V20.0003H9.99979V25.0005Z" fill="white"/>
<path d="M9.99979 15H15V9.99981H9.99979V15Z" fill="white"/>
<path d="M20 15H25.0002V9.99981H20V15Z" fill="white"/>
<path d="M15 9.99951H20.0002V4.99932L15 4.99932V9.99951Z" fill="white"/>
<path d="M15 5L20.0002 5V-0.000195026L15 -0.000195026V5Z" fill="white"/>
<path d="M15 35H20.0002V29.9998H15V35Z" fill="white"/>
<path d="M15 29.9995H20.0002V24.9993H15V29.9995Z" fill="white"/>
<path d="M33.187 2.48145H28.1497V7.51875H33.187V2.48145Z" fill="white"/>
</svg>
