<svg width="36" height="35" viewBox="0 0 36 35" fill="none" xmlns="http://www.w3.org/2000/svg">
<path d="M15.4042 5L20.4043 5V-8.86917e-05L15.4042 -8.86917e-05V5Z" fill="white"/>
<path d="M10.4047 10.0005H15.4048V5.0004L10.4047 5.0004V10.0005Z" fill="white"/>
<path d="M5.40395 15.0005H10.4041V10.0004H5.40395L5.40395 15.0005Z" fill="white"/>
<path d="M0.403707 19.9995H5.40381L5.40381 14.9994H0.403707L0.403707 19.9995Z" fill="white"/>
<path d="M20.4042 0.000976562H15.4041V5.00107H20.4042V0.000976562Z" fill="white"/>
<path d="M25.4044 5H20.4043V10.0001H25.4044V5Z" fill="white"/>
<path d="M30.4044 10.0005H25.4043V15.0006H30.4044V10.0005Z" fill="white"/>
<path d="M35.4037 15.0005H30.4036V20.0006H35.4037V15.0005Z" fill="white"/>
<path d="M15.4042 35H20.4043V29.9999H15.4042V35Z" fill="white"/>
<path d="M10.4047 30.0005H15.4048V25.0004H10.4047V30.0005Z" fill="white"/>
<path d="M5.40395 24.9995H10.4041V19.9994H5.40395L5.40395 24.9995Z" fill="white"/>
<path d="M0.403707 19.9995H5.40381L5.40381 14.9994H0.403707L0.403707 19.9995Z" fill="white"/>
<path d="M20.4042 30H15.4041V35.0001H20.4042V30Z" fill="white"/>
<path d="M25.4044 24.9995H20.4043V29.9996H25.4044V24.9995Z" fill="white"/>
<path d="M30.4044 20.0005H25.4043V25.0006H30.4044V20.0005Z" fill="white"/>
<path d="M35.4037 15.0005H30.4036V20.0006H35.4037V15.0005Z" fill="white"/>
</svg>
