<?xml version="1.0" encoding="utf-8"?>
<!-- Generator: Adobe Illustrator 26.3.1, SVG Export Plug-In . SVG Version: 6.00 Build 0)  -->
<svg version="1.1" id="Layer_1" xmlns="http://www.w3.org/2000/svg" xmlns:xlink="http://www.w3.org/1999/xlink" x="0px" y="0px"
	 viewBox="0 0 653 101" style="enable-background:new 0 0 653 101;" xml:space="preserve">
<style type="text/css">
	.st0{fill:#0B35F1;}
</style>
<g>
	<polygon class="st0" points="236,75.9 282.9,22 282.9,1.1 200,1.1 200,23.3 246.4,23.3 246.4,26 199.6,80.5 199.6,101 284.3,101 
		284.3,78.8 236,78.8 	"/>
	<polygon class="st0" points="638.1,15.2 645.2,15.2 645.2,22.4 652.4,22.4 652.4,1 631,1 631,8.1 638.1,8.1 	"/>
	<rect x="166.8" y="1.1" class="st0" width="26.9" height="99.9"/>
	<polygon class="st0" points="111.7,76.6 111.7,1.1 84.8,1.1 84.8,101 161.2,101 161.2,78.8 114,78.8 	"/>
	<polygon class="st0" points="26.5,76.6 26.5,63.9 29,61.4 65.6,61.4 65.6,39.5 28.5,39.5 26.5,37.5 26.5,24.9 28.2,23.2 77.2,23.2 
		77.2,1 0,1 0,100.9 78.6,100.9 78.6,78.7 28.6,78.7 	"/>
	<polygon class="st0" points="425.8,86.7 418.7,86.7 418.7,79.5 411.5,79.5 411.5,101 432.9,101 432.9,93.9 425.8,93.9 	"/>
	<polygon class="st0" points="645.2,79.6 645.2,86.7 638.2,86.7 638.2,93.8 631,93.8 631,100.9 652.4,100.9 652.4,79.6 	"/>
	<path class="st0" d="M618.7,15.3V8.1h-7.1V1h-57.1v7.1h-7.1v7.1h-7.2v7.2V51h7.1v7.1h14.3v7.1h-21.5v21.4h7v7.1h7.1v7.1h57.1v-7.1
		h7.2v-7.1h7.3V58.1h-7.1V51h-7.1v-7.2h-42.8v-7.1h-7.1v-7.1h7.1v-7.1h28.6v7.1h7.1v7.1h21.4V22.4v-7.1h-0.1H618.7z M604.4,65.2v7.1
		h-7.1v7.1h-28.6v-7.1h-7.1v-7.1H604.4z"/>
	<path class="st0" d="M327.3,1.1L287.5,101h27.1l6.7-17.5l3.1-1.8h34.3l2.9,1.7l6.8,17.7h28.7l-39.7-100H327.3z M350.7,61.5h-18
		l-2.1-2.1l9.8-27.4h2.3l9.9,27.6L350.7,61.5z"/>
	<polygon class="st0" points="411.5,22.4 418.7,22.4 418.7,15.2 425.8,15.2 425.8,8.1 432.9,8.1 432.9,1 411.5,1 	"/>
	<path class="st0" d="M518.7,15.3h-7.1V8.1h-7.2V1h-50v7.1h-7.1v7.1h-7.2v7.2H433v57.1h7.1v7.2h7.2v7.1h7.1v7.1h50v-7.1h7.2v-7.1
		h7.1v-7.1h7.2V22.4h-7.2V15.3z M504.4,65.3h-7.1v7.1h-7.1v7.1h-21.4v-7.1h-7.1v-7.1h-7.2V36.7h7.2v-7.1h7.1v-7.1h21.4v7.1h7.1v7.1
		h7.1V65.3z"/>
</g>
</svg>
