<svg width="35" height="35" viewBox="0 0 35 35" fill="none" xmlns="http://www.w3.org/2000/svg">
<path d="M25.0002 10.0005H20V15.0007H25.0002V10.0005Z" fill="white"/>
<path d="M29.9995 5H24.9993V10.0002H29.9995V5Z" fill="white"/>
<path d="M9.99955 15H14.9998V9.99979H9.99955V15Z" fill="white"/>
<path d="M4.9993 9.99951H9.99951V4.9993L4.9993 4.9993L4.9993 9.99951Z" fill="white"/>
<path d="M25.0002 20H20V25.0002H25.0002V20Z" fill="white"/>
<path d="M29.9995 25.0005H24.9993V30.0007H29.9995V25.0005Z" fill="white"/>
<path d="M9.99955 25.0005H14.9998V20.0003H9.99955V25.0005Z" fill="white"/>
<path d="M4.9993 29.9995H9.99951V24.9993H4.9993L4.9993 29.9995Z" fill="white"/>
<path d="M14.9991 35H19.9993L19.9993 2.67029e-05H14.9991L14.9991 35Z" fill="white"/>
<path d="M-0.000244141 14.9998L-0.000244141 20L34.9997 20V14.9998L-0.000244141 14.9998Z" fill="white"/>
</svg>
