<svg width="35" height="35" viewBox="0 0 35 35" fill="none" xmlns="http://www.w3.org/2000/svg">
<path d="M29.9999 5.03809H24.9998V10.0383H29.9999V5.03809Z" fill="white"/>
<path d="M4.99965 10.0376H9.99976V5.03739L4.99965 5.03739L4.99965 10.0376Z" fill="white"/>
<path d="M29.9999 25.0005H24.9998V30.0007H29.9999V25.0005Z" fill="white"/>
<path d="M4.99965 29.9624H9.99976V24.9622H4.99965L4.99965 29.9624Z" fill="white"/>
<path d="M14.9997 35H19.9998L19.9998 19.9244H14.9997L14.9997 35Z" fill="white"/>
<path d="M14.9997 15.0376H19.9998V10.0374H14.9997V15.0376Z" fill="white"/>
<path d="M14.9997 10.0381H19.9998V-0.000184059H14.9997V10.0381Z" fill="white"/>
<path d="M0 14.9998L0 20H10.0002V14.9998H0Z" fill="white"/>
<path d="M24.9998 14.9998V20H35V14.9998H24.9998Z" fill="white"/>
</svg>
