<svg width="35" height="35" viewBox="0 0 35 35" fill="none" xmlns="http://www.w3.org/2000/svg">
<path d="M8.03853 0C14.2374 0.000450566 20.4359 0.000450566 26.6348 0C26.6348 1.23545 26.6343 2.47091 26.6348 3.70636C27.2354 3.70636 27.8355 3.70591 28.4361 3.70636C28.437 4.31688 28.433 4.92694 28.4379 5.53746C28.4492 5.54918 28.4722 5.57351 28.4834 5.58567C28.4933 6.81166 28.4848 8.03901 28.4875 9.26545C30.3429 9.26545 32.1983 9.265 34.0538 9.2659C34.0538 9.88543 34.0538 10.5054 34.0538 11.1249C32.799 11.1254 31.5441 11.1254 30.2888 11.1254C30.2888 11.7431 30.2893 12.3608 30.2888 12.9786C29.6711 12.9781 29.0534 12.9786 28.4357 12.9786C28.4393 13.5868 28.4294 14.196 28.4402 14.8043C28.4514 14.8164 28.4744 14.8417 28.4857 14.8538C28.4888 16.0744 28.4884 17.295 28.4857 18.5151C28.4744 18.5268 28.4523 18.5494 28.4411 18.5606C28.4289 19.788 28.4393 21.0162 28.4357 22.2436C27.836 22.2409 27.2363 22.2494 26.6366 22.2395C26.6321 22.8608 26.6357 23.4822 26.6348 24.1035C24.7622 24.1035 22.8892 24.1035 21.0166 24.1035C21.0162 23.4835 21.0175 22.8635 21.0162 22.2436C20.3989 22.2436 19.7812 22.2436 19.1639 22.2436C19.1635 21.0081 19.1639 19.7727 19.1635 18.5377C17.9456 18.5377 16.7277 18.5377 15.5098 18.5377C15.508 19.1464 15.5116 19.7555 15.508 20.3643C15.4688 20.3971 15.4517 20.439 15.4571 20.4904C15.4576 21.0748 15.4576 21.6592 15.4576 22.244C14.2397 22.2436 13.0218 22.2436 11.8039 22.2436C11.8026 22.8635 11.8035 23.4835 11.8035 24.1035C9.94803 24.1035 8.0926 24.1035 6.23716 24.1035C6.23716 23.5151 6.23761 22.9266 6.23761 22.3382C6.23942 22.2895 6.22275 22.2481 6.1876 22.2134C6.18265 20.9883 6.18715 19.7627 6.18535 18.5377C5.58519 18.5377 4.98459 18.5381 4.38398 18.5372C4.38398 16.6845 4.38443 14.8317 4.38398 12.979C4.98459 12.9781 5.58519 12.9786 6.18535 12.9786C6.18535 12.3608 6.1858 11.7427 6.18535 11.1249C4.33262 11.1258 2.47989 11.1249 0.627161 11.1254C0.625809 10.5374 0.62671 9.94896 0.62626 9.36097C0.623556 9.31186 0.640227 9.2695 0.675372 9.23436C0.68213 8.62655 0.675371 8.01918 0.678976 7.41137C1.29625 7.41317 1.91398 7.41182 2.53125 7.41227C2.53125 8.03 2.53171 8.64772 2.53125 9.26545C3.74914 9.26545 4.96747 9.26545 6.1858 9.26545C6.1849 8.08181 6.1867 6.89817 6.1849 5.71453C6.17499 5.61947 6.24122 5.53836 6.23716 5.44419C6.23806 4.86477 6.23716 4.28579 6.23716 3.70636C6.83777 3.70591 7.43792 3.70591 8.03808 3.70636C8.03898 2.47091 8.03808 1.23545 8.03853 0ZM6.23761 11.1254C6.23716 12.3608 6.23716 13.5958 6.23761 14.8313C13.0367 14.8313 19.8357 14.8313 26.6348 14.8313C26.6348 13.5958 26.6348 12.3604 26.6348 11.1254C25.3795 11.1258 24.1247 11.124 22.8698 11.1263C22.8703 11.7436 22.8698 12.3608 22.8698 12.9786C19.181 12.9781 15.4918 12.9786 11.803 12.9781C11.8035 12.3604 11.803 11.7427 11.803 11.1254C9.94803 11.1254 8.0926 11.1254 6.23761 11.1254Z" fill="white"/>
<path d="M8.09106 25.9551C8.71059 25.9569 9.33011 25.9573 9.94919 25.9551C9.951 26.5728 9.94964 27.191 9.95009 27.8092C10.5502 27.8092 11.1509 27.8101 11.7515 27.8087C11.7515 27.1914 11.751 26.5737 11.7515 25.956C15.4772 25.9564 19.2029 25.9564 22.9282 25.956C22.9287 26.5228 22.9273 27.0892 22.9296 27.656C22.9377 27.7659 22.857 27.8596 22.8687 27.9709C22.8705 28.5346 22.8696 29.0987 22.8696 29.6628C19.1809 29.6619 15.4921 29.6628 11.8033 29.6623C11.8028 30.2796 11.8028 30.8973 11.8033 31.5151C11.1855 31.516 10.5678 31.5151 9.95009 31.5155C9.94829 30.9145 9.9537 30.3134 9.94739 29.7128C9.92396 29.6605 9.88476 29.6119 9.89197 29.552C9.89017 28.9707 9.89287 28.3899 9.89107 27.8087C9.29092 27.8096 8.69076 27.8092 8.09016 27.8092C8.09061 27.191 8.08926 26.5733 8.09106 25.9551Z" fill="white"/>
<path d="M22.9282 29.6632C23.5288 29.6623 24.129 29.6627 24.7296 29.6627C24.7291 30.2809 24.7305 30.8991 24.7287 31.5172C24.1285 31.5141 23.5284 31.5168 22.9282 31.5159C22.9282 30.8982 22.9287 30.2809 22.9282 29.6632Z" fill="white"/>
<path d="M13.6047 33.3691C16.0927 33.3691 18.5807 33.3691 21.0688 33.3691C21.0683 33.9125 21.0683 34.4564 21.0688 35.0002H13.6047C13.6042 34.4564 13.6047 33.9125 13.6047 33.3691Z" fill="white"/>
</svg>
