<svg width="28" height="35" viewBox="0 0 28 35" fill="none" xmlns="http://www.w3.org/2000/svg">
<path d="M6.23714 0C9.4777 0 12.7188 0 15.9594 0C15.9599 0.648333 15.9583 1.29667 15.9599 1.945C16.6077 1.94444 17.2555 1.94444 17.9038 1.94444C17.9044 2.59278 17.9027 3.24111 17.9044 3.88944C18.5521 3.88833 19.1999 3.88889 19.8483 3.88889C19.8483 6.48167 19.8483 9.07389 19.8483 11.6667C19.1999 11.6672 18.5521 11.6656 17.9038 11.6672C17.9033 14.9078 17.9044 18.1483 17.9038 21.3889C17.2555 21.3889 16.6077 21.3889 15.9599 21.3883C15.9583 22.0367 15.9599 22.685 15.9594 23.3333C15.3116 23.3333 14.6638 23.3333 14.0155 23.3328C14.0138 23.9811 14.0155 24.6294 14.0149 25.2778C13.3666 25.2778 12.7188 25.2778 12.071 25.2772C12.0694 25.9256 12.071 26.5739 12.0705 27.2222C11.4238 27.2206 10.7771 27.2256 10.1305 27.2194C10.1199 29.8128 10.1294 32.4061 10.126 35C8.18159 35 6.23714 35 4.2927 35C4.2927 34.3517 4.2927 33.7039 4.2927 33.0561C3.64436 33.055 2.99659 33.0556 2.34825 33.0556C2.34825 32.4072 2.3477 31.7594 2.34881 31.1111C3.64436 31.1111 4.94048 31.1106 6.23659 31.1117C6.23825 30.4633 6.23659 29.815 6.23714 29.1667C6.88492 29.1667 7.5327 29.1667 8.18103 29.1672C8.1827 27.8706 8.18103 26.5744 8.18159 25.2783C7.53325 25.2772 6.88548 25.2783 6.23714 25.2778C6.23714 24.6294 6.23714 23.9817 6.23714 23.3333C7.53325 23.3333 8.82936 23.3333 10.1255 23.3339C10.1271 22.6856 10.1255 22.0372 10.126 21.3889C10.7738 21.3889 11.4216 21.3883 12.0699 21.3894C12.071 20.7406 12.071 20.0922 12.0699 19.4439C11.4216 19.4444 10.7738 19.4444 10.126 19.4444C10.1244 18.7956 10.1294 18.1472 10.1233 17.4983C9.47603 17.5017 8.82881 17.4994 8.18159 17.5C8.18103 16.8517 8.18214 16.2039 8.18159 15.5556C7.53381 15.5556 6.88547 15.555 6.2377 15.5556C6.23547 14.9072 6.23881 14.2589 6.23659 13.6106C5.58881 13.6111 4.94103 13.6111 4.29325 13.6106C4.29159 14.9072 4.29325 16.2033 4.2927 17.5C3.64436 17.4994 2.99659 17.5 2.34825 17.5C2.3477 16.8517 2.34936 16.2033 2.3477 15.555C1.69992 15.5556 1.05159 15.5556 0.403809 15.5556C0.403809 14.2589 0.403809 12.9628 0.403809 11.6667C4.94103 11.6667 9.4777 11.6672 14.0149 11.6667C14.0144 11.0183 14.016 10.37 14.0144 9.72167C13.3666 9.72222 12.7183 9.72222 12.0705 9.72222C12.0699 8.42555 12.0716 7.12944 12.0699 5.83278C9.4777 5.83333 6.88548 5.83333 4.29381 5.83278C4.29159 6.48111 4.29325 7.12944 4.2927 7.77778C3.64492 7.77778 2.99659 7.77778 2.34881 7.77722C2.34714 8.42555 2.34881 9.07389 2.34825 9.72222C1.69992 9.72222 1.05214 9.72222 0.403809 9.72222C0.403809 7.77778 0.403809 5.83333 0.403809 3.88889C1.05214 3.88833 1.69992 3.88944 2.34825 3.88833C2.34825 3.24056 2.34825 2.59278 2.34825 1.94444C3.64436 1.94389 4.94103 1.94556 6.23714 1.94389C6.23714 1.29611 6.23659 0.648333 6.23714 0ZM8.18159 13.6111C8.18159 14.2594 8.18103 14.9072 8.18159 15.5556C8.82992 15.5556 9.4777 15.5556 10.126 15.5556C10.1255 14.9072 10.1277 14.2589 10.1244 13.6106C9.47714 13.6122 8.82936 13.61 8.18159 13.6111Z" fill="white"/>
<path d="M4.29272 17.5C5.58884 17.5 6.8855 17.5 8.18161 17.5C8.18161 18.1483 8.18161 18.7961 8.18161 19.4444C6.8855 19.4444 5.58884 19.4444 4.29272 19.4444C4.29272 18.7961 4.29272 18.1483 4.29272 17.5Z" fill="white"/>
<path d="M17.9039 21.3887C18.5522 21.3887 19.2 21.3887 19.8483 21.3887C19.8489 22.037 19.8472 22.6853 19.8489 23.3337C21.145 23.3331 22.4411 23.3331 23.7372 23.3331C23.7372 23.9814 23.7372 24.6292 23.7372 25.2776C25.0333 25.2781 26.3294 25.277 27.6261 25.2776C27.6261 25.9259 27.6261 26.5737 27.6261 27.222C26.9778 27.222 26.33 27.222 25.6822 27.2214C25.6806 27.8698 25.6822 28.5181 25.6817 29.1664C25.0339 29.1664 24.3856 29.1664 23.7378 29.1659C23.7361 29.8142 23.7378 30.4626 23.7372 31.1109C23.0889 31.1109 22.4411 31.1109 21.7933 31.1103C21.7917 31.7587 21.7933 32.407 21.7928 33.0553C20.4967 33.0553 19.2006 33.0553 17.9044 33.0548C17.9028 33.7031 17.9044 34.3514 17.9039 34.9998C15.9594 34.9998 14.015 34.9998 12.0706 34.9998C12.0706 33.7031 12.0706 32.407 12.0706 31.1109C12.7183 31.1109 13.3661 31.1109 14.0144 31.1114C14.0161 30.4631 14.0144 29.8148 14.015 29.1664C14.6628 29.1664 15.3111 29.1659 15.9589 29.167C15.9606 27.8703 15.9589 26.5742 15.9594 25.2776C16.6072 25.2776 17.255 25.2776 17.9028 25.2781C17.905 23.9815 17.9033 22.6853 17.9039 21.3887Z" fill="white"/>
</svg>
