<svg width="36" height="35" viewBox="0 0 36 35" fill="none" xmlns="http://www.w3.org/2000/svg">
<path d="M20.6282 35L20.6282 30.0017L15.6254 30.0017L15.6254 35L20.6282 35Z" fill="black"/>
<path d="M15.6252 30.0015L15.6252 25.0032L10.6277 25.0032L10.6277 30.0015L15.6252 30.0015Z" fill="black"/>
<path d="M25.6257 30.0015L25.6257 25.0032L20.6281 25.0032L20.6281 30.0015L25.6257 30.0015Z" fill="black"/>
<path d="M10.6265 25.0035L10.6265 20L5.62369 20L5.62369 25.0035L10.6265 25.0035Z" fill="black"/>
<path d="M30.6233 25.0035L30.6233 20L25.6257 20L25.6257 25.0035L30.6233 25.0035Z" fill="black"/>
<path d="M5.62353 19.9986L5.62354 15.0002L0.625949 15.0002L0.625949 19.9986L5.62353 19.9986Z" fill="black"/>
<path d="M20.6282 19.9986L20.6282 15.0002L15.6254 15.0002L15.6254 19.9986L20.6282 19.9986Z" fill="black"/>
<path d="M35.626 19.9986L35.626 15.0002L30.6232 15.0002L30.6232 19.9986L35.626 19.9986Z" fill="black"/>
<path d="M15.6252 15.0003L15.6252 9.99683L10.6277 9.99683L10.6277 15.0003L15.6252 15.0003Z" fill="black"/>
<path d="M25.6257 15.0003L25.6257 9.99683L20.6281 9.99683L20.6281 15.0003L25.6257 15.0003Z" fill="black"/>
<path d="M10.6265 9.99663L10.6265 4.99829L5.62369 4.99829L5.62369 9.99663L10.6265 9.99663Z" fill="black"/>
<path d="M30.6233 9.99663L30.6233 4.99829L25.6257 4.99829L25.6257 9.99663L30.6233 9.99663Z" fill="black"/>
<path d="M5.62353 4.99834L5.62354 0L0.625949 -2.18451e-07L0.625949 4.99834L5.62353 4.99834Z" fill="black"/>
<path d="M35.626 4.99834L35.626 0L30.6232 -2.18678e-07L30.6232 4.99834L35.626 4.99834Z" fill="black"/>
</svg>
