<svg width="36" height="35" viewBox="0 0 36 35" fill="none" xmlns="http://www.w3.org/2000/svg">
<path d="M15.4042 5L20.4043 5V-8.86917e-05L15.4042 -8.86917e-05V5Z" fill="black"/>
<path d="M10.4047 10.0002H15.4048V5.00016L10.4047 5.00016V10.0002Z" fill="black"/>
<path d="M5.40395 15.0002H10.4041V10.0002H5.40395L5.40395 15.0002Z" fill="black"/>
<path d="M0.403707 19.9998H5.40381L5.40381 14.9997H0.403707L0.403707 19.9998Z" fill="black"/>
<path d="M20.4042 0.000732422H15.4041V5.00082H20.4042V0.000732422Z" fill="black"/>
<path d="M25.4044 5H20.4043V10.0001H25.4044V5Z" fill="black"/>
<path d="M30.4044 10.0002H25.4043V15.0003H30.4044V10.0002Z" fill="black"/>
<path d="M35.4037 15.0002H30.4036V20.0003H35.4037V15.0002Z" fill="black"/>
<path d="M15.4042 35H20.4043V29.9999H15.4042V35Z" fill="black"/>
<path d="M10.4047 30.0007H15.4048V25.0006H10.4047V30.0007Z" fill="black"/>
<path d="M5.40395 24.9998H10.4041V19.9997H5.40395L5.40395 24.9998Z" fill="black"/>
<path d="M0.403707 19.9998H5.40381L5.40381 14.9997H0.403707L0.403707 19.9998Z" fill="black"/>
<path d="M20.4042 30H15.4041V35.0001H20.4042V30Z" fill="black"/>
<path d="M25.4044 24.9998H20.4043V29.9998H25.4044V24.9998Z" fill="black"/>
<path d="M30.4044 20.0005H25.4043V25.0006H30.4044V20.0005Z" fill="black"/>
<path d="M35.4037 15.0002H30.4036V20.0003H35.4037V15.0002Z" fill="black"/>
</svg>
