<svg width="36" height="35" viewBox="0 0 36 35" fill="none" xmlns="http://www.w3.org/2000/svg">
<path d="M15.4023 -4.95911e-05L15.4023 4.99829L20.4051 4.99829L20.4051 -4.93724e-05L15.4023 -4.95911e-05Z" fill="black"/>
<path d="M20.4053 4.99849L20.4053 9.99683L25.4029 9.99683L25.4029 4.99849L20.4053 4.99849Z" fill="black"/>
<path d="M10.4048 4.99849L10.4048 9.99683L15.4024 9.99683L15.4024 4.99849L10.4048 4.99849Z" fill="black"/>
<path d="M25.4041 9.99648L25.4041 15L30.4068 15L30.4068 9.99648L25.4041 9.99648Z" fill="black"/>
<path d="M5.40723 9.99648L5.40723 15L10.4048 15L10.4048 9.99648L5.40723 9.99648Z" fill="black"/>
<path d="M30.407 15.0014L30.407 19.9998L35.4046 19.9998L35.4046 15.0014L30.407 15.0014Z" fill="black"/>
<path d="M15.4023 15.0014L15.4023 19.9998L20.4051 19.9998L20.4051 15.0014L15.4023 15.0014Z" fill="black"/>
<path d="M0.404541 15.0014L0.404541 19.9998L5.40731 19.9998L5.40731 15.0014L0.404541 15.0014Z" fill="black"/>
<path d="M20.4053 19.9997L20.4053 25.0032L25.4029 25.0032L25.4029 19.9997L20.4053 19.9997Z" fill="black"/>
<path d="M10.4048 19.9997L10.4048 25.0032L15.4024 25.0032L15.4024 19.9997L10.4048 19.9997Z" fill="black"/>
<path d="M25.4041 25.0031L25.4041 30.0015L30.4068 30.0015L30.4068 25.0031L25.4041 25.0031Z" fill="black"/>
<path d="M5.40723 25.0031L5.40723 30.0015L10.4048 30.0015L10.4048 25.0031L5.40723 25.0031Z" fill="black"/>
<path d="M30.407 30.0017L30.407 35L35.4046 35L35.4046 30.0017L30.407 30.0017Z" fill="black"/>
<path d="M0.404541 30.0017L0.404541 35L5.40731 35L5.40731 30.0017L0.404541 30.0017Z" fill="black"/>
</svg>
