<svg width="35" height="35" viewBox="0 0 35 35" fill="none" xmlns="http://www.w3.org/2000/svg">
<path d="M29.9999 5.03809H24.9998V10.0383H29.9999V5.03809Z" fill="black"/>
<path d="M4.99965 10.0376H9.99976V5.03739L4.99965 5.03739L4.99965 10.0376Z" fill="black"/>
<path d="M29.9999 25.0002H24.9998V30.0005H29.9999V25.0002Z" fill="black"/>
<path d="M4.99965 29.9626H9.99976V24.9624H4.99965L4.99965 29.9626Z" fill="black"/>
<path d="M14.9997 35H19.9998L19.9998 19.9244H14.9997L14.9997 35Z" fill="black"/>
<path d="M14.9997 15.0376H19.9998V10.0374H14.9997V15.0376Z" fill="black"/>
<path d="M14.9997 10.0383H19.9998V6.00815e-05H14.9997V10.0383Z" fill="black"/>
<path d="M0 15L0 20.0002H10.0002V15H0Z" fill="black"/>
<path d="M24.9998 15V20.0002H35V15H24.9998Z" fill="black"/>
</svg>
