<svg width="35" height="35" viewBox="0 0 35 35" fill="none" xmlns="http://www.w3.org/2000/svg">
<path d="M25.0002 10.0005H20V15.0007H25.0002V10.0005Z" fill="black"/>
<path d="M29.9995 5.00024H24.9993V10.0005H29.9995V5.00024Z" fill="black"/>
<path d="M9.99955 14.9998H14.9998V9.99955H9.99955V14.9998Z" fill="black"/>
<path d="M4.9993 9.99976H9.99951V4.99955L4.9993 4.99955L4.9993 9.99976Z" fill="black"/>
<path d="M25.0002 20.0002H20V25.0005H25.0002V20.0002Z" fill="black"/>
<path d="M29.9995 25.0002H24.9993V30.0005H29.9995V25.0002Z" fill="black"/>
<path d="M9.99955 25.0002H14.9998V20H9.99955V25.0002Z" fill="black"/>
<path d="M4.9993 29.9998H9.99951V24.9995H4.9993L4.9993 29.9998Z" fill="black"/>
<path d="M14.9991 35H19.9993L19.9993 2.67029e-05H14.9991L14.9991 35Z" fill="black"/>
<path d="M-0.000244141 15L-0.000244141 20.0002L34.9997 20.0002V15L-0.000244141 15Z" fill="black"/>
</svg>
