<svg width="35" height="35" viewBox="0 0 35 35" fill="none" xmlns="http://www.w3.org/2000/svg">
<path d="M15 20.0002H20.0002V15H15V20.0002Z" fill="black"/>
<path d="M20 25.0002H25.0002V20H20V25.0002Z" fill="black"/>
<path d="M25 20.0002H30.0002V15H25V20.0002Z" fill="black"/>
<path d="M29.9998 20.0002H35V15H29.9998V20.0002Z" fill="black"/>
<path d="M-0.000208378 20.0002H5L5 15H-0.000208378L-0.000208378 20.0002Z" fill="black"/>
<path d="M4.99979 20.0002H10V15H4.99979L4.99979 20.0002Z" fill="black"/>
<path d="M9.99979 25.0002H15V20H9.99979V25.0002Z" fill="black"/>
<path d="M9.99979 15H15V9.99981H9.99979V15Z" fill="black"/>
<path d="M20 15H25.0002V9.99981H20V15Z" fill="black"/>
<path d="M15 9.99976H20.0002V4.99956L15 4.99956V9.99976Z" fill="black"/>
<path d="M15 5.00024L20.0002 5.00024V4.91142e-05L15 4.91142e-05V5.00024Z" fill="black"/>
<path d="M15 35H20.0002V29.9998H15V35Z" fill="black"/>
<path d="M15 29.9998H20.0002V24.9996H15V29.9998Z" fill="black"/>
<path d="M33.187 2.4812H28.1497V7.51851H33.187V2.4812Z" fill="black"/>
</svg>
