<svg width="36" height="35" viewBox="0 0 36 35" fill="none" xmlns="http://www.w3.org/2000/svg">
<path d="M15.3878 15.0132H20.3826V10.0085H15.3878V15.0132Z" fill="black"/>
<path d="M15.3878 5.00464L20.3826 5.00464V-1.33514e-05L15.3878 -1.33514e-05V5.00464Z" fill="black"/>
<path d="M20.3824 20.0181H25.3772V15.0134H20.3824V20.0181Z" fill="black"/>
<path d="M10.3929 20.0181H15.3877V15.0134H10.3929V20.0181Z" fill="black"/>
<path d="M15.4515 25.0225H20.4463V20.0178H15.4515V25.0225Z" fill="black"/>
<path d="M30.3712 20.0181H35.366V15.0134H30.3712V20.0181Z" fill="black"/>
<path d="M0.403872 20.0181H5.39868L5.39868 15.0134H0.403872L0.403872 20.0181Z" fill="black"/>
<path d="M15.4195 35H20.4143V29.9953H15.4195V35Z" fill="black"/>
<path d="M30.3712 5.04175H25.3394V10.0835H30.3712V5.04175Z" fill="black"/>
<path d="M35.4039 0H30.3721V5.0418H35.4039V0Z" fill="black"/>
<path d="M5.43565 10.0847H10.4675V5.04292L5.43565 5.04292L5.43565 10.0847Z" fill="black"/>
<path d="M0.404156 5.04272L5.43604 5.04272L5.43604 0.000929356L0.404156 0.000929356L0.404156 5.04272Z" fill="black"/>
<path d="M30.3712 24.9155H25.3394V29.9573H30.3712V24.9155Z" fill="black"/>
<path d="M35.4039 29.958H30.3721V34.9998H35.4039V29.958Z" fill="black"/>
<path d="M5.43565 29.9583H10.4675V24.9165H5.43565L5.43565 29.9583Z" fill="black"/>
<path d="M0.404156 34.9995H5.43604L5.43604 29.9577H0.404156L0.404156 34.9995Z" fill="black"/>
</svg>
