<svg width="36" height="35" viewBox="0 0 36 35" fill="none" xmlns="http://www.w3.org/2000/svg">
<path d="M4.6277 0.000488281H0.403564V4.42577H4.6277V0.000488281Z" fill="black"/>
<path d="M9.05321 4.42578H4.62793V8.64991H9.05321V4.42578Z" fill="black"/>
<path d="M13.4785 0.000488281H9.05322V4.42577H13.4785V0.000488281Z" fill="black"/>
<path d="M17.904 4.42578H13.4788V8.64991H17.904V4.42578Z" fill="black"/>
<path d="M4.6277 8.6499H0.403564V13.0752H4.6277V8.6499Z" fill="black"/>
<path d="M9.05321 13.0754H4.62793V17.5007H9.05321V13.0754Z" fill="black"/>
<path d="M13.4785 8.6499H9.05322V13.0752H13.4785V8.6499Z" fill="black"/>
<path d="M17.904 13.0754H13.4788V17.5007H17.904V13.0754Z" fill="black"/>
<path d="M22.1282 0.000488281H17.9041V4.42577H22.1282V0.000488281Z" fill="black"/>
<path d="M26.5537 4.42578H22.1284V8.64991H26.5537V4.42578Z" fill="black"/>
<path d="M30.979 0.000488281H26.5537V4.42577H30.979V0.000488281Z" fill="black"/>
<path d="M35.4045 4.42578H30.9792V8.64991H35.4045V4.42578Z" fill="black"/>
<path d="M22.1282 8.6499H17.9041V13.0752H22.1282V8.6499Z" fill="black"/>
<path d="M26.5537 13.0754H22.1284V17.5007H26.5537V13.0754Z" fill="black"/>
<path d="M30.979 8.6499H26.5537V13.0752H30.979V8.6499Z" fill="black"/>
<path d="M35.4045 13.0754H30.9792V17.5007H35.4045V13.0754Z" fill="black"/>
<path d="M4.6277 17.5007H0.403564V21.926H4.6277V17.5007Z" fill="black"/>
<path d="M9.05321 21.9263H4.62793V26.1504H9.05321V21.9263Z" fill="black"/>
<path d="M13.4785 17.5007H9.05322V21.926H13.4785V17.5007Z" fill="black"/>
<path d="M17.904 21.9263H13.4788V26.1504H17.904V21.9263Z" fill="black"/>
<path d="M4.6277 26.1504H0.403564V30.5757H4.6277V26.1504Z" fill="black"/>
<path d="M9.05321 30.5742H4.62793V34.9995H9.05321V30.5742Z" fill="black"/>
<path d="M13.4785 26.1504H9.05322V30.5757H13.4785V26.1504Z" fill="black"/>
<path d="M17.904 30.5742H13.4788V34.9995H17.904V30.5742Z" fill="black"/>
<path d="M22.1282 17.5007H17.9041V21.926H22.1282V17.5007Z" fill="black"/>
<path d="M26.5537 21.9263H22.1284V26.1504H26.5537V21.9263Z" fill="black"/>
<path d="M30.979 17.5007H26.5537V21.926H30.979V17.5007Z" fill="black"/>
<path d="M35.4045 21.9263H30.9792V26.1504H35.4045V21.9263Z" fill="black"/>
<path d="M22.1282 26.1504H17.9041V30.5757H22.1282V26.1504Z" fill="black"/>
<path d="M26.5537 30.5742H22.1284V34.9995H26.5537V30.5742Z" fill="black"/>
<path d="M30.979 26.1504H26.5537V30.5757H30.979V26.1504Z" fill="black"/>
<path d="M35.4045 30.5742H30.9792V34.9995H35.4045V30.5742Z" fill="black"/>
</svg>
