<svg width="36" height="35" viewBox="0 0 36 35" fill="none" xmlns="http://www.w3.org/2000/svg">
<g clip-path="url(#clip0_2525_25427)">
<path d="M12.7199 7.62153C16.8381 7.62095 20.956 7.62095 25.0742 7.62153C25.0751 8.99407 25.0736 10.3666 25.0748 11.7394C25.7608 11.7388 26.447 11.74 27.1333 11.7394C27.1342 13.112 27.1327 14.4845 27.1339 15.8573C27.8199 15.8582 28.5061 15.8582 29.1924 15.8573C29.1933 14.4848 29.1918 13.1123 29.193 11.7397C29.879 11.7388 30.5652 11.7388 31.2515 11.7397C31.2524 13.1123 31.2509 14.4851 31.2521 15.8576C31.938 15.857 32.6243 15.8582 33.3106 15.8576C33.3115 17.2304 33.31 18.603 33.3112 19.9758C33.9971 19.9752 34.6831 19.9761 35.3697 19.9758C35.3703 20.6621 35.3703 21.3483 35.3697 22.0349C34.6831 22.0343 33.9968 22.0352 33.3109 22.0349C33.3112 22.7212 33.3103 23.4071 33.3109 24.0937C32.6243 24.0943 31.938 24.0943 31.2521 24.0937C31.2509 22.7212 31.2524 21.3486 31.2515 19.9761C30.5652 19.9752 29.879 19.9752 29.193 19.9761C29.1921 22.0349 29.1933 24.0937 29.1924 26.1528C28.5061 26.1534 27.8199 26.1534 27.1339 26.1528C27.1336 22.9171 27.133 19.6817 27.1345 16.4459C27.1309 16.2491 27.1339 16.0526 27.1209 15.8564C25.066 15.8591 23.011 15.8567 20.9563 15.8576C20.9566 16.5439 20.9557 17.2302 20.9563 17.9164C20.2697 17.9173 19.5835 17.9173 18.8972 17.9164C18.8975 17.2302 18.8966 16.5439 18.8972 15.8579C17.5244 15.8573 16.1519 15.8573 14.7793 15.8579C14.7781 17.2304 14.7796 18.603 14.7787 19.9758C14.0925 19.9752 13.4062 19.9761 12.7202 19.9758C12.7193 22.7212 12.7205 25.4665 12.7196 28.2119C12.0334 28.2125 11.3471 28.2125 10.6611 28.2119C10.66 26.8391 10.6617 25.4665 10.6605 24.094C9.97427 24.0943 9.2883 24.0934 8.60203 24.094C8.60115 23.4074 8.60115 22.7212 8.60203 22.0349C9.2883 22.0352 9.97427 22.0343 10.6605 22.0349C10.6614 21.3483 10.6614 20.6624 10.6605 19.9761C9.288 19.9755 7.91547 19.9755 6.54294 19.9761C6.54205 22.0349 6.54323 24.094 6.54235 26.1528C5.16981 26.1534 3.79728 26.1534 2.42475 26.1528C2.42357 24.7803 2.42534 23.4074 2.42416 22.0349C1.73819 22.0352 1.05192 22.0343 0.365652 22.0349C0.36477 21.3483 0.36477 20.6621 0.365652 19.9758C1.05192 19.9761 1.73819 19.9752 2.42416 19.9758C2.42504 17.2304 2.42386 14.4851 2.42475 11.7397C3.11101 11.7388 3.79728 11.7388 4.48355 11.7397C4.48296 12.426 4.48414 13.112 4.48355 13.7982C6.54264 13.7988 8.60144 13.7988 10.6605 13.7982C10.6617 12.4257 10.66 11.0532 10.6611 9.68034C11.3474 9.68092 12.0337 9.67975 12.7199 9.68034C12.7193 8.99407 12.7205 8.3078 12.7199 7.62153Z" fill="black"/>
</g>
<defs>
<clipPath id="clip0_2525_25427">
<rect width="35" height="35" fill="white" transform="translate(0.403809)"/>
</clipPath>
</defs>
</svg>
