<svg width="37" height="35" viewBox="0 0 37 35" fill="none" xmlns="http://www.w3.org/2000/svg">
<path d="M9.49189 0.000588397C9.94803 -0.000196132 10.4046 -0.000196132 10.8607 0.000588397C10.8611 0.897697 10.8603 1.7952 10.8607 2.6927C11.3189 2.69192 11.777 2.69113 12.2351 2.6927C12.2351 3.14027 12.2343 3.58785 12.2355 4.03542C12.6917 4.03621 13.1478 4.03464 13.604 4.03621C13.6052 4.48535 13.6024 4.93449 13.6056 5.38363C14.0633 5.38403 14.521 5.38403 14.9788 5.38363C14.9784 4.93449 14.9788 4.48496 14.9788 4.03581C19.551 4.03542 24.1232 4.03503 28.6958 4.03581C28.6966 4.48496 28.6946 4.9341 28.6966 5.38324C29.1544 5.38442 29.6125 5.38403 30.0703 5.38363C30.0695 4.93449 30.0699 4.48496 30.0703 4.03581C30.5264 4.03503 30.9825 4.03581 31.4387 4.03542C31.4411 3.58785 31.4367 3.13988 31.4407 2.69231C31.898 2.69192 32.3554 2.69192 32.8131 2.69231C32.8147 3.58942 32.8123 4.48653 32.8143 5.38363C32.3558 5.38403 31.8976 5.38324 31.4395 5.38403C31.4391 5.8316 31.4387 6.27957 31.4399 6.72714C31.8972 6.72832 32.3546 6.72675 32.8123 6.72753C32.8151 8.97168 32.8135 11.2154 32.8131 13.4592C32.3554 13.46 31.8976 13.4588 31.4399 13.46C31.4383 13.9095 31.4399 14.3586 31.4391 14.8082C30.5248 14.807 29.6105 14.8101 28.6962 14.8066C28.695 13.4604 28.6966 12.1137 28.6954 10.7675C29.1536 10.7671 29.6117 10.7694 30.0699 10.7663C30.0695 9.86957 30.0711 8.97246 30.0691 8.07535C29.6113 8.07575 29.154 8.07535 28.6962 8.07575C28.6946 7.62621 28.6978 7.17707 28.6946 6.72753C27.7808 6.72675 26.8669 6.72792 25.9526 6.72714C25.9514 6.27996 25.953 5.83239 25.9522 5.38481C25.4956 5.38324 25.0391 5.38246 24.583 5.3852C24.583 6.28192 24.5834 7.17864 24.5826 8.07535C23.6683 8.07653 22.754 8.07457 21.8397 8.07614C21.8393 8.52371 21.8401 8.97129 21.8393 9.41886C21.3832 9.41847 20.9266 9.42082 20.4705 9.41768C20.4581 9.86722 20.4693 10.3175 20.4649 10.7675C19.0925 10.7679 17.7196 10.7675 16.3472 10.7679C16.3504 11.663 16.3432 12.5578 16.3508 13.4529C15.4357 13.4686 14.5198 13.4545 13.6048 13.46C13.6036 13.9095 13.6048 14.359 13.6044 14.8086C13.1478 14.8078 12.6913 14.8074 12.2347 14.8086C12.2351 17.5003 12.2351 20.1916 12.2351 22.8833C13.1494 22.8845 14.0637 22.8829 14.9784 22.8841C14.9788 23.3321 14.978 23.7801 14.9784 24.228C15.4349 24.2265 15.8915 24.2276 16.348 24.2272C16.3468 25.1243 16.3484 26.0218 16.3472 26.919C16.8054 26.9205 17.2635 26.917 17.7216 26.9205C17.7224 27.3697 17.7212 27.8184 17.7224 28.2672C18.1786 28.268 18.6347 28.2676 19.0909 28.2676C19.0925 28.7171 19.0901 29.1666 19.0917 29.6162C20.0075 29.6166 20.9234 29.6146 21.8393 29.6173C21.8409 30.0645 21.8373 30.5121 21.8409 30.9593C22.7548 30.9597 23.6687 30.9597 24.5826 30.9593C24.5846 30.5113 24.5818 30.0634 24.5838 29.6158C25.0399 29.6162 25.4956 29.6166 25.9518 29.6158C25.9534 29.1662 25.951 28.7167 25.953 28.2672C25.4964 28.2683 25.0399 28.2668 24.5838 28.2683C24.5822 27.8184 24.5842 27.3689 24.583 26.9193C23.6691 26.919 22.7548 26.9197 21.8409 26.919C21.8381 26.0218 21.8413 25.1243 21.8393 24.2272C21.3816 24.2272 20.9238 24.2265 20.4661 24.228C20.4649 23.7801 20.4661 23.3321 20.4653 22.8845C22.2943 22.8826 24.1236 22.8849 25.9526 22.8829C25.9522 21.5367 25.9522 20.1901 25.9526 18.8438C27.7816 18.843 29.6101 18.843 31.4391 18.8438C31.4387 20.638 31.4399 22.4318 31.4387 24.2261C30.9829 24.2288 30.5272 24.2261 30.0715 24.2276C30.0683 25.1247 30.0703 26.0218 30.0703 26.919C29.6121 26.919 29.154 26.9193 28.6962 26.9186C28.6962 28.2656 28.695 29.6122 28.6966 30.9593C28.2401 30.9597 27.7836 30.9589 27.327 30.9597C27.3258 32.3063 27.3274 33.653 27.3262 35C20.0087 34.9996 12.6913 35.0004 5.37381 34.9996C5.37381 34.5501 5.37461 34.1005 5.37341 33.651C4.91567 33.6514 4.45793 33.6514 4.00019 33.651C4.00019 33.203 3.99899 32.7555 4.00059 32.3079C4.45833 32.3075 4.91607 32.3091 5.37341 32.3071C5.37541 30.9609 5.37141 29.6142 5.37541 28.268C5.83275 28.2672 6.29049 28.2683 6.74784 28.2672C6.74904 27.8176 6.74784 27.3681 6.74864 26.919C7.20478 26.9193 7.66132 26.9197 8.11786 26.9186C8.11706 23.3297 8.11786 19.7413 8.11746 16.1525C8.5752 16.1501 9.03335 16.1533 9.49109 16.1509C9.49269 15.2538 9.49029 14.3571 9.49229 13.4604C9.94803 13.4588 10.4038 13.4604 10.8595 13.4596C10.8599 10.3175 10.8659 7.1755 10.8563 4.03385C10.4014 4.03699 9.94683 4.03503 9.49189 4.03503C9.49109 2.68995 9.49189 1.34527 9.49189 0.000588397Z" fill="black"/>
<path d="M19.0915 12.1115C21.3782 12.1119 23.6649 12.1107 25.9517 12.1119C25.9525 12.561 25.9525 13.0098 25.9517 13.4589C25.0374 13.4609 24.1231 13.4589 23.2092 13.4597C23.208 13.9092 23.2092 14.3584 23.2084 14.8079C22.2941 14.8075 21.3798 14.8095 20.4655 14.8071C20.4652 14.3576 20.4659 13.9084 20.4651 13.4593C20.0074 13.4597 19.5493 13.4593 19.0915 13.4597C19.0911 13.0102 19.0907 12.5606 19.0915 12.1115Z" fill="black"/>
<path d="M30.0699 16.1522C30.526 16.1506 30.9826 16.1525 31.4391 16.1514C31.4391 16.6005 31.4399 17.05 31.4383 17.4992C30.9818 17.5004 30.5256 17.5 30.0691 17.4996C30.0707 17.0504 30.0699 16.6013 30.0699 16.1522Z" fill="black"/>
<path d="M17.7217 20.1924C18.1778 20.1913 18.6344 20.1924 19.0905 20.1917C19.0917 20.6396 19.0913 21.0876 19.0909 21.5352C18.6344 21.5332 18.1782 21.5391 17.7217 21.5324C17.7225 21.0856 17.7229 20.6392 17.7217 20.1924Z" fill="black"/>
</svg>
