<svg width="36" height="32" viewBox="0 0 36 32" fill="none" xmlns="http://www.w3.org/2000/svg">
<path d="M11.5106 14.1073V10.9721H4.44342L4.14376 10.6724V8.88741L4.49982 8.53135H9.67504V5.44079H4.42814L4.14494 5.15759V3.37259L4.38231 3.13521H11.3096V0H0.404541V14.1073H11.5106Z" fill="black"/>
<path d="M12.0446 0.0136719H15.8508V10.6743L16.1622 10.9857H22.8369V14.121H12.0435V0.0136719H12.0446Z" fill="black"/>
<path d="M28.6006 10.9857V10.5721L35.226 2.97027V0.0136719H23.5147V3.14888H30.0637V3.52727L23.4478 11.2313V14.1198H35.4046V10.9846H28.5995L28.6006 10.9857Z" fill="black"/>
<path fill-rule="evenodd" clip-rule="evenodd" d="M14.8899 31.9074H8.37789V30.9844H7.48305V30.0613H6.58821V29.1382H5.69336V20.5708H6.58821V19.6477H7.48305V18.7246H8.37789V17.7969H14.8899V18.7258H15.7847V19.6489H16.6855V20.5719H17.5803V29.1406H16.6855V30.0636H15.7847V30.9867H14.8899V31.9098V31.9074ZM12.8615 27.9706H13.7552V27.0416H14.65V22.6697H13.7552V21.7408H12.8615V20.8177H10.411V21.7408H9.51026V22.6697H8.61542V27.0416H9.51026V27.9706H10.411V28.8936H12.8615V27.9706Z" fill="black"/>
<path fill-rule="evenodd" clip-rule="evenodd" d="M3.08672 17.824V18.7635H2.1954V19.6924H1.31232V20.599H0.404541V17.824H3.08672Z" fill="black"/>
<path fill-rule="evenodd" clip-rule="evenodd" d="M3.08672 31.9347V30.9952H2.1954V30.0663H1.31232V29.1597H0.404541V31.9347H3.08672Z" fill="black"/>
<path fill-rule="evenodd" clip-rule="evenodd" d="M32.5034 17.7969V18.7364H33.3947V19.6653H34.2778V20.5719H35.1856V17.7969H32.5034Z" fill="black"/>
<path fill-rule="evenodd" clip-rule="evenodd" d="M32.5034 31.9076V30.9681H33.3947V30.0392H34.2778V29.1326H35.1856V31.9076H32.5034Z" fill="black"/>
<path fill-rule="evenodd" clip-rule="evenodd" d="M28.1007 31.9345H20.695V31.0115H19.8013V30.0884H18.9065V27.0676H21.8286V28.2317H22.7234V29.1547H26.0735V28.2317H26.9671V27.3145H26.0735V26.3914H21.5899V25.4625H19.8013V24.5394H18.9065V19.676H19.8013V18.7529H20.695V17.824H28.1007V18.7529H28.9955V19.676H29.8963V22.6968H26.9683V21.7679H26.0747V20.6096H22.7246V21.5327H21.8297V22.4499H22.7246V23.3729H27.2082V24.296H28.9967V25.225H29.8974V30.0907H28.9967V31.0138H28.1019V31.9369L28.1007 31.9345Z" fill="black"/>
</svg>
