<svg width="250" height="250" viewBox="0 0 250 250" fill="none" xmlns="http://www.w3.org/2000/svg">
<g clip-path="url(#clip0_2525_37916)">
<path d="M123.955 27.6039C128.143 27.5992 132.333 27.6062 136.523 27.6016C136.523 28.0187 136.525 28.4382 136.527 28.8553C139.035 28.853 141.544 28.8576 144.052 28.853C144.052 29.2701 144.052 29.6872 144.052 30.1067C145.31 30.1067 146.569 30.1067 147.827 30.1067C147.825 30.5238 147.827 30.9433 147.827 31.3604C149.085 31.3604 150.344 31.3604 151.602 31.3627C151.6 31.7775 151.598 32.1947 151.6 32.6118C152.432 32.6141 153.266 32.6141 154.1 32.6118C154.103 33.0289 154.103 33.4461 154.105 33.8655C154.944 33.8655 155.783 33.8655 156.624 33.8655C156.622 34.2826 156.622 34.6998 156.624 35.1169C157.458 35.1169 158.293 35.1192 159.129 35.1192C159.127 35.5364 159.127 35.9535 159.129 36.3706C159.549 36.3706 159.97 36.3706 160.392 36.3683C160.395 36.7924 160.395 37.2142 160.399 37.636C160.814 37.636 161.229 37.636 161.648 37.636C161.646 38.0555 161.646 38.4726 161.648 38.8897C162.065 38.8897 162.48 38.8897 162.902 38.8921C162.897 39.3069 162.9 39.724 162.9 40.1388C163.317 40.1411 163.734 40.1411 164.153 40.1434C164.153 40.5606 164.151 40.9777 164.153 41.3948C163.317 41.3948 162.483 41.3948 161.648 41.3948C161.646 41.8143 161.646 42.2314 161.648 42.6486C162.065 42.6486 162.48 42.6486 162.9 42.6462C162.9 43.0634 162.9 43.4805 162.902 43.8976C162.48 43.9 162.063 43.9 161.646 43.9023C161.646 44.3194 161.646 44.7342 161.648 45.1513C161.231 45.1513 160.816 45.1513 160.402 45.1513C160.397 45.5685 160.395 45.9879 160.392 46.4074C159.553 46.4051 158.714 46.4051 157.878 46.4051C157.876 46.8222 157.875 47.2393 157.875 47.6565C158.293 47.6565 158.71 47.6588 159.129 47.6611C159.129 48.0783 159.127 48.4931 159.129 48.9125C159.549 48.9102 159.968 48.9079 160.39 48.9079C160.392 49.3296 160.395 49.7538 160.399 50.1756C160.814 50.1779 161.229 50.1779 161.648 50.1779C161.646 51.0122 161.646 51.8487 161.648 52.683C162.065 52.683 162.48 52.683 162.9 52.683C162.897 53.1001 162.9 53.5173 162.902 53.9344C163.317 53.9344 163.736 53.9344 164.153 53.9344C164.153 53.1001 164.153 52.2659 164.153 51.4316C164.573 51.4316 164.995 51.4293 165.421 51.4293C165.419 51.8464 165.419 52.2635 165.421 52.6807C165.836 52.683 166.253 52.683 166.673 52.6853C166.673 52.2705 166.673 51.8557 166.675 51.4433C167.141 51.4293 167.607 51.4153 168.075 51.3943C167.782 50.9609 167.458 50.5507 167.125 50.1499C167.325 50.1546 167.726 50.1662 167.929 50.1709C167.926 49.7491 167.926 49.3296 167.926 48.9102C168.809 48.9102 169.693 48.9102 170.576 48.9102C170.576 49.2877 170.574 49.6652 170.576 50.0451C171.065 50.0777 171.557 50.115 172.046 50.1639C172.046 50.6323 172.046 51.0984 172.049 51.5691C172.699 51.5505 173.351 51.5178 174.001 51.4572C173.999 50.9958 174.001 50.5344 174.004 50.0754C174.488 50.0754 174.976 50.0754 175.465 50.0754C175.467 50.5624 175.47 51.0494 175.477 51.5388C174.822 51.5435 174.169 51.5551 173.519 51.5761C173.517 52.0585 173.517 52.5409 173.519 53.0256C173.934 53.0023 174.351 52.9766 174.768 52.9487C175.052 52.8415 175.332 52.7343 175.628 52.648C174.81 52.9533 174.973 53.7853 174.952 54.468C175.407 54.4727 175.863 54.4774 176.322 54.482C176.448 54.2467 176.576 54.0113 176.709 53.7783C176.73 54.6661 176.723 55.554 176.726 56.4418C177.136 56.4395 177.548 56.4372 177.963 56.4348C177.97 56.8543 177.975 57.2738 177.982 57.6909C178.399 57.6909 178.821 57.6932 179.242 57.6932C179.242 58.5275 179.242 59.3618 179.242 60.196C179.66 60.196 180.077 60.1983 180.496 60.1983C180.496 61.4567 180.496 62.7128 180.496 63.9712C180.911 63.9688 181.33 63.9712 181.75 63.9712C181.745 65.2226 181.747 66.4763 181.747 67.7277C182.162 67.7277 182.582 67.7277 182.999 67.7277C182.999 67.3105 182.999 66.8934 183.001 66.4763C183.421 66.4739 183.84 66.4739 184.264 66.4739C184.311 67.243 184.106 68.0819 184.453 68.7973C184.782 68.9628 185.157 68.9814 185.518 69.049C185.52 69.8599 185.518 70.6732 185.52 71.4865C185.935 71.4842 186.352 71.4842 186.769 71.4865C186.776 73.1597 186.772 74.8352 186.774 76.5107C187.189 76.5084 187.601 76.5084 188.021 76.5084C188.028 78.1792 188.023 79.8501 188.025 81.521C188.445 81.5186 188.869 81.5186 189.291 81.5186C189.293 84.0284 189.291 86.5382 189.293 89.0503C189.708 89.0479 190.125 89.0503 190.545 89.0503C190.545 91.1406 190.542 93.2286 190.545 95.3189C190.959 95.3142 191.374 95.3096 191.791 95.3072C191.803 97.3952 191.796 99.4832 191.796 101.574C192.213 101.574 192.63 101.576 193.05 101.578C193.05 102.417 193.05 103.254 193.05 104.093C193.471 104.095 193.896 104.1 194.32 104.104C194.313 105.77 194.317 107.437 194.315 109.103C194.732 109.103 195.149 109.105 195.569 109.11C195.569 111.2 195.569 113.29 195.569 115.383C195.986 115.381 196.403 115.381 196.822 115.383C196.801 117.972 196.869 120.561 196.787 123.15C196.452 123.565 196.48 124.113 196.408 124.611C196.513 124.702 196.72 124.889 196.825 124.979C196.822 125.539 196.822 126.096 196.822 126.655C197.193 126.655 197.566 126.655 197.943 126.657C197.941 126.208 197.943 125.762 197.946 125.315C198.433 125.315 198.922 125.315 199.411 125.315C199.411 125.804 199.414 126.291 199.418 126.781C198.971 126.783 198.521 126.785 198.079 126.79C198.074 127.112 198.072 127.433 198.072 127.76C198.528 127.76 198.987 127.762 199.449 127.767C199.4 128.223 199.467 128.71 199.283 129.146C198.845 129.258 198.388 129.218 197.946 129.249C197.943 128.804 197.941 128.361 197.943 127.918C197.566 127.92 197.191 127.925 196.818 127.932C196.822 128.764 196.822 129.596 196.825 130.43C197.678 130.425 198.531 130.425 199.386 130.444C199.442 130.039 199.365 129.591 199.605 129.237C200.02 129.172 200.446 129.211 200.868 129.202C200.868 129.694 200.87 130.185 200.873 130.679C200.751 130.684 200.509 130.698 200.388 130.703C200.388 131.187 200.39 131.672 200.393 132.159C200.041 132.159 199.691 132.159 199.344 132.164C199.344 132.355 199.342 132.739 199.339 132.931C198.915 132.933 198.493 132.933 198.072 132.938C198.074 133.769 198.074 134.604 198.074 135.436C198.913 135.438 199.754 135.438 200.593 135.44C200.591 135.855 200.591 136.272 200.593 136.692C200.173 136.689 199.756 136.689 199.342 136.689C199.342 137.524 199.342 138.36 199.342 139.195C199.759 139.195 200.173 139.195 200.593 139.197C200.593 140.453 200.593 141.707 200.593 142.963C201.01 142.965 201.43 142.967 201.849 142.972C201.844 144.221 201.847 145.472 201.847 146.722C202.268 146.724 202.688 146.726 203.114 146.731C203.107 147.563 203.11 148.395 203.114 149.227C203.529 149.229 203.949 149.231 204.368 149.236C204.366 150.068 204.366 150.9 204.366 151.732C204.781 151.732 205.2 151.736 205.619 151.739C205.619 152.995 205.619 154.251 205.619 155.507C206.034 155.507 206.451 155.507 206.871 155.509C206.871 156.343 206.871 157.178 206.871 158.014C207.29 158.014 207.707 158.012 208.132 158.014C208.134 158.434 208.141 158.858 208.148 159.282C208.532 159.266 208.919 159.249 209.308 159.235C209.066 160.077 209.213 160.948 209.43 161.778C209.835 161.773 210.238 161.769 210.648 161.769C210.641 162.155 210.637 162.547 210.632 162.938C210.308 162.938 209.984 162.941 209.665 162.945C209.665 163.437 209.665 163.933 209.67 164.43C210.411 164.399 211.152 164.332 211.895 164.262C211.893 164.681 211.895 165.106 211.897 165.53C212.736 165.527 213.575 165.527 214.414 165.53C214.414 165.944 214.414 166.359 214.417 166.779C213.997 166.779 213.582 166.786 213.165 166.79C213.163 167.208 213.16 167.627 213.16 168.046C213.997 168.046 214.831 168.046 215.668 168.049C215.666 168.464 215.668 168.881 215.67 169.3C215.248 169.3 214.831 169.3 214.417 169.302C214.414 169.72 214.414 170.137 214.417 170.556C214.827 170.552 215.239 170.552 215.654 170.549C215.661 170.966 215.668 171.383 215.677 171.805C216.09 171.805 216.507 171.808 216.926 171.815C216.919 172.227 216.917 172.644 216.915 173.061C216.497 173.057 216.085 173.057 215.673 173.057C215.668 173.474 215.666 173.891 215.666 174.313C214.829 174.31 213.995 174.31 213.163 174.31C213.16 174.725 213.163 175.142 213.167 175.559C212.326 175.564 211.485 175.564 210.646 175.564C210.641 175.979 210.641 176.398 210.639 176.818C210.222 176.813 209.807 176.813 209.395 176.816C209.39 177.23 209.39 177.65 209.39 178.069C208.551 178.067 207.714 178.067 206.878 178.069C206.869 178.486 206.866 178.906 206.859 179.328C206.447 179.321 206.034 179.318 205.624 179.318C205.619 179.74 205.615 180.164 205.615 180.591C205.195 180.588 204.778 180.584 204.366 180.584C204.363 181.001 204.366 181.42 204.368 181.84C203.527 181.84 202.688 181.84 201.847 181.842C201.847 181.399 201.847 180.961 201.849 180.523C201.523 180.523 201.197 180.528 200.873 180.532C200.87 180.038 200.87 179.549 200.873 179.06C201.36 179.057 201.851 179.057 202.343 179.06C202.341 178.57 202.341 178.083 202.343 177.596C201.851 177.598 201.362 177.601 200.873 177.605C200.87 177.114 200.87 176.622 200.873 176.133C201.357 176.13 201.844 176.13 202.334 176.13C202.341 176.615 202.35 177.104 202.362 177.594C202.795 177.645 203.308 177.445 203.692 177.724C203.963 178.109 203.774 178.617 203.832 179.057C203.336 179.057 202.844 179.057 202.352 179.06C202.343 179.57 202.331 180.078 202.317 180.588C202.513 180.586 202.907 180.584 203.105 180.581C203.103 180.16 203.107 179.745 203.11 179.328C203.529 179.321 203.949 179.316 204.37 179.314C204.368 178.896 204.366 178.482 204.368 178.069C204.781 178.067 205.198 178.069 205.617 178.069C205.617 177.65 205.619 177.233 205.622 176.816C206.037 176.816 206.454 176.813 206.871 176.818C206.871 175.981 206.871 175.147 206.873 174.313C205.198 174.31 203.522 174.31 201.849 174.313C201.844 174.728 201.847 175.145 201.847 175.564C198.498 175.564 195.149 175.564 191.801 175.564C191.796 175.142 191.794 174.725 191.789 174.308C190.533 174.313 189.277 174.31 188.018 174.31C188.025 173.896 188.028 173.481 188.037 173.071C187.198 173.057 186.359 173.057 185.523 173.057C185.52 172.64 185.518 172.22 185.518 171.805C184.677 171.805 183.838 171.805 182.999 171.805C182.999 171.388 182.999 170.969 183.001 170.554C182.165 170.552 181.33 170.552 180.496 170.554C180.494 170.134 180.494 169.717 180.496 169.302C180.074 169.3 179.655 169.3 179.235 169.3C179.233 168.881 179.235 168.464 179.238 168.046C178.816 168.046 178.396 168.046 177.977 168.049C177.975 167.625 177.975 167.205 177.975 166.783C177.558 166.781 177.143 166.779 176.73 166.779C176.723 167.201 176.721 167.625 176.719 168.051C176.301 168.049 175.884 168.046 175.472 168.049C175.47 169.3 175.47 170.554 175.472 171.805C175.887 171.803 176.304 171.805 176.723 171.808C176.723 173.059 176.723 174.31 176.723 175.564C177.138 175.562 177.555 175.562 177.975 175.564C177.975 176.398 177.975 177.233 177.975 178.067C178.394 178.067 178.816 178.067 179.24 178.072C179.235 178.486 179.233 178.903 179.235 179.321C180.072 179.321 180.911 179.321 181.75 179.323C181.747 179.745 181.745 180.164 181.747 180.591C182.16 180.584 182.575 180.581 182.992 180.579C182.994 180.996 182.999 181.413 183.004 181.835C183.425 181.84 183.847 181.847 184.269 181.856C184.267 182.266 184.264 182.679 184.267 183.093C185.101 183.093 185.937 183.093 186.772 183.093C186.769 183.41 186.767 183.73 186.767 184.049C187.18 183.918 187.597 183.795 188.014 183.671C188.021 183.841 188.032 184.179 188.039 184.35C190.966 184.343 193.896 184.352 196.825 184.345C196.82 183.925 196.822 183.511 196.822 183.093C197.661 183.093 198.5 183.093 199.342 183.093C199.339 182.674 199.342 182.257 199.342 181.842C200.176 181.84 201.01 181.84 201.847 181.842C201.844 182.257 201.844 182.674 201.847 183.091C201.008 183.091 200.173 183.091 199.337 183.1C199.337 183.513 199.339 183.93 199.344 184.347C198.503 184.345 197.661 184.345 196.822 184.347C196.82 184.762 196.82 185.179 196.822 185.599C195.986 185.599 195.149 185.599 194.315 185.601C194.315 186.016 194.313 186.43 194.317 186.85C190.969 186.852 187.62 186.85 184.274 186.852C184.269 186.433 184.267 186.016 184.264 185.601C183.84 185.596 183.421 185.596 183.001 185.599C182.999 185.179 182.999 184.762 182.999 184.347C182.165 184.345 181.33 184.345 180.496 184.347C180.494 183.928 180.494 183.508 180.494 183.093C180.074 183.091 179.657 183.091 179.242 183.091C179.24 182.674 179.24 182.257 179.24 181.844C178.818 181.84 178.396 181.84 177.977 181.84C177.975 181.42 177.972 181.003 177.975 180.588C177.558 180.586 177.14 180.586 176.726 180.588C176.723 179.749 176.721 178.91 176.723 178.074C176.304 178.067 175.884 178.062 175.467 178.058C175.477 176.394 175.47 174.728 175.472 173.064C175.052 173.059 174.633 173.054 174.216 173.054C174.223 170.13 174.216 167.205 174.22 164.283C173.904 164.276 173.589 164.271 173.274 164.271C173.272 164.684 173.27 165.101 173.27 165.518L172.953 165.541C172.948 163.866 172.953 162.19 172.95 160.517C172.531 160.517 172.114 160.515 171.699 160.519C171.699 159.266 171.699 158.012 171.699 156.761C170.858 156.758 170.017 156.758 169.178 156.761C169.175 157.175 169.178 157.595 169.18 158.012C169.599 158.012 170.021 158.014 170.445 158.017C170.448 166.793 170.443 175.571 170.448 184.347C170.862 184.347 171.28 184.345 171.697 184.347C171.697 188.108 171.699 191.872 171.697 195.633C171.277 195.631 170.862 195.633 170.448 195.635C170.445 195.216 170.443 194.796 170.445 194.382C170.021 194.379 169.599 194.379 169.18 194.382C169.178 199.814 169.178 205.246 169.18 210.68C168.761 210.678 168.341 210.678 167.926 210.68C167.929 212.763 167.924 214.849 167.929 216.935C167.509 216.937 167.09 216.939 166.673 216.946C166.675 219.871 166.673 222.798 166.673 225.722C166.253 225.722 165.836 225.722 165.419 225.727C165.419 227.398 165.423 229.066 165.416 230.74C164.995 230.733 164.575 230.733 164.156 230.733C164.146 232.41 164.17 234.088 164.137 235.764C163.725 235.759 163.312 235.754 162.902 235.757C162.9 236.591 162.9 237.425 162.902 238.262C162.483 238.262 162.063 238.264 161.646 238.269C161.648 239.101 161.646 239.933 161.648 240.767C161.229 240.765 160.812 240.769 160.395 240.772C160.395 241.606 160.395 242.44 160.395 243.277C159.973 243.274 159.551 243.27 159.132 243.272C159.129 243.689 159.127 244.106 159.127 244.528C158.293 244.526 157.458 244.526 156.624 244.528C156.624 243.692 156.622 242.857 156.624 242.025C157.039 242.021 157.458 242.021 157.878 242.018C157.876 241.184 157.876 240.35 157.878 239.516C158.293 239.516 158.71 239.516 159.129 239.52C159.132 237.849 159.129 236.179 159.132 234.508C159.551 234.503 159.977 234.505 160.402 234.505C160.423 233.126 160.313 231.751 160.315 230.374C160.758 230.371 161.203 230.367 161.648 230.369C161.653 227.985 161.641 225.599 161.655 223.215C162.068 223.215 162.485 223.22 162.9 223.224C162.902 220.295 162.9 217.366 162.902 214.436C163.098 214.436 163.492 214.436 163.687 214.436C163.685 214.851 163.687 215.271 163.69 215.69C163.806 215.69 164.039 215.69 164.153 215.69C164.153 214.854 164.153 214.017 164.151 213.183C163.734 213.18 163.317 213.18 162.902 213.183C162.9 212.346 162.9 211.512 162.9 210.678C162.483 210.675 162.063 210.675 161.648 210.678C161.646 212.349 161.648 214.019 161.648 215.69C161.229 215.688 160.812 215.688 160.397 215.69C160.397 218.615 160.395 221.539 160.397 224.464C159.973 224.469 159.549 224.476 159.127 224.485C159.127 226.571 159.136 228.656 159.12 230.742C158.705 230.735 158.29 230.733 157.878 230.733C157.876 231.42 157.876 232.112 157.878 232.804C158.367 232.802 158.857 232.802 159.346 232.804C159.346 233.291 159.346 233.783 159.346 234.275C158.857 234.272 158.367 234.272 157.88 234.272C157.878 233.932 157.875 233.597 157.875 233.261C157.454 233.252 157.037 233.247 156.619 233.24C156.629 231.152 156.622 229.066 156.624 226.978C157.039 226.976 157.456 226.976 157.873 226.978C157.88 223.634 157.875 220.288 157.875 216.944C158.253 216.939 158.633 216.937 159.015 216.939C158.952 216.103 158.84 215.271 158.787 214.436C158.067 214.436 157.344 214.436 156.624 214.436C156.622 216.529 156.624 218.624 156.624 220.717C156.207 220.712 155.792 220.707 155.38 220.71C155.359 223.632 155.375 226.554 155.37 229.479C155.063 229.479 154.758 229.479 154.455 229.486C154.452 229.938 154.452 230.392 154.452 230.851C153.965 230.849 153.48 230.851 152.998 230.854C152.996 230.36 152.996 229.87 152.998 229.383C153.366 229.379 153.734 229.376 154.105 229.379C154.103 222.311 154.105 215.243 154.105 208.175C153.686 208.173 153.268 208.17 152.854 208.175C152.851 199.814 152.854 191.455 152.854 183.093C152.434 183.091 152.015 183.091 151.6 183.091C151.6 177.237 151.6 171.383 151.6 165.53C151.18 165.527 150.763 165.527 150.346 165.527C150.346 162.188 150.346 158.849 150.346 155.512C149.922 155.507 149.5 155.507 149.078 155.507C149.081 154.666 149.081 153.827 149.081 152.99C148.661 152.988 148.244 152.988 147.827 152.988C147.827 153.407 147.827 153.827 147.827 154.249C147.408 154.244 146.99 154.242 146.573 154.244C146.573 154.663 146.576 155.085 146.578 155.507C146.152 155.507 145.73 155.507 145.308 155.512C145.306 155.926 145.306 156.341 145.308 156.761C144.471 156.758 143.637 156.761 142.801 156.761C142.801 157.178 142.798 157.593 142.801 158.012C142.381 158.01 141.966 158.012 141.549 158.012C141.549 157.175 141.549 156.341 141.549 155.505C141.675 155.507 141.922 155.512 142.048 155.512C141.987 155.859 141.927 156.208 141.868 156.558C142.223 156.346 142.882 156.311 142.787 155.752C142.835 153.58 142.787 151.405 142.801 149.234C143.218 149.231 143.635 149.229 144.054 149.231C144.054 150.902 144.054 152.573 144.054 154.246C144.471 154.244 144.889 154.244 145.308 154.246C145.306 153.827 145.306 153.407 145.308 152.99C145.73 152.988 146.152 152.988 146.576 152.988C146.576 151.734 146.576 150.483 146.576 149.231C146.99 149.229 147.408 149.229 147.827 149.231C147.827 145.887 147.827 142.541 147.827 139.197C148.244 139.195 148.661 139.195 149.081 139.195C149.078 135.438 149.083 131.681 149.078 127.923C148.659 127.92 148.244 127.923 147.827 127.923C147.827 130.428 147.827 132.933 147.827 135.438C147.408 135.438 146.99 135.438 146.573 135.438C146.573 137.948 146.573 140.46 146.573 142.97C146.156 142.967 145.741 142.965 145.327 142.963C145.317 145.053 145.324 147.141 145.322 149.231C144.898 149.229 144.476 149.229 144.054 149.231C144.054 147.143 144.052 145.055 144.057 142.97C144.471 142.967 144.889 142.967 145.308 142.967C145.308 139.206 145.308 135.445 145.308 131.684C145.73 131.681 146.152 131.681 146.576 131.681C146.573 127.918 146.576 124.157 146.576 120.396C146.152 120.393 145.73 120.393 145.308 120.393C145.308 122.062 145.308 123.733 145.308 125.404C144.889 125.401 144.471 125.401 144.054 125.404C144.054 126.242 144.054 127.084 144.054 127.923C143.637 127.916 143.22 127.909 142.805 127.906C142.801 128.748 142.801 129.587 142.801 130.428C142.383 130.425 141.969 130.425 141.554 130.425C141.549 130.843 141.547 131.262 141.547 131.681C141.123 131.679 140.701 131.679 140.281 131.681C140.281 132.096 140.281 132.513 140.284 132.931C139.438 132.933 138.594 132.933 137.751 132.935C137.774 133.364 137.8 133.793 137.832 134.224C136.975 134.18 136.115 134.18 135.257 134.182C135.26 134.492 135.262 134.804 135.269 135.116C134.728 135.287 134.176 135.454 133.603 135.443C131.713 135.438 129.821 135.445 127.928 135.429C127.837 135.51 127.656 135.676 127.565 135.757C127.371 135.762 126.982 135.769 126.789 135.771C126.682 135.69 126.467 135.522 126.36 135.438C125.558 135.438 124.757 135.438 123.955 135.438C123.955 135.019 123.955 134.601 123.957 134.187C123.114 134.184 122.273 134.184 121.431 134.18C121.434 133.762 121.436 133.348 121.438 132.935C120.602 132.933 119.767 132.933 118.931 132.933C118.931 132.516 118.929 132.096 118.931 131.681C118.511 131.679 118.094 131.679 117.679 131.679C117.679 131.262 117.677 130.843 117.677 130.428C117.253 130.425 116.829 130.425 116.405 130.428C116.414 130.008 116.421 129.589 116.433 129.172C116.013 128.92 115.587 128.682 115.158 128.449C115.158 127.853 115.158 127.259 115.16 126.662C114.741 126.655 114.321 126.648 113.904 126.643C113.907 125.811 113.907 124.979 113.907 124.15C113.49 124.148 113.075 124.152 112.658 124.155C112.655 123.735 112.653 123.316 112.651 122.898C112.231 122.898 111.812 122.898 111.395 122.901C111.39 122.481 111.385 122.062 111.383 121.645C110.549 121.645 109.714 121.645 108.882 121.645C108.88 122.062 108.88 122.479 108.882 122.898C108.463 122.896 108.046 122.896 107.631 122.898C107.626 123.316 107.626 123.733 107.624 124.152C107.202 124.15 106.783 124.15 106.363 124.148C106.359 128.328 106.363 132.509 106.361 136.689C106.783 136.689 107.207 136.692 107.629 136.694C107.629 137.109 107.626 137.524 107.629 137.943C108.044 137.943 108.461 137.943 108.875 137.943C108.878 138.36 108.88 138.777 108.885 139.195C109.3 139.195 109.717 139.195 110.134 139.197C110.134 140.453 110.134 141.711 110.134 142.967C109.717 142.967 109.297 142.967 108.882 142.97C108.88 142.55 108.88 142.133 108.88 141.716C108.463 141.714 108.046 141.714 107.629 141.714C107.629 141.292 107.629 140.868 107.629 140.448C107.207 140.446 106.785 140.448 106.366 140.451C106.361 139.614 106.361 138.777 106.361 137.943C105.944 137.943 105.524 137.941 105.107 137.943C105.107 138.358 105.11 138.775 105.11 139.195C104.692 139.195 104.273 139.195 103.856 139.197C103.854 139.614 103.854 140.029 103.854 140.446C103.436 140.446 103.022 140.446 102.607 140.448C102.605 140.87 102.602 141.292 102.602 141.718C102.18 141.716 101.761 141.714 101.341 141.716C101.337 142.012 101.332 142.313 101.327 142.613C101.237 142.699 101.055 142.876 100.962 142.965C100.68 142.963 100.398 142.963 100.116 142.965C100.097 143.13 100.06 143.459 100.041 143.624C99.3327 144.165 98.4565 144.289 97.5873 144.24C97.571 144.454 97.5547 144.671 97.5384 144.89C97.3543 145.149 97.1795 145.414 97.0094 145.682C96.7763 145.785 96.5433 145.887 96.3126 145.99C96.3126 146.174 96.3126 146.542 96.3126 146.724C96.7297 146.724 97.1469 146.726 97.564 146.729C97.564 147.146 97.5617 147.56 97.564 147.98C97.9858 147.978 98.4076 147.978 98.8294 147.978C98.8317 148.814 98.8317 149.648 98.8317 150.485C99.2442 150.483 99.659 150.483 100.074 150.48C100.078 150.897 100.085 151.317 100.092 151.739C100.505 151.736 100.92 151.734 101.337 151.736C101.334 152.149 101.334 152.566 101.334 152.985C101.731 152.983 102.127 152.983 102.523 152.983C102.579 153.328 102.621 153.678 102.714 154.018C103.471 154.332 104.308 154.246 105.11 154.251C105.107 154.668 105.107 155.087 105.107 155.509C105.524 155.507 105.942 155.507 106.361 155.509C106.361 155.926 106.361 156.343 106.363 156.763C107.2 156.761 108.039 156.761 108.878 156.761C108.88 157.178 108.882 157.595 108.887 158.014C109.302 158.014 109.717 158.014 110.134 158.017C110.134 158.431 110.134 158.849 110.134 159.266C110.973 159.266 111.814 159.266 112.653 159.266C112.653 159.683 112.653 160.1 112.655 160.519C113.487 160.519 114.321 160.519 115.156 160.519C115.156 160.934 115.158 161.351 115.158 161.771C115.575 161.769 115.992 161.771 116.409 161.773C116.409 162.188 116.409 162.605 116.412 163.025C117.251 163.025 118.09 163.025 118.929 163.022C118.929 163.439 118.931 163.859 118.936 164.281C119.35 164.278 119.765 164.276 120.182 164.278C120.18 164.691 120.182 165.108 120.182 165.525C120.599 165.525 121.017 165.527 121.436 165.532C121.434 165.951 121.434 166.373 121.436 166.797C123.533 166.797 125.631 166.797 127.728 166.795C127.726 167.212 127.728 167.629 127.728 168.049C126.889 168.046 126.048 168.046 125.209 168.049C125.206 168.464 125.206 168.881 125.206 169.3C123.95 169.302 122.694 169.3 121.438 169.3C121.436 168.881 121.434 168.464 121.434 168.046C121.017 168.046 120.599 168.044 120.185 168.049C120.182 167.622 120.182 167.203 120.182 166.781C119.763 166.781 119.346 166.781 118.931 166.783C118.929 166.362 118.931 165.947 118.931 165.53C118.514 165.527 118.097 165.527 117.682 165.527C117.679 165.11 117.677 164.693 117.677 164.276C116.836 164.276 115.997 164.276 115.158 164.276C115.158 163.856 115.158 163.439 115.158 163.025C114.324 163.025 113.49 163.025 112.655 163.025C112.653 162.605 112.653 162.188 112.653 161.773C112.231 161.769 111.809 161.769 111.388 161.769C111.388 161.351 111.385 160.934 111.385 160.522C110.549 160.517 109.714 160.517 108.878 160.51C108.878 160.095 108.88 159.681 108.882 159.266C108.463 159.266 108.044 159.266 107.626 159.27C107.626 159.683 107.626 160.098 107.629 160.517C106.79 160.517 105.949 160.517 105.11 160.519C105.107 161.647 105.107 162.778 105.11 163.908C104.606 163.91 104.101 163.915 103.597 163.924C103.586 164.933 104.005 165.935 103.735 166.937C103.665 166.418 103.637 165.898 103.616 165.378C103.136 165.378 102.658 165.381 102.18 165.385C102.18 165.868 102.18 166.355 102.18 166.842C102.285 166.849 102.5 166.86 102.605 166.867C102.602 168.93 102.605 170.994 102.605 173.059C102.18 173.059 101.759 173.057 101.337 173.057C101.334 175.14 101.334 177.226 101.339 179.309C100.969 179.314 100.598 179.321 100.232 179.33C100.23 179.728 100.228 180.127 100.228 180.53C99.7382 180.528 99.2488 180.528 98.7595 180.528C98.7595 180.036 98.7595 179.549 98.7595 179.06C99.1999 179.057 99.6427 179.057 100.085 179.06C100.083 178.726 100.083 178.398 100.083 178.069C99.666 178.067 99.2488 178.067 98.8317 178.069C98.8317 176.816 98.8317 175.562 98.8294 174.31C98.4076 174.31 97.9858 174.308 97.564 174.313C97.564 173.891 97.5663 173.476 97.5663 173.061C97.1492 173.059 96.7321 173.057 96.3149 173.059C96.3126 173.476 96.3103 173.893 96.3079 174.315C95.8908 174.31 95.4737 174.308 95.0565 174.306C95.0635 170.545 95.0589 166.786 95.0612 163.025C94.22 163.025 93.381 163.022 92.5398 163.025C92.5398 167.62 92.5374 172.218 92.5421 176.813C92.125 176.813 91.7078 176.813 91.293 176.818C91.2884 176.396 91.2837 175.979 91.2814 175.562C90.8643 175.559 90.4495 175.562 90.0347 175.566C90.03 177.242 90.044 178.92 90.023 180.595C89.6105 180.588 89.1957 180.581 88.7833 180.579C88.7809 182.25 88.7809 183.923 88.7833 185.596C88.3592 185.596 87.935 185.599 87.5132 185.603C87.5179 187.689 87.5156 189.775 87.5156 191.86C87.0961 191.86 86.679 191.86 86.2618 191.863C86.2618 193.536 86.2618 195.209 86.2642 196.884C85.8447 196.882 85.4276 196.884 85.0081 196.887C85.0081 199.392 85.0105 201.897 85.0081 204.402C84.591 204.4 84.1739 204.4 83.7567 204.402C83.7567 206.073 83.7544 207.744 83.7591 209.417C83.3349 209.422 82.9108 209.424 82.489 209.431C82.482 210.964 82.51 212.498 82.4704 214.033C81.9717 214.532 82.009 215.387 82.4611 215.907C82.475 216.247 82.489 216.592 82.5007 216.937C82.0789 216.939 81.6548 216.942 81.233 216.951C81.2446 223.637 81.2353 230.325 81.2376 237.01C80.8205 237.008 80.4034 237.008 79.9862 237.01C79.9839 235.759 79.9839 234.508 79.9862 233.256C79.5668 233.252 79.1496 233.252 78.7325 233.252C78.7348 231.578 78.7325 229.903 78.7325 228.23C78.3107 228.227 77.8866 228.227 77.4648 228.23C77.4671 226.142 77.4648 224.054 77.4671 221.968C77.0477 221.966 76.6306 221.963 76.2134 221.966C76.2134 219.461 76.2088 216.956 76.2158 214.448C75.7963 214.439 75.3768 214.434 74.9574 214.43C74.9644 201.892 74.9574 189.353 74.962 176.816C75.3745 176.816 75.7893 176.816 76.2041 176.823C76.2181 170.552 76.2181 164.278 76.2041 158.007C75.7893 158.01 75.3745 158.012 74.9597 158.017C74.9597 159.266 74.9574 160.517 74.962 161.769C74.5379 161.769 74.1161 161.769 73.6943 161.773C73.692 162.188 73.692 162.607 73.692 163.027C73.2749 163.025 72.8577 163.022 72.4429 163.022C72.4476 155.5 72.429 147.975 72.4523 140.453C72.0305 140.448 71.6087 140.446 71.1892 140.446C71.1892 139.614 71.1892 138.78 71.1869 137.948C70.7674 137.943 70.3503 137.938 69.9308 137.934C69.9332 137.517 69.9355 137.104 69.9378 136.692C69.5137 136.689 69.0896 136.689 68.6678 136.692C68.6678 144.216 68.6678 151.741 68.6678 159.266C68.2507 159.263 67.8335 159.266 67.4164 159.266C67.4141 151.324 67.4164 143.384 67.4141 135.443C67.8335 135.438 68.2507 135.436 68.6678 135.433C68.6678 134.182 68.6701 132.933 68.6678 131.681C68.2507 131.679 67.8335 131.679 67.4187 131.681C67.4141 129.589 67.4164 127.496 67.4164 125.404C67.8335 125.401 68.2483 125.401 68.6655 125.404C68.6655 125.821 68.6678 126.238 68.6678 126.657C69.0896 126.655 69.5114 126.655 69.9355 126.655C69.9355 120.806 69.9355 114.957 69.9355 109.105C69.5114 109.105 69.0896 109.105 68.6678 109.108C68.6701 112.032 68.6655 114.957 68.6678 117.884C68.2507 117.884 67.8335 117.886 67.4164 117.888C67.4141 114.127 67.4164 110.364 67.4164 106.602C67.8335 106.6 68.2507 106.6 68.6678 106.6C68.6678 102.419 68.6701 98.2411 68.6678 94.0628C69.0896 94.0605 69.5137 94.0582 69.9355 94.0582C69.9332 90.297 69.9355 86.5358 69.9355 82.7747C70.3526 82.7723 70.7698 82.7723 71.1892 82.7723C71.1869 81.1015 71.1915 79.4306 71.1846 77.7621C70.7674 77.7598 70.3526 77.7598 69.9355 77.7598C69.9355 76.9209 69.9355 76.0819 69.9355 75.243C70.3503 75.243 70.7651 75.2453 71.1799 75.2477C71.1939 73.994 71.1892 72.7379 71.1892 71.4842C71.6063 71.4842 72.0235 71.4842 72.4406 71.4865C72.4406 70.6522 72.4406 69.8157 72.4429 68.9814C72.8577 68.9814 73.2749 68.9814 73.692 68.9814C73.692 68.1471 73.692 67.3105 73.6943 66.4763C74.1161 66.4739 74.5379 66.4739 74.9597 66.4716C74.9597 65.6397 74.962 64.8054 74.9597 63.9735C75.3768 63.9712 75.794 63.9688 76.2134 63.9665C76.2111 63.1276 76.2111 62.2887 76.2134 61.4497C76.6259 61.4497 77.0407 61.4521 77.4555 61.4544C77.4648 60.6178 77.4671 59.7835 77.4671 58.947C77.8889 58.947 78.3107 58.9446 78.7325 58.9446C78.7325 58.1104 78.7325 57.2738 78.7348 56.4395C79.1496 56.4395 79.5691 56.4395 79.9862 56.4418C79.9839 55.6052 79.9839 54.771 79.9839 53.9367C80.401 53.9344 80.8182 53.9344 81.2376 53.9344C81.2376 53.1001 81.2376 52.2635 81.2376 51.4293C81.6571 51.4293 82.0742 51.4293 82.4937 51.4293C82.4914 51.0191 82.489 50.6067 82.4867 50.1965C82.9108 50.1849 83.3326 50.1779 83.7591 50.1686C83.7567 49.3343 83.7567 48.5 83.7567 47.6635C84.1739 47.6588 84.5933 47.6541 85.0128 47.6471C85.0105 47.2323 85.0105 46.8175 85.0105 46.4027C85.4136 46.4051 85.8191 46.4074 86.2246 46.4097C86.2921 45.8831 86.1127 45.17 86.7838 44.9906C86.6091 44.9906 86.4343 44.9859 86.2595 44.9812C86.2595 44.62 86.2618 44.2612 86.2642 43.9C86.679 43.9 87.0961 43.9 87.5132 43.9C87.5156 43.4828 87.5156 43.0657 87.5179 42.6486C87.9397 42.6486 88.3592 42.6486 88.7833 42.6462C88.7809 42.2291 88.7833 41.8143 88.7833 41.3972C89.1981 41.3948 89.6152 41.3948 90.0347 41.3948C90.0347 40.9777 90.0347 40.5582 90.0347 40.1411C90.4518 40.1411 90.8689 40.1411 91.2861 40.1434C91.2861 39.724 91.2884 39.3069 91.2884 38.8897C92.5444 38.8921 93.8028 38.8921 95.0589 38.8897C95.0589 38.4726 95.0589 38.0555 95.0589 37.6407C95.8908 37.6383 96.7227 37.636 97.557 37.636C97.564 37.2119 97.571 36.7878 97.5803 36.366C98.4146 36.3706 99.2488 36.3706 100.085 36.373C100.083 35.9535 100.083 35.534 100.085 35.1169C100.503 35.1169 100.92 35.1169 101.339 35.1169C101.337 34.7044 101.334 34.292 101.332 33.8795C102.173 33.8632 103.012 33.8632 103.854 33.8632C103.856 33.4461 103.861 33.0289 103.865 32.6118C105.119 32.6141 106.373 32.6141 107.629 32.6118C107.629 32.1947 107.629 31.7775 107.631 31.3581C109.721 31.3604 111.814 31.3604 113.904 31.3604C113.904 31.7775 113.904 32.1947 113.907 32.6118C114.321 32.6118 114.739 32.6141 115.156 32.6141C115.156 32.197 115.158 31.7775 115.158 31.3604C114.741 31.3604 114.324 31.3604 113.907 31.3604C113.907 30.9433 113.907 30.5238 113.907 30.1067C115.999 30.1067 118.092 30.1067 120.185 30.1067C120.182 29.6895 120.182 29.2724 120.185 28.8553C121.441 28.8553 122.699 28.8553 123.957 28.8553C123.955 28.4382 123.955 28.021 123.955 27.6039ZM101.334 37.6383C101.334 38.0555 101.334 38.4726 101.337 38.8921C102.176 38.8897 103.015 38.8897 103.854 38.8897C103.856 38.4749 103.858 38.0578 103.863 37.643C103.019 37.636 102.176 37.636 101.334 37.6383ZM142.803 45.1537C142.801 45.5685 142.798 45.9833 142.798 46.4004C143.215 46.4051 143.632 46.4027 144.054 46.4051C144.052 45.9856 144.054 45.5685 144.052 45.149C143.635 45.149 143.22 45.1513 142.803 45.1537ZM156.624 45.1513C156.622 45.5685 156.622 45.9856 156.624 46.4051C157.039 46.4051 157.458 46.4051 157.878 46.4051C157.876 45.9856 157.875 45.5685 157.875 45.1513C157.458 45.1513 157.041 45.1513 156.624 45.1513ZM144.054 46.4051C144.054 47.237 144.054 48.0713 144.054 48.9032C144.471 48.9102 144.891 48.9148 145.31 48.9218C145.308 49.7561 145.306 50.5904 145.308 51.427C144.471 51.4293 143.637 51.4293 142.801 51.4293C142.801 51.8464 142.801 52.2659 142.801 52.683C143.218 52.683 143.635 52.683 144.054 52.683C144.054 53.5173 144.054 54.3539 144.057 55.1904C144.467 55.1881 144.879 55.1858 145.294 55.1835C145.301 55.6029 145.308 56.0224 145.315 56.4418C145.734 56.4395 146.152 56.4395 146.571 56.4395C146.571 56.8566 146.573 57.2738 146.576 57.6932C146.99 57.6909 147.408 57.6932 147.827 57.6932C147.827 58.5252 147.827 59.3571 147.827 60.1914C148.244 60.1983 148.664 60.2053 149.083 60.2147C149.078 60.6248 149.078 61.0373 149.078 61.4497C149.498 61.4497 149.92 61.4497 150.342 61.4521C150.344 61.0326 150.349 60.6131 150.353 60.196C151.185 60.196 152.019 60.1983 152.851 60.203C152.851 60.6178 152.849 61.0349 152.851 61.4497C153.69 61.4497 154.529 61.4497 155.368 61.4497C155.368 61.8715 155.368 62.2933 155.37 62.7174C155.788 62.7151 156.205 62.7174 156.624 62.7174C156.622 62.2933 156.622 61.8715 156.624 61.4497C156.207 61.4497 155.79 61.4474 155.375 61.4497C155.37 60.6178 155.37 59.7835 155.37 58.9516C154.946 58.9446 154.524 58.94 154.1 58.933C154.1 58.5182 154.103 58.1057 154.105 57.6932C153.688 57.6932 153.271 57.6932 152.856 57.6932C152.851 56.859 152.851 56.0224 152.851 55.1881C152.432 55.1858 152.017 55.1881 151.602 55.1881C151.6 54.7687 151.598 54.3515 151.598 53.9344C151.176 53.9344 150.756 53.9367 150.337 53.9367C150.337 53.5196 150.335 53.1001 150.337 52.6807C149.915 52.6807 149.498 52.6807 149.081 52.6807C149.081 51.8464 149.081 51.0122 149.078 50.1779C148.661 50.1779 148.247 50.1779 147.832 50.1779C147.827 49.7538 147.822 49.3273 147.818 48.9032C147.403 48.9055 146.988 48.9079 146.576 48.9125C146.573 48.4931 146.576 48.0759 146.576 47.6588C146.152 47.6588 145.73 47.6588 145.308 47.6565C145.306 47.2393 145.306 46.8222 145.306 46.4051C144.889 46.4051 144.471 46.4051 144.054 46.4051ZM154.105 47.6565C154.103 49.332 154.105 51.0075 154.103 52.683C153.686 52.683 153.266 52.6807 152.851 52.6807C152.851 53.5173 152.851 54.3515 152.851 55.1881C153.266 55.1881 153.683 55.1858 154.103 55.1858C154.103 55.6029 154.103 56.0224 154.107 56.4418C154.522 56.4395 154.942 56.4372 155.361 56.4372C155.366 56.8543 155.37 57.2738 155.377 57.6932C155.79 57.6932 156.205 57.6932 156.619 57.6932C156.622 57.2738 156.624 56.8566 156.629 56.4395C157.458 56.4395 158.288 56.4395 159.118 56.4372C159.122 56.8566 159.127 57.2738 159.136 57.6932C159.973 57.6932 160.809 57.6932 161.648 57.6932C161.648 56.8566 161.648 56.02 161.648 55.1858C161.231 55.1858 160.819 55.1881 160.404 55.1904C160.397 54.3539 160.395 53.5149 160.392 52.6783C159.97 52.6807 159.549 52.6807 159.132 52.683C159.127 52.2635 159.129 51.8487 159.129 51.4316C158.712 51.4293 158.293 51.427 157.878 51.427C157.876 51.0098 157.875 50.595 157.875 50.1779C157.458 50.1779 157.041 50.1756 156.624 50.1756C156.622 49.7538 156.622 49.332 156.622 48.9079C156.205 48.9079 155.788 48.9079 155.373 48.9102C155.37 48.4931 155.373 48.0759 155.373 47.6611C154.949 47.6588 154.527 47.6565 154.105 47.6565ZM151.6 51.427C151.598 51.8464 151.598 52.2659 151.6 52.6877C152.017 52.683 152.434 52.6807 152.856 52.6783C152.854 52.2635 152.851 51.8464 152.854 51.4316C152.434 51.4293 152.017 51.427 151.6 51.427ZM135.257 53.9344C135.257 54.3515 135.257 54.7687 135.257 55.1858C135.679 55.1881 136.101 55.1881 136.525 55.1881C136.523 56.0224 136.523 56.8566 136.525 57.6932C136.94 57.6932 137.359 57.6932 137.776 57.6932C137.776 58.5275 137.776 59.3618 137.779 60.196C138.193 60.196 138.611 60.1983 139.03 60.1983C139.028 60.6155 139.03 61.0326 139.032 61.4521C139.447 61.4521 139.862 61.4497 140.281 61.4521C140.279 61.8715 140.281 62.2933 140.281 62.7151C140.703 62.7151 141.125 62.7174 141.549 62.7174C141.549 62.2957 141.547 61.8739 141.549 61.4521C141.966 61.4521 142.381 61.4497 142.801 61.4521C142.798 61.8715 142.801 62.2933 142.801 62.7174C143.635 62.7174 144.471 62.7174 145.306 62.7174C145.306 62.2933 145.306 61.8715 145.308 61.4497C145.73 61.4497 146.152 61.4497 146.576 61.4521C146.576 60.6155 146.576 59.7812 146.573 58.9446C146.152 58.9446 145.73 58.9446 145.308 58.9446C145.308 58.5275 145.306 58.1104 145.308 57.6956C144.889 57.6932 144.474 57.6932 144.057 57.6909C144.054 57.2738 144.052 56.8566 144.052 56.4395C143.632 56.4395 143.218 56.4395 142.803 56.4395C142.803 55.6052 142.803 54.7687 142.803 53.9344C141.962 53.9344 141.12 53.9344 140.281 53.9344C140.281 54.3515 140.281 54.7687 140.281 55.1881C139.864 55.1881 139.447 55.1881 139.032 55.1881C139.03 54.771 139.028 54.3515 139.028 53.9344C137.772 53.9344 136.516 53.9344 135.257 53.9344ZM164.156 53.9344C164.153 54.3515 164.151 54.7687 164.153 55.1858C164.575 55.1881 164.997 55.1881 165.421 55.1881C165.419 54.771 165.421 54.3515 165.421 53.9344C164.997 53.9344 164.575 53.9344 164.156 53.9344ZM131.501 55.1858C131.498 56.0224 131.498 56.8566 131.501 57.6909C131.916 57.6932 132.333 57.6932 132.752 57.6956C132.752 58.5275 132.752 59.3618 132.75 60.196C133.167 60.196 133.586 60.1983 134.004 60.1983C134.004 60.6155 134.004 61.0326 134.006 61.4497C134.421 61.4497 134.84 61.4497 135.257 61.4497C135.257 60.6155 135.257 59.7812 135.257 58.9446C134.84 58.9446 134.421 58.9446 134.004 58.9423C134.004 58.108 134.004 57.2738 134.004 56.4418C133.584 56.4395 133.169 56.4395 132.752 56.4395C132.752 56.0224 132.752 55.6029 132.752 55.1881C132.335 55.1858 131.918 55.1858 131.501 55.1858ZM96.3126 56.4395C96.3126 56.8566 96.3103 57.2738 96.3103 57.6932C95.8931 57.6932 95.476 57.6932 95.0589 57.6932C95.0565 59.3618 95.0635 61.0326 95.0542 62.7035C95.4713 62.7105 95.8885 62.7174 96.3056 62.7268C96.3103 62.3003 96.3126 61.8762 96.3149 61.4521C96.7321 61.4497 97.1469 61.4497 97.564 61.4497C97.5663 59.7789 97.564 58.1104 97.564 56.4395C97.1469 56.4395 96.7297 56.4395 96.3126 56.4395ZM100.083 57.6909C100.085 60.203 100.085 62.7128 100.083 65.2226C100.924 65.2226 101.763 65.2226 102.605 65.2226C102.602 64.8054 102.605 64.3883 102.605 63.9712C103.022 63.9688 103.436 63.9688 103.856 63.9688C103.854 64.386 103.856 64.8054 103.856 65.2226C104.273 65.2226 104.69 65.2226 105.107 65.2249C105.11 63.1299 105.11 61.0373 105.107 58.9446C104.69 58.9446 104.273 58.9446 103.856 58.9446C103.856 59.3618 103.854 59.7789 103.856 60.1983C103.015 60.1983 102.176 60.1983 101.337 60.196C101.337 59.3618 101.337 58.5275 101.337 57.6932C100.917 57.6909 100.5 57.6909 100.083 57.6909ZM127.728 58.9446C127.726 59.3618 127.728 59.7789 127.728 60.1983C125.631 60.1983 123.533 60.196 121.438 60.1983C121.436 60.6155 121.434 61.0326 121.434 61.4497C120.599 61.4497 119.765 61.4497 118.933 61.4474C118.931 61.8715 118.931 62.2933 118.931 62.7174C119.346 62.7174 119.763 62.7174 120.18 62.7174C120.182 63.1346 120.182 63.5517 120.185 63.9688C121.026 63.9688 121.865 63.9688 122.706 63.9735C122.704 64.3906 122.704 64.8054 122.704 65.2226C123.536 65.2226 124.37 65.2226 125.206 65.2202C125.206 65.6397 125.206 66.0568 125.209 66.4739C126.048 66.4739 126.889 66.4739 127.728 66.4739C127.728 66.0568 127.726 65.6397 127.728 65.2249C128.984 65.2226 130.242 65.2226 131.501 65.2249C131.498 65.6397 131.498 66.0568 131.498 66.4739C131.916 66.4739 132.333 66.4739 132.752 66.4739C132.752 65.6397 132.752 64.8054 132.754 63.9712C132.335 63.9688 131.918 63.9688 131.501 63.9688C131.501 63.1276 131.501 62.2887 131.498 61.4474C131.079 61.4474 130.659 61.4497 130.242 61.4521C130.235 61.0349 130.233 60.6155 130.228 60.1983C129.811 60.196 129.396 60.196 128.982 60.196C128.979 59.7789 128.979 59.3618 128.979 58.9446C128.56 58.9446 128.143 58.9446 127.728 58.9446ZM111.385 60.1983C111.385 61.4544 111.385 62.7128 111.388 63.9712C112.644 63.9712 113.902 63.9712 115.16 63.9688C115.158 64.3883 115.158 64.8054 115.158 65.2226C115.575 65.2226 115.992 65.2226 116.409 65.2226C116.409 64.8054 116.412 64.3883 116.412 63.9712C116.834 63.9712 117.255 63.9688 117.679 63.9688C117.677 63.5517 117.677 63.1346 117.679 62.7174C117.255 62.7174 116.834 62.7174 116.412 62.7174C116.412 61.8762 116.412 61.0373 116.412 60.1983C114.736 60.196 113.061 60.1983 111.385 60.1983ZM179.245 60.3638C179.238 60.725 179.238 61.0885 179.235 61.4497C179.559 61.4497 179.883 61.4497 180.212 61.4521C179.89 61.0885 179.571 60.7227 179.245 60.3638ZM135.257 61.4521C135.257 62.291 135.257 63.1299 135.257 63.9712C135.679 63.9712 136.101 63.9688 136.525 63.9688C136.525 63.1299 136.525 62.2887 136.525 61.4497C136.101 61.4497 135.679 61.4497 135.257 61.4521ZM150.346 61.4497C150.346 61.8715 150.346 62.2933 150.346 62.7174C150.763 62.7151 151.18 62.7151 151.6 62.7174C151.598 62.2933 151.598 61.8715 151.6 61.4497C151.18 61.4497 150.763 61.4497 150.346 61.4497ZM183.004 68.9255C182.999 69.3612 182.999 69.797 182.999 70.2351C183.439 70.2328 183.88 70.2281 184.323 70.2235C184.267 69.8506 184.274 69.4638 184.136 69.1119C183.775 68.9674 183.379 68.9767 183.004 68.9255ZM110.134 80.2672C110.134 84.4455 110.136 88.6238 110.132 92.7998C110.551 92.8068 110.968 92.8114 111.39 92.8208C111.388 93.2332 111.385 93.6457 111.385 94.0605C111.807 94.0605 112.229 94.0605 112.653 94.0605C112.653 93.6434 112.653 93.2239 112.655 92.8091C113.907 92.8068 115.16 92.8114 116.414 92.8021C116.412 92.385 116.409 91.9702 116.412 91.5554C117.248 91.5554 118.087 91.5554 118.924 91.56C118.926 91.1383 118.931 90.7188 118.933 90.3017C118.518 90.3017 118.104 90.304 117.689 90.3063C117.684 89.8869 117.677 89.4674 117.672 89.0503C117.251 89.0479 116.831 89.0503 116.412 89.0503C116.412 88.209 116.412 87.3701 116.412 86.5312C115.992 86.5312 115.575 86.5288 115.16 86.5288C115.158 86.1117 115.156 85.6923 115.156 85.2751C114.739 85.2751 114.321 85.2751 113.907 85.2775C113.907 84.8603 113.907 84.4432 113.907 84.0284C113.49 84.0261 113.07 84.0237 112.655 84.0237C112.653 83.1895 112.653 82.3529 112.651 81.5186C112.229 81.5186 111.807 81.5186 111.388 81.5186C111.388 81.1015 111.388 80.6867 111.388 80.2696C110.968 80.2672 110.551 80.2672 110.134 80.2672ZM120.182 84.0261C120.182 85.2798 120.178 86.5335 120.189 87.7872C120.604 87.7849 121.019 87.7826 121.436 87.7802C121.436 88.6215 121.436 89.4627 121.436 90.3017C123.116 90.304 124.796 90.304 126.477 90.3017C126.474 89.8845 126.474 89.4674 126.477 89.0503C125.635 89.0503 124.794 89.0503 123.955 89.0479C123.957 88.209 123.957 87.3701 123.955 86.5312C123.116 86.5312 122.275 86.5312 121.436 86.5312C121.436 85.6946 121.436 84.8603 121.436 84.0261C121.017 84.0261 120.599 84.0261 120.182 84.0261ZM88.7809 91.5554C88.7809 94.4776 88.7809 97.3999 88.7809 100.322C90.4565 100.324 92.132 100.324 93.8052 100.322C93.8052 99.905 93.8075 99.4902 93.8075 99.0754C93.3857 99.0707 92.9616 99.0684 92.5398 99.0661C92.5398 97.8147 92.5374 96.5656 92.5398 95.3142C92.1226 95.3119 91.7032 95.3119 91.2861 95.3119C91.2884 94.0605 91.2884 92.8068 91.2884 91.5554C90.4518 91.5531 89.6175 91.5531 88.7809 91.5554ZM123.955 92.8091C123.955 93.2262 123.955 93.6434 123.955 94.0628C124.37 94.0605 124.785 94.0582 125.202 94.0582C125.206 94.4753 125.213 94.8971 125.22 95.3166C125.638 95.3142 126.055 95.3119 126.474 95.3119C126.472 95.729 126.472 96.1438 126.472 96.561C126.889 96.5633 127.308 96.5656 127.73 96.5703C127.728 96.9827 127.726 97.3952 127.726 97.81C128.145 97.817 128.564 97.824 128.986 97.8333C128.982 98.2435 128.979 98.6559 128.977 99.0707C130.214 99.0707 131.452 99.0707 132.692 99.0707C132.761 99.4669 132.724 99.9003 132.955 100.252C134.132 100.427 135.336 100.28 136.525 100.324C136.525 100.739 136.523 101.156 136.525 101.576C136.94 101.576 137.359 101.576 137.776 101.576C137.776 101.156 137.776 100.742 137.779 100.324C139.035 100.322 140.291 100.324 141.549 100.322C141.549 99.905 141.549 99.4879 141.549 99.0707C140.293 99.0707 139.037 99.0707 137.781 99.0707C137.776 98.6513 137.774 98.2341 137.774 97.817C136.935 97.817 136.096 97.817 135.257 97.817C135.257 97.4022 135.257 96.9851 135.257 96.5703C134.838 96.5656 134.418 96.561 133.999 96.554C134.001 96.1392 134.004 95.7244 134.008 95.3119C133.176 95.3119 132.349 95.3119 131.519 95.3166C131.508 94.8971 131.498 94.4776 131.491 94.0582C131.07 94.0582 130.65 94.0605 130.233 94.0605C130.233 93.6457 130.235 93.2309 130.238 92.8161C128.143 92.7975 126.05 92.8114 123.955 92.8091ZM77.2504 94.0512C77.2528 94.4823 77.2038 94.9204 77.2691 95.3538C77.6466 95.6195 78.1849 95.5845 78.5764 95.3608C78.7861 94.953 78.7139 94.4823 78.7605 94.0442C78.2571 94.0442 77.7538 94.0465 77.2504 94.0512ZM81.6594 94.0442C81.6594 94.5359 81.6618 95.0276 81.6618 95.5193C82.1465 95.517 82.6312 95.517 83.1182 95.517C83.1159 95.0276 83.1159 94.5359 83.1182 94.0489C82.6312 94.0465 82.1441 94.0442 81.6594 94.0442ZM120.182 94.0605C120.182 94.4776 120.18 94.8924 120.182 95.3119C118.926 95.3119 117.67 95.3119 116.414 95.3119C116.412 95.729 116.409 96.1462 116.409 96.5656C115.158 96.5656 113.907 96.5656 112.655 96.5656C112.653 96.9828 112.653 97.3975 112.653 97.817C112.229 97.8147 111.807 97.817 111.385 97.8193C111.385 98.2341 111.385 98.6513 111.385 99.0684C111.807 99.0684 112.229 99.0707 112.653 99.0707C112.653 99.9073 112.653 100.742 112.655 101.578C113.072 101.576 113.487 101.576 113.904 101.576C113.904 102.415 113.904 103.256 113.907 104.095C114.321 104.095 114.741 104.095 115.158 104.095C115.158 104.929 115.158 105.763 115.158 106.6C115.575 106.6 115.992 106.6 116.409 106.602C116.407 107.493 116.4 108.383 116.456 109.273C117.036 108.921 117.512 108.427 117.873 107.854C118.211 107.854 118.551 107.854 118.891 107.858C118.903 107.493 118.931 107.131 118.97 106.77C119.318 106.351 119.763 106.027 120.18 105.68C120.182 105.153 120.185 104.624 120.185 104.097C119.767 104.095 119.348 104.093 118.931 104.093C118.931 103.254 118.931 102.415 118.931 101.578C119.765 101.576 120.599 101.576 121.434 101.578C121.434 101.159 121.436 100.742 121.438 100.324C123.116 100.322 124.796 100.324 126.477 100.322C126.474 99.905 126.474 99.4879 126.477 99.0707C126.052 99.0684 125.631 99.0684 125.209 99.0707C125.209 98.6513 125.206 98.2318 125.206 97.8147C124.789 97.8147 124.372 97.8147 123.955 97.817C123.955 97.3999 123.957 96.9851 123.96 96.5703C123.538 96.5656 123.121 96.5633 122.701 96.5633C122.701 96.1462 122.701 95.7314 122.704 95.3166C122.28 95.3119 121.855 95.3096 121.434 95.3049C121.434 94.8901 121.436 94.4753 121.436 94.0605C121.019 94.0605 120.599 94.0605 120.182 94.0605ZM172.953 95.3142C172.95 95.729 172.95 96.1462 172.95 96.5656C172.119 96.5656 171.284 96.5656 170.455 96.5656C170.443 96.9828 170.436 97.4022 170.427 97.8217C170.01 97.8193 169.592 97.817 169.178 97.8147C169.178 98.6466 169.178 99.4785 169.18 100.31C168.761 100.317 168.341 100.324 167.924 100.331C167.929 102.422 167.924 104.51 167.926 106.6C169.592 106.598 171.259 106.605 172.927 106.595C172.939 106.996 172.943 107.397 172.985 107.796C173.386 107.858 173.796 107.863 174.204 107.889C174.202 108.294 174.204 108.7 174.207 109.108C174.624 109.105 175.041 109.101 175.46 109.101C175.481 111.193 175.465 113.288 175.472 115.381C175.048 115.381 174.626 115.383 174.207 115.385C174.204 115.8 174.204 116.217 174.204 116.634C173.785 116.634 173.368 116.635 172.953 116.637C172.95 117.469 172.95 118.301 172.953 119.133C172.531 119.137 172.114 119.144 171.694 119.151C171.694 119.564 171.694 119.979 171.699 120.393C171.28 120.391 170.862 120.393 170.448 120.393C170.445 119.557 170.445 118.72 170.438 117.884C170.017 117.884 169.597 117.888 169.178 117.893C169.178 121.235 169.178 124.576 169.178 127.92C170.019 127.925 170.858 127.925 171.701 127.923C171.697 127.501 171.697 127.079 171.697 126.66C172.114 126.657 172.531 126.655 172.95 126.655C172.95 125.821 172.95 124.989 172.95 124.157C173.368 124.152 173.787 124.148 174.204 124.143C174.204 123.728 174.207 123.318 174.209 122.908C174.631 122.901 175.052 122.896 175.474 122.891C175.472 122.477 175.47 122.06 175.472 121.647C175.887 121.645 176.304 121.647 176.721 121.649C176.723 120.813 176.723 119.976 176.723 119.142C177.14 119.14 177.555 119.14 177.975 119.14C177.975 118.722 177.975 118.305 177.977 117.891C178.399 117.888 178.821 117.886 179.245 117.884C179.242 117.049 179.242 116.217 179.242 115.385C179.66 115.383 180.077 115.381 180.496 115.381C180.494 114.542 180.496 113.705 180.496 112.866C180.913 112.862 181.333 112.859 181.752 112.857C181.745 109.937 181.75 107.015 181.75 104.095C181.33 104.095 180.911 104.093 180.496 104.093C180.496 102.837 180.494 101.581 180.496 100.324C180.074 100.322 179.655 100.322 179.235 100.322C179.233 99.905 179.235 99.4855 179.238 99.0684C178.818 99.0684 178.394 99.0684 177.977 99.0707C177.975 98.6513 177.975 98.2341 177.977 97.8193C177.558 97.817 177.14 97.817 176.723 97.817C176.721 97.3999 176.721 96.9851 176.723 96.5703C176.304 96.5656 175.884 96.561 175.467 96.5563C175.467 96.1415 175.47 95.7267 175.474 95.3119C174.633 95.3119 173.792 95.3119 172.953 95.3142ZM75.7567 95.4867C75.787 95.9085 75.7543 96.3419 75.8615 96.7567C76.2647 97.0736 76.817 96.9385 77.2924 97.0084C77.2551 96.5633 77.3087 96.1065 77.1735 95.6778C76.7424 95.4354 76.2274 95.5379 75.7567 95.4867ZM78.891 95.6754C78.6766 96.0739 78.7512 96.54 78.7046 96.9758C79.1986 96.9758 79.6949 96.9734 80.1913 96.9711C80.1913 96.4747 80.189 95.976 80.1843 95.4773C79.7532 95.5263 79.2895 95.468 78.891 95.6754ZM74.3352 96.9455C74.3328 97.4442 74.3328 97.9428 74.3328 98.4439C74.8245 98.4439 75.3139 98.4439 75.8033 98.4462C75.794 97.9895 75.8429 97.5304 75.7683 97.0806C75.3116 96.9128 74.8106 96.9851 74.3352 96.9455ZM82.1418 97.4675C82.1395 97.9568 82.1395 98.4485 82.1418 98.9402C82.6312 98.9379 83.1205 98.9379 83.6122 98.9402C83.6122 98.4485 83.6122 97.9568 83.6122 97.4675C83.1205 97.4675 82.6312 97.4675 82.1418 97.4675ZM72.8647 98.4439C72.8624 98.9332 72.8624 99.4249 72.8624 99.9166C73.3518 99.9143 73.8435 99.9143 74.3352 99.9166C74.3352 99.4249 74.3328 98.9356 74.3328 98.4462C73.8435 98.4439 73.3541 98.4439 72.8647 98.4439ZM76.2857 98.4439C76.2857 98.9332 76.2857 99.4249 76.2857 99.9166C76.7704 99.9143 77.2574 99.9143 77.7421 99.9166C77.7421 99.4249 77.7421 98.9356 77.7421 98.4439C77.2574 98.4439 76.7704 98.4439 76.2857 98.4439ZM78.7325 98.4439C78.7325 98.9332 78.7302 99.4226 78.7302 99.9143C79.2172 99.9143 79.7019 99.9167 80.189 99.919C80.189 99.4273 80.1913 98.9356 80.1913 98.4462C79.7043 98.4439 79.2196 98.4439 78.7325 98.4439ZM74.3305 99.9213C74.3328 100.404 74.3328 100.888 74.3352 101.373C74.8199 101.371 75.3069 101.371 75.794 101.371C75.7916 100.884 75.7916 100.397 75.7893 99.9097C75.3023 99.912 74.8176 99.9166 74.3305 99.9213ZM149.572 99.9143C149.572 100.399 149.572 100.886 149.575 101.373C150.06 101.373 150.544 101.373 151.031 101.373C151.031 100.886 151.031 100.399 151.031 99.9143C150.544 99.9143 150.06 99.9143 149.572 99.9143ZM86.2642 100.324C86.2618 100.742 86.2618 101.159 86.2618 101.576C86.679 101.576 87.0961 101.576 87.5132 101.576C87.5132 101.156 87.5156 100.739 87.5156 100.324C87.0984 100.322 86.6813 100.322 86.2642 100.324ZM131.503 100.294C131.501 100.721 131.498 101.149 131.498 101.578C131.934 101.576 132.368 101.574 132.803 101.571C132.75 101.161 132.775 100.735 132.633 100.345C132.258 100.283 131.876 100.308 131.503 100.294ZM76.7657 101.373C76.7657 101.862 76.7657 102.352 76.7657 102.844C77.2574 102.844 77.7468 102.844 78.2385 102.846C78.2385 102.352 78.2362 101.862 78.2362 101.371C77.7468 101.371 77.2574 101.371 76.7657 101.373ZM145.322 101.518C145.31 101.956 145.306 102.396 145.301 102.839C145.581 102.841 145.86 102.844 146.142 102.848C146.147 102.967 146.156 103.205 146.161 103.324C146.648 103.324 147.135 103.324 147.622 103.324C147.622 102.858 147.622 102.394 147.624 101.93C146.853 101.802 146.098 101.597 145.322 101.518ZM151.528 101.867C151.525 102.352 151.525 102.837 151.525 103.324C152.015 103.324 152.506 103.324 152.998 103.324C152.996 102.837 152.996 102.352 152.998 101.867C152.506 101.867 152.015 101.867 151.528 101.867ZM90.0347 102.844C90.0347 103.678 90.0347 104.514 90.037 105.351C90.4518 105.349 90.8666 105.349 91.2837 105.346C91.2861 106.183 91.2861 107.017 91.2884 107.851C91.7032 107.851 92.1203 107.854 92.5374 107.854C92.5374 108.271 92.5398 108.688 92.5398 109.105C92.9616 109.105 93.3834 109.105 93.8052 109.105C93.8052 109.522 93.8075 109.939 93.8098 110.359C94.2246 110.357 94.6417 110.359 95.0589 110.359C95.0589 110.776 95.0589 111.193 95.0589 111.613C95.4737 111.61 95.8908 111.61 96.3079 111.61C96.3103 112.025 96.3103 112.44 96.3126 112.855C96.7297 112.862 97.1492 112.871 97.5663 112.88C97.564 113.29 97.564 113.703 97.5617 114.115C98.4029 114.115 99.2418 114.115 100.081 114.115C100.083 114.537 100.083 114.961 100.085 115.383C100.924 115.381 101.763 115.383 102.605 115.383C102.605 116.217 102.605 117.049 102.605 117.886C103.022 117.886 103.439 117.891 103.858 117.895C103.856 118.308 103.854 118.725 103.854 119.14C105.112 119.14 106.37 119.142 107.631 119.14C107.629 118.722 107.629 118.305 107.629 117.888C109.304 117.886 110.98 117.895 112.655 117.884C112.653 117.047 112.653 116.213 112.66 115.376C113.075 115.378 113.49 115.381 113.907 115.385C113.907 114.549 113.907 113.712 113.907 112.876C113.734 112.869 113.387 112.857 113.215 112.852C113.436 112.591 113.66 112.333 113.883 112.076C113.89 112.274 113.904 112.668 113.911 112.866C114.326 112.862 114.743 112.862 115.16 112.862C115.158 112.445 115.158 112.027 115.158 111.61C113.485 111.61 111.809 111.61 110.136 111.61C110.134 111.193 110.134 110.776 110.132 110.359C109.297 110.359 108.461 110.359 107.626 110.35C107.626 109.935 107.629 109.52 107.631 109.105C106.79 109.105 105.951 109.105 105.11 109.105C105.11 108.688 105.107 108.269 105.107 107.851C104.69 107.851 104.273 107.849 103.856 107.851C103.856 107.434 103.858 107.02 103.861 106.607C103.441 106.602 103.022 106.6 102.605 106.598C102.605 106.181 102.602 105.763 102.602 105.349C102.18 105.346 101.759 105.346 101.337 105.349C101.334 106.183 101.334 107.02 101.337 107.854C101.759 107.851 102.18 107.851 102.602 107.851C102.602 108.269 102.605 108.686 102.607 109.105C103.022 109.105 103.439 109.105 103.856 109.105C103.856 109.942 103.856 110.776 103.856 111.613C104.273 111.61 104.69 111.61 105.107 111.613C105.107 112.027 105.107 112.447 105.107 112.864C104.273 112.862 103.439 112.862 102.605 112.864C102.602 112.445 102.602 112.025 102.6 111.61C102.178 111.608 101.759 111.608 101.337 111.61C101.337 111.191 101.337 110.776 101.339 110.359C100.503 110.359 99.666 110.359 98.8317 110.359C98.8317 109.939 98.8317 109.522 98.8317 109.108C98.4076 109.105 97.9858 109.105 97.564 109.105C97.564 108.688 97.564 108.271 97.564 107.858C97.1445 107.851 96.7274 107.849 96.3103 107.844C96.3103 107.43 96.3126 107.015 96.3126 106.602C95.8955 106.6 95.4783 106.6 95.0612 106.6C95.0589 105.763 95.0589 104.929 95.0612 104.095C94.6441 104.095 94.2269 104.093 93.8121 104.095C93.8075 103.675 93.8052 103.258 93.8028 102.841C92.5468 102.844 91.2907 102.841 90.0347 102.844ZM147.622 103.324C147.622 103.813 147.622 104.302 147.622 104.792C148.107 104.794 148.594 104.794 149.081 104.796C149.078 104.305 149.078 103.813 149.081 103.324C148.594 103.324 148.107 103.324 147.622 103.324ZM86.2642 104.095C86.2618 104.512 86.2618 104.929 86.2618 105.349C85.8447 105.346 85.4253 105.346 85.0105 105.349C85.0081 107.017 85.0081 108.688 85.0105 110.359C85.4253 110.357 85.8447 110.359 86.2618 110.359C86.2618 111.193 86.2618 112.027 86.2618 112.864C87.1031 112.864 87.9444 112.862 88.7856 112.862C88.7833 112.445 88.7833 112.027 88.7833 111.613C90.0347 111.61 91.2861 111.61 92.5374 111.613C92.5374 111.193 92.5398 110.776 92.5398 110.359C91.7055 110.359 90.8713 110.359 90.0347 110.359C90.0347 109.522 90.0347 108.686 90.0323 107.849C89.6152 107.851 89.2004 107.851 88.7856 107.854C88.7833 107.017 88.7833 106.183 88.7809 105.349C88.3591 105.346 87.9374 105.349 87.5156 105.349C87.5156 104.929 87.5132 104.512 87.5156 104.095C87.0961 104.095 86.679 104.095 86.2642 104.095ZM112.651 106.598C112.653 107.036 112.658 107.474 112.667 107.914C113.033 107.854 113.415 107.851 113.762 107.707C113.904 107.36 113.909 106.98 113.967 106.614C113.527 106.605 113.089 106.6 112.651 106.598ZM131.501 106.602C131.498 107.017 131.498 107.432 131.501 107.851C131.077 107.851 130.655 107.851 130.233 107.854C130.231 108.269 130.231 108.686 130.231 109.105C131.072 109.105 131.913 109.105 132.754 109.103C132.752 108.269 132.752 107.434 132.752 106.6C132.333 106.6 131.916 106.6 131.501 106.602ZM114.077 108.024C113.907 108.357 113.911 108.737 113.851 109.101C114.287 109.101 114.725 109.105 115.16 109.105C115.158 108.667 115.153 108.229 115.149 107.793C114.788 107.854 114.41 107.858 114.077 108.024ZM137.776 107.854C137.779 109.52 137.774 111.188 137.781 112.857C137.359 112.862 136.94 112.866 136.523 112.876C136.523 113.71 136.525 114.544 136.523 115.381C136.94 115.381 137.357 115.383 137.774 115.385C137.776 114.961 137.779 114.537 137.781 114.115C138.289 114.115 138.797 114.115 139.307 114.115C139.305 113.775 139.305 113.435 139.305 113.097C139.797 113.097 140.288 113.099 140.78 113.106C140.778 113.575 140.778 114.045 140.778 114.516C140.65 114.542 140.393 114.595 140.267 114.623C140.272 114.812 140.286 115.19 140.291 115.381C139.871 115.381 139.452 115.381 139.035 115.383C139.03 115.8 139.028 116.22 139.023 116.637C137.769 116.635 136.513 116.635 135.26 116.637C135.257 117.052 135.255 117.469 135.257 117.886C133.165 117.888 131.072 117.888 128.982 117.888C128.979 117.469 128.979 117.052 128.982 116.637C130.655 116.635 132.33 116.641 134.006 116.63C134.004 116.215 134.004 115.798 134.006 115.383C134.421 115.381 134.84 115.381 135.257 115.383C135.257 114.542 135.257 113.703 135.257 112.864C134.006 112.862 132.752 112.862 131.501 112.864C131.498 113.279 131.498 113.696 131.498 114.115C130.659 114.115 129.821 114.115 128.982 114.113C128.979 113.696 128.979 113.279 128.979 112.864C128.157 112.862 127.334 112.862 126.511 112.864C126.47 113.242 126.507 113.642 126.341 113.997C125.985 114.148 125.586 114.113 125.209 114.15C125.209 113.302 125.209 112.456 125.204 111.608C124.37 111.61 123.536 111.61 122.704 111.61C122.701 111.191 122.704 110.776 122.704 110.361C122.282 110.359 121.858 110.357 121.436 110.357C121.434 111.61 121.436 112.864 121.434 114.115C121.017 114.115 120.602 114.113 120.185 114.115C120.185 113.696 120.182 113.276 120.182 112.859C119.805 112.862 119.43 112.866 119.054 112.873C118.677 113.407 118.257 113.917 117.726 114.306C117.696 113.824 117.679 113.346 117.665 112.866C117.246 112.864 116.829 112.862 116.412 112.862C116.412 113.279 116.409 113.696 116.412 114.115C115.995 114.113 115.58 114.113 115.165 114.111C115.153 116.572 115.156 119.032 115.163 121.493C115.561 121.689 116.06 121.822 116.246 122.276C116.552 122.989 117.139 123.502 117.61 124.099C117.696 124.527 117.684 124.968 117.707 125.404C118.113 125.401 118.521 125.401 118.931 125.404C118.929 125.821 118.931 126.238 118.931 126.655C119.348 126.655 119.765 126.655 120.182 126.657C120.182 127.916 120.178 129.174 120.192 130.435C120.604 130.428 121.019 130.428 121.434 130.425C121.434 130.843 121.434 131.26 121.436 131.681C122.275 131.681 123.114 131.681 123.953 131.681C123.953 132.099 123.955 132.516 123.957 132.933C127.723 132.933 131.489 132.935 135.257 132.933C135.257 132.516 135.257 132.096 135.26 131.681C136.096 131.681 136.935 131.681 137.774 131.684C137.776 131.264 137.776 130.845 137.781 130.428C138.613 130.428 139.447 130.428 140.281 130.43C140.281 130.011 140.284 129.594 140.286 129.176C140.706 129.174 141.127 129.174 141.549 129.176C141.549 128.335 141.549 127.496 141.549 126.657C141.966 126.655 142.383 126.655 142.803 126.655C142.803 121.223 142.803 115.791 142.803 110.359C142.383 110.357 141.966 110.357 141.551 110.359C141.549 109.939 141.549 109.522 141.549 109.108C141.125 109.105 140.706 109.103 140.284 109.103C140.281 108.686 140.281 108.269 140.281 107.854C139.447 107.851 138.611 107.851 137.776 107.854ZM134.006 109.105C134.004 109.522 134.004 109.939 134.006 110.359C134.421 110.357 134.84 110.357 135.257 110.359C135.257 109.939 135.257 109.522 135.257 109.105C134.84 109.105 134.421 109.105 134.006 109.105ZM167.926 110.359C167.926 112.032 167.926 113.708 167.926 115.383C168.343 115.381 168.763 115.381 169.185 115.381C169.18 114.961 169.175 114.542 169.173 114.127C169.595 114.12 170.019 114.115 170.445 114.111C170.445 113.279 170.445 112.445 170.445 111.613C170.021 111.61 169.599 111.608 169.18 111.606C169.178 111.188 169.178 110.774 169.18 110.359C168.761 110.359 168.343 110.357 167.926 110.359ZM86.2642 114.115C86.2618 114.537 86.2618 114.959 86.2618 115.383C86.679 115.381 87.0984 115.381 87.5156 115.381C87.5156 114.959 87.5132 114.537 87.5132 114.115C87.0961 114.113 86.679 114.113 86.2642 114.115ZM97.5663 117.888C97.564 118.303 97.5617 118.72 97.5617 119.137C97.9835 119.14 98.4076 119.142 98.8317 119.144C98.8317 119.559 98.8317 119.976 98.8317 120.393C99.2488 120.391 99.666 120.393 100.085 120.393C100.085 119.557 100.083 118.72 100.078 117.886C99.2395 117.886 98.4029 117.888 97.5663 117.888ZM91.2861 119.144C91.2861 119.559 91.2861 119.976 91.2861 120.393C90.8689 120.391 90.4518 120.393 90.0347 120.393C90.0347 121.228 90.0347 122.062 90.0347 122.898C90.4495 122.896 90.8666 122.896 91.2837 122.898C91.2861 123.316 91.2861 123.733 91.2884 124.152C91.7055 124.15 92.1226 124.15 92.5398 124.15C92.5398 124.984 92.5398 125.821 92.5398 126.655C93.7958 126.655 95.0542 126.657 96.3126 126.655C96.3103 126.238 96.3103 125.821 96.3126 125.404C95.9188 125.401 95.5226 125.401 95.1311 125.404C95.0612 125.045 95.0426 124.67 94.8888 124.336C94.5555 124.157 94.171 124.15 93.8075 124.082C93.8075 123.686 93.8075 123.292 93.8075 122.898C93.3834 122.898 92.9616 122.896 92.5398 122.898C92.5398 121.645 92.5398 120.391 92.5398 119.14C92.1203 119.14 91.7032 119.142 91.2861 119.144ZM194.52 120.435C194.518 120.92 194.518 121.407 194.52 121.894C195.009 121.894 195.501 121.894 195.993 121.894C195.991 121.407 195.993 120.92 195.993 120.435C195.501 120.435 195.009 120.435 194.52 120.435ZM102.605 121.647C102.605 122.062 102.602 122.479 102.602 122.898C100.069 122.905 97.5337 122.882 94.9983 122.912C95.0565 123.281 95.0542 123.667 95.2057 124.019C95.5599 124.155 95.9444 124.152 96.3173 124.208C96.3126 124.607 96.3103 125.003 96.3103 125.401C96.7274 125.401 97.1445 125.404 97.5617 125.404C97.5617 125.821 97.564 126.238 97.564 126.657C98.4052 126.655 99.2442 126.655 100.083 126.655C100.083 126.238 100.083 125.821 100.085 125.404C100.924 125.401 101.763 125.401 102.605 125.404C102.602 125.818 102.602 126.235 102.605 126.655C102.18 126.655 101.759 126.655 101.337 126.655C101.337 127.077 101.334 127.499 101.334 127.923C100.076 127.923 98.8154 127.916 97.557 127.932C97.5593 128.344 97.564 128.759 97.5663 129.174C96.3126 129.176 95.0589 129.174 93.8052 129.176C93.8052 128.757 93.8052 128.34 93.8075 127.923C93.3834 127.916 92.9616 127.911 92.5398 127.909C92.5374 130.418 92.5398 132.928 92.5398 135.438C92.9616 135.436 93.3834 135.438 93.8075 135.44C93.8075 137.109 93.8075 138.777 93.8075 140.448C94.2246 140.446 94.6417 140.448 95.0589 140.451C95.0589 140.87 95.0589 141.289 95.0589 141.716C95.8931 141.716 96.7297 141.716 97.564 141.716C97.564 141.289 97.564 140.87 97.5663 140.448C98.4052 140.448 99.2442 140.448 100.083 140.448C100.083 140.029 100.083 139.612 100.085 139.195C100.5 139.195 100.917 139.195 101.334 139.197C101.337 138.777 101.339 138.36 101.341 137.943C101.759 137.943 102.18 137.945 102.6 137.948C102.602 137.528 102.605 137.109 102.607 136.692C103.022 136.689 103.439 136.689 103.856 136.692C103.858 131.675 103.856 126.66 103.856 121.645C103.439 121.645 103.022 121.645 102.605 121.647ZM71.1892 126.657C71.1892 127.496 71.1869 128.335 71.1892 129.174C70.7698 129.174 70.3526 129.174 69.9355 129.176C69.9355 131.264 69.9332 133.35 69.9355 135.438C70.3526 135.438 70.7698 135.438 71.1869 135.438C71.1892 136.272 71.1869 137.107 71.1892 137.943C71.6063 137.943 72.0235 137.943 72.4406 137.945C72.4429 134.182 72.4429 130.418 72.4406 126.655C72.0235 126.655 71.6063 126.655 71.1892 126.657ZM204.75 159.522C204.802 159.962 204.736 160.438 204.96 160.843C205.354 161.041 205.88 161.088 206.263 160.832C206.312 160.391 206.251 159.951 206.246 159.513C205.748 159.513 205.247 159.515 204.75 159.522ZM102.183 160.487C102.18 160.979 102.183 161.47 102.183 161.962C102.667 161.96 103.154 161.96 103.639 161.962C103.639 161.47 103.637 160.979 103.639 160.491C103.152 160.487 102.667 160.487 102.183 160.487ZM203.324 160.944C203.319 161.442 203.317 161.943 203.319 162.444C202.818 162.451 202.32 162.454 201.821 162.463C201.854 162.927 201.791 163.411 201.938 163.866C202.387 163.961 202.858 163.91 203.317 163.929C203.317 163.437 203.317 162.945 203.319 162.456C203.82 162.456 204.319 162.456 204.825 162.454C204.776 162.02 204.832 161.561 204.645 161.156C204.242 160.93 203.765 160.997 203.324 160.944ZM206.267 162.456C206.747 162.456 207.23 162.456 207.714 162.458C207.714 161.955 207.714 161.452 207.717 160.953C207.248 160.983 206.78 161.016 206.319 161.086C205.932 161.398 206.335 162.023 206.267 162.456ZM100.71 163.912C100.71 164.402 100.71 164.891 100.71 165.383C101.199 165.383 101.691 165.383 102.183 165.383C102.18 164.891 102.18 164.402 102.18 163.912C101.691 163.91 101.199 163.91 100.71 163.912ZM200.39 163.884C200.388 164.399 200.39 164.914 200.395 165.434C200.8 165.385 201.222 165.397 201.618 165.273C201.94 164.912 201.961 164.302 201.616 163.954C201.21 163.87 200.796 163.901 200.39 163.884ZM203.795 163.91C203.795 164.402 203.797 164.891 203.802 165.385C204.289 165.383 204.778 165.383 205.27 165.385C205.27 164.893 205.27 164.404 205.275 163.917C204.781 163.912 204.287 163.91 203.795 163.91ZM206.244 163.912C206.244 164.402 206.244 164.891 206.246 165.383C206.733 165.383 207.225 165.383 207.717 165.385C207.714 164.891 207.714 164.402 207.717 163.912C207.225 163.91 206.733 163.91 206.244 163.912ZM201.942 165.367C201.795 165.847 201.856 166.359 201.833 166.858C202.324 166.856 202.818 166.856 203.312 166.856C203.315 166.362 203.315 165.87 203.317 165.378C202.856 165.374 202.397 165.325 201.942 165.367ZM204.296 166.853C204.291 167.338 204.291 167.825 204.291 168.312C204.781 168.31 205.275 168.31 205.769 168.312C205.764 167.823 205.764 167.338 205.766 166.853C205.272 166.851 204.783 166.853 204.296 166.853Z" fill="black"/>
<path d="M164.227 32.4814C164.717 32.4814 165.206 32.4814 165.698 32.4838C165.695 32.9731 165.695 33.4648 165.698 33.9542C165.206 33.9519 164.714 33.9519 164.227 33.9496C164.225 33.4602 164.225 32.9708 164.227 32.4814Z" fill="black"/>
<path d="M165.696 33.959C166.181 33.9544 166.665 33.952 167.152 33.9497C167.152 34.4414 167.152 34.9331 167.152 35.4248C166.665 35.4225 166.181 35.4225 165.696 35.4225C165.696 34.9331 165.694 34.4461 165.696 33.959Z" fill="black"/>
<path d="M164.226 36.8783C164.226 36.3936 164.228 35.9089 164.233 35.4219C164.72 35.4242 165.209 35.4242 165.698 35.4242C165.696 35.9089 165.696 36.3936 165.696 36.8783C165.204 36.8783 164.715 36.8783 164.226 36.8783Z" fill="black"/>
<path d="M167.65 38.3491C168.137 38.3515 168.629 38.3515 169.118 38.3538C169.118 38.8385 169.116 39.3232 169.118 39.8079C168.626 39.8056 168.137 39.8056 167.647 39.8056C167.647 39.3209 167.647 38.8338 167.65 38.3491Z" fill="black"/>
<path d="M175.47 39.8103C175.954 39.808 176.439 39.808 176.926 39.8057C176.924 40.2974 176.926 40.7867 176.929 41.2784C176.441 41.2784 175.957 41.2784 175.472 41.2784C175.47 40.7891 175.47 40.2997 175.47 39.8103Z" fill="black"/>
<path d="M172.528 39.8076C173.015 39.8076 173.507 39.8076 173.996 39.8076C173.996 40.297 173.996 40.7887 173.998 41.2781C173.507 41.2781 173.017 41.2781 172.53 41.2781C172.528 40.7887 172.525 40.297 172.528 39.8076Z" fill="black"/>
<path d="M174.001 41.2787C174.488 41.2787 174.975 41.2764 175.467 41.2764C175.467 41.7657 175.469 42.2551 175.471 42.7445C174.98 42.7468 174.488 42.7491 174.001 42.7538C173.998 42.2621 173.998 41.7704 174.001 41.2787Z" fill="black"/>
<path d="M165.204 42.2549C165.691 42.2549 166.183 42.2549 166.672 42.2549C166.672 42.7443 166.672 43.2336 166.672 43.7253C166.183 43.7253 165.691 43.7253 165.204 43.7253C165.202 43.236 165.202 42.7443 165.204 42.2549Z" fill="black"/>
<path d="M172.528 42.748C173.017 42.748 173.506 42.748 173.998 42.748C173.996 43.2351 173.996 43.7198 173.996 44.2045C174.485 44.2045 174.977 44.2068 175.468 44.2068C175.468 44.6962 175.468 45.1879 175.468 45.6773C174.981 45.675 174.494 45.6726 174.01 45.6726C174 46.162 173.996 46.6537 173.993 47.1477C173.509 47.1477 173.024 47.1477 172.542 47.1477C172.542 47.6324 172.542 48.1195 172.542 48.6042C172.05 48.6042 171.56 48.6042 171.071 48.6042C171.069 48.1171 171.069 47.6324 171.071 47.1477C171.556 47.1477 172.043 47.1477 172.53 47.1477C172.528 46.656 172.525 46.1667 172.528 45.6773C173.017 45.6773 173.506 45.6773 173.998 45.675C173.998 45.1856 173.998 44.6962 174 44.2045C173.509 44.2045 173.017 44.2045 172.528 44.2045C172.525 43.7175 172.528 43.2328 172.528 42.748Z" fill="black"/>
<path d="M167.155 43.2314C167.644 43.2314 168.134 43.2314 168.626 43.2314C168.626 43.7208 168.623 44.2102 168.626 44.6996C168.134 44.6996 167.644 44.6996 167.155 44.6996C167.153 44.2102 167.153 43.7208 167.155 43.2314Z" fill="black"/>
<path d="M171.071 44.2071C171.56 44.2071 172.05 44.2048 172.544 44.2071C172.542 44.6965 172.542 45.1858 172.542 45.6752C172.05 45.6752 171.56 45.6752 171.071 45.6752C171.069 45.1858 171.069 44.6965 171.071 44.2071Z" fill="black"/>
<path d="M178.396 45.6777C178.885 45.6777 179.375 45.6777 179.866 45.6777C179.866 46.1671 179.866 46.6565 179.869 47.1458C179.454 47.1412 179.027 47.2391 178.629 47.1016C178.242 46.7194 178.428 46.1555 178.396 45.6777Z" fill="black"/>
<path d="M181.325 45.6777C181.814 45.6777 182.304 45.6777 182.795 45.6777C182.795 46.1671 182.795 46.6565 182.795 47.1482C182.304 47.1482 181.814 47.1482 181.325 47.1482C181.323 46.6565 181.323 46.1671 181.325 45.6777Z" fill="black"/>
<path d="M163.25 46.1719C163.739 46.1719 164.229 46.1719 164.718 46.1719C164.718 46.6566 164.718 47.1413 164.721 47.6283C164.229 47.6283 163.739 47.6283 163.25 47.6283C163.25 47.1436 163.248 46.6566 163.25 46.1719Z" fill="black"/>
<path d="M174.001 47.1436C174.488 47.1459 174.977 47.1482 175.469 47.1529C175.469 47.6353 175.469 48.12 175.469 48.6047C174.977 48.6047 174.488 48.6047 174.001 48.6023C173.998 48.1176 173.998 47.6306 174.001 47.1436Z" fill="black"/>
<path d="M176.925 47.1508C177.38 47.1601 177.857 47.0529 178.296 47.2231C178.498 47.6565 178.379 48.1459 178.396 48.6049C177.904 48.6049 177.415 48.6049 176.928 48.6049C176.925 48.1202 176.925 47.6355 176.925 47.1508Z" fill="black"/>
<path d="M179.871 47.1494C180.354 47.1494 180.839 47.1494 181.326 47.1494C181.323 47.6341 181.323 48.1188 181.326 48.6059C180.839 48.6059 180.354 48.6059 179.869 48.6059C179.869 48.1188 179.869 47.6341 179.871 47.1494Z" fill="black"/>
<path d="M163.745 48.604C164.23 48.604 164.715 48.604 165.202 48.604C165.202 49.0934 165.199 49.5827 165.202 50.0744C164.715 50.0744 164.23 50.0744 163.747 50.0744C163.745 49.5827 163.745 49.0934 163.745 48.604Z" fill="black"/>
<path d="M175.471 48.604C175.954 48.604 176.439 48.604 176.923 48.6063C176.923 49.0934 176.926 49.5827 176.926 50.0721C176.439 50.0721 175.954 50.0744 175.471 50.0744C175.469 49.5827 175.469 49.0934 175.471 48.604Z" fill="black"/>
<path d="M178.399 48.604C178.888 48.604 179.377 48.604 179.869 48.604C179.867 49.0934 179.867 49.5827 179.869 50.0744C179.377 50.0744 178.886 50.0721 178.399 50.0744C178.396 49.5827 178.396 49.0934 178.399 48.604Z" fill="black"/>
<path d="M68.6697 79.0166C69.0892 79.0166 69.511 79.0166 69.9351 79.0166C69.9351 79.8509 69.9351 80.6851 69.9351 81.5194C69.511 81.5194 69.0869 81.5217 68.6651 81.524C68.6674 82.3583 68.6674 83.1926 68.6674 84.0268C68.2503 84.0245 67.8331 84.0268 67.416 84.0268C67.416 83.1902 67.416 82.356 67.4183 81.5217C67.8355 81.5217 68.2503 81.5217 68.6697 81.5217C68.6674 80.6851 68.6674 79.8509 68.6697 79.0166Z" fill="black"/>
<path d="M66.1641 85.2794C66.5812 85.277 66.9983 85.2794 67.4155 85.2794C67.4155 86.1136 67.4155 86.9479 67.4155 87.7821C66.9983 87.7821 66.5812 87.7798 66.1641 87.7821C66.1641 86.9455 66.1641 86.1113 66.1641 85.2794Z" fill="black"/>
<path d="M64.9134 89.0508C65.3305 89.0508 65.7453 89.0508 66.1625 89.0508C66.1601 90.3395 66.1741 91.6305 66.1461 92.9215C65.7919 92.8446 65.454 92.7304 65.1324 92.5743C64.671 91.4813 65.0066 90.216 64.9134 89.0508Z" fill="black"/>
<path d="M63.646 92.7627C64.0375 92.8 64.4383 92.786 64.8205 92.8839C65.0302 94.0933 64.8601 95.3401 64.909 96.5658C64.4872 96.5658 64.0654 96.5658 63.6436 96.5658C63.6436 95.2981 63.6413 94.0304 63.646 92.7627Z" fill="black"/>
<path d="M62.392 97.8187C62.8091 97.8164 63.2262 97.8164 63.6434 97.8164C63.6434 98.653 63.6434 99.4896 63.6434 100.326C63.2262 100.322 62.8068 100.319 62.3896 100.315C62.392 99.4826 62.392 98.6507 62.392 97.8187Z" fill="black"/>
<path d="M172.953 97.8191C173.791 97.8168 174.63 97.8168 175.469 97.8191C175.467 98.2339 175.469 98.6511 175.469 99.0682C175.886 99.0682 176.304 99.0682 176.723 99.0705C176.721 99.4877 176.721 99.9048 176.723 100.322C177.14 100.322 177.555 100.322 177.974 100.324C177.972 100.739 177.972 101.156 177.974 101.573C177.14 101.573 176.306 101.576 175.472 101.573C175.469 101.156 175.472 100.741 175.472 100.324C174.63 100.322 173.791 100.322 172.95 100.327C172.95 101.161 172.95 101.995 172.946 102.829C173.363 102.836 173.782 102.843 174.202 102.85C174.202 103.26 174.202 103.673 174.206 104.088C173.787 104.09 173.367 104.095 172.95 104.099C172.948 104.514 172.95 104.931 172.95 105.348C172.531 105.346 172.114 105.346 171.699 105.346C171.699 104.512 171.699 103.678 171.699 102.843C171.279 102.841 170.862 102.841 170.445 102.843C170.445 103.678 170.445 104.512 170.445 105.346C170.023 105.346 169.599 105.346 169.18 105.346C169.177 104.09 169.18 102.834 169.18 101.578C169.599 101.576 170.021 101.576 170.445 101.576C170.443 101.156 170.445 100.739 170.447 100.322C170.86 100.322 171.272 100.324 171.687 100.327C171.694 99.9071 171.699 99.4877 171.706 99.0705C172.118 99.0682 172.533 99.0705 172.95 99.0705C172.95 98.6534 172.948 98.2339 172.953 97.8191Z" fill="black"/>
<path d="M177.977 104.095C177.975 103.253 177.975 102.412 177.977 101.573C178.399 101.573 178.82 101.576 179.245 101.58C179.242 102.417 179.242 103.256 179.24 104.097C178.818 104.095 178.396 104.092 177.977 104.095Z" fill="black"/>
<path d="M61.1377 102.844C61.5548 102.841 61.972 102.841 62.3891 102.844C62.3891 103.678 62.3891 104.512 62.3891 105.349C61.972 105.346 61.5548 105.346 61.1377 105.346C61.1377 104.512 61.1377 103.678 61.1377 102.844Z" fill="black"/>
<path d="M117.676 104.096C118.093 104.094 118.512 104.094 118.93 104.096C118.93 104.511 118.93 104.928 118.93 105.346C118.512 105.346 118.095 105.346 117.678 105.346C117.678 104.928 117.676 104.511 117.676 104.096Z" fill="black"/>
<path d="M61.1377 107.242C61.6387 107.242 62.1397 107.242 62.6408 107.245C62.5988 107.706 62.6547 108.193 62.4916 108.64C62.0512 108.75 61.5898 108.713 61.14 108.743C61.1377 108.242 61.1377 107.741 61.1377 107.242Z" fill="black"/>
<path d="M62.8077 110.043C62.4395 109.638 62.5746 109.05 62.838 108.631C63.2481 108.652 63.6582 108.677 64.0661 108.708C64.0637 109.211 64.0614 109.714 64.0567 110.218C63.6396 110.169 63.2062 110.19 62.8077 110.043Z" fill="black"/>
<path d="M139.31 110.171C139.797 110.168 140.286 110.168 140.776 110.168C140.776 110.658 140.776 111.147 140.778 111.641C140.284 111.639 139.795 111.639 139.305 111.639C139.305 111.15 139.308 110.66 139.31 110.171Z" fill="black"/>
<path d="M61.1497 110.122C61.6018 110.166 62.0609 110.194 62.5013 110.311C62.7041 110.705 62.5736 111.206 62.6341 111.639C62.1331 111.639 61.6344 111.639 61.1357 111.639C61.1381 111.133 61.1404 110.628 61.1497 110.122Z" fill="black"/>
<path d="M64.0725 110.173C64.5596 110.17 65.0489 110.17 65.5383 110.17C65.536 110.66 65.536 111.149 65.536 111.641C65.0466 111.639 64.5572 111.639 64.0679 111.641C64.0679 111.151 64.0679 110.662 64.0725 110.173Z" fill="black"/>
<path d="M59.6618 111.643C60.1535 111.641 60.6452 111.641 61.1369 111.641C61.1369 112.125 61.1369 112.61 61.1369 113.097C60.6452 113.097 60.1558 113.095 59.6664 113.097C59.6664 113.586 59.6641 114.076 59.6641 114.568C59.1794 114.568 58.6947 114.568 58.21 114.57C58.21 114.08 58.21 113.591 58.21 113.104C58.697 113.097 59.1864 113.09 59.6734 113.083C59.6688 112.603 59.6664 112.121 59.6618 111.643Z" fill="black"/>
<path d="M62.5965 111.643C63.0859 111.641 63.5752 111.641 64.0646 111.641C64.0646 112.125 64.0646 112.612 64.0646 113.099C63.5776 113.095 63.0882 113.095 62.6011 113.092C62.5965 113.584 62.5942 114.076 62.5895 114.568C62.1048 114.568 61.6224 114.568 61.1377 114.568C61.1377 114.076 61.1377 113.586 61.1377 113.097C61.6224 113.095 62.1071 113.095 62.5942 113.095C62.5942 112.61 62.5942 112.125 62.5965 111.643Z" fill="black"/>
<path d="M140.778 111.641C141.266 111.641 141.755 111.641 142.247 111.641C142.247 112.125 142.247 112.61 142.249 113.095C141.755 113.095 141.261 113.095 140.771 113.097C140.774 112.61 140.774 112.125 140.778 111.641Z" fill="black"/>
<path d="M105.109 112.864C105.523 112.862 105.943 112.862 106.36 112.864C106.36 113.279 106.36 113.696 106.36 114.115C105.943 114.113 105.526 114.113 105.109 114.113C105.106 113.696 105.106 113.279 105.109 112.864Z" fill="black"/>
<path d="M177.974 112.866C178.396 112.864 178.818 112.861 179.244 112.861C179.239 113.278 179.239 113.698 179.239 114.117C178.818 114.115 178.396 114.113 177.976 114.115C177.974 113.698 177.974 113.281 177.974 112.866Z" fill="black"/>
<path d="M64.0679 113.098C64.5572 113.095 65.0466 113.098 65.536 113.098C65.536 113.587 65.536 114.076 65.536 114.568C65.0466 114.568 64.5572 114.568 64.0679 114.568C64.0679 114.076 64.0679 113.587 64.0679 113.098Z" fill="black"/>
<path d="M106.362 114.118C106.782 114.116 107.204 114.116 107.625 114.116C107.625 114.535 107.628 114.952 107.63 115.372C107.204 115.369 106.78 115.369 106.355 115.372C106.358 114.952 106.36 114.535 106.362 114.118Z" fill="black"/>
<path d="M126.658 114.314C127.019 114.135 127.406 114.06 127.823 114.091C127.774 114.468 127.671 114.829 127.518 115.174C127.175 115.323 126.819 115.426 126.45 115.484C126.422 115.069 126.492 114.68 126.658 114.314Z" fill="black"/>
<path d="M56.7406 114.567C57.23 114.567 57.7194 114.567 58.2087 114.567C58.2087 115.057 58.2087 115.546 58.2111 116.038C57.7194 116.035 57.23 116.035 56.7383 116.035C56.7383 115.544 56.7406 115.057 56.7406 114.567Z" fill="black"/>
<path d="M59.6655 114.57C60.1572 114.567 60.6466 114.567 61.1383 114.567C61.1383 115.057 61.1383 115.546 61.1383 116.038C60.6489 116.038 60.1572 116.035 59.6679 116.038C59.6679 115.546 59.6655 115.057 59.6655 114.57Z" fill="black"/>
<path d="M127.832 115.488C128.198 115.355 128.594 115.364 128.976 115.315C128.976 115.756 128.978 116.196 128.981 116.637C128.545 116.634 128.109 116.634 127.676 116.634C127.72 116.25 127.713 115.856 127.832 115.488Z" fill="black"/>
<path d="M175.471 116.634C175.886 116.634 176.303 116.634 176.723 116.634C176.721 117.051 176.721 117.468 176.723 117.885C176.303 117.885 175.886 117.885 175.471 117.888C175.469 117.468 175.469 117.051 175.471 116.634Z" fill="black"/>
<path d="M127.728 117.89C128.145 117.888 128.562 117.888 128.981 117.888C128.979 118.305 128.979 118.722 128.979 119.139C128.562 119.139 128.145 119.139 127.728 119.139C127.728 118.722 127.725 118.305 127.728 117.89Z" fill="black"/>
<path d="M174.202 117.892C174.624 117.89 175.046 117.888 175.47 117.888C175.468 118.305 175.468 118.724 175.468 119.144C175.046 119.139 174.626 119.137 174.207 119.137C174.204 118.72 174.202 118.305 174.202 117.892Z" fill="black"/>
<path d="M67.416 119.142C67.8331 119.14 68.2503 119.14 68.6674 119.14C68.6674 119.557 68.6674 119.974 68.6674 120.394C68.2503 120.392 67.8331 120.394 67.416 120.394C67.416 119.974 67.416 119.557 67.416 119.142Z" fill="black"/>
<path d="M197.943 122.391C198.433 122.391 198.922 122.388 199.414 122.391C199.386 122.861 199.481 123.346 199.346 123.808C198.885 123.905 198.409 123.819 197.943 123.845C197.943 123.36 197.943 122.875 197.943 122.391Z" fill="black"/>
<path d="M199.506 123.873C199.953 123.782 200.412 123.873 200.869 123.845C200.867 124.334 200.867 124.824 200.869 125.316C200.382 125.313 199.897 125.316 199.415 125.318C199.443 124.835 199.329 124.332 199.506 123.873Z" fill="black"/>
<path d="M201.366 130.691C201.851 130.691 202.335 130.691 202.822 130.691C202.82 131.181 202.82 131.67 202.822 132.162C202.335 132.16 201.848 132.16 201.366 132.16C201.364 131.67 201.364 131.181 201.366 130.691Z" fill="black"/>
<path d="M202.823 132.161C203.312 132.159 203.802 132.159 204.293 132.161C204.291 132.646 204.291 133.131 204.293 133.618C203.802 133.616 203.312 133.618 202.823 133.618C202.821 133.131 202.821 132.646 202.823 132.161Z" fill="black"/>
<path d="M201.366 133.617C201.848 133.615 202.335 133.617 202.822 133.617C202.82 134.107 202.82 134.596 202.822 135.088C202.335 135.085 201.851 135.085 201.366 135.085C201.364 134.596 201.364 134.107 201.366 133.617Z" fill="black"/>
<path d="M111.387 136.691C112.643 136.691 113.901 136.691 115.157 136.691C115.157 137.526 115.157 138.36 115.157 139.197C114.323 139.194 113.491 139.194 112.657 139.197C112.652 138.777 112.65 138.36 112.647 137.943C112.226 137.94 111.806 137.94 111.387 137.943C111.387 137.523 111.387 137.106 111.387 136.691Z" fill="black"/>
<path d="M111.387 147.98C114.738 147.98 118.087 147.978 121.436 147.98C121.436 148.395 121.436 148.812 121.436 149.231C123.113 149.231 124.794 149.231 126.474 149.231C126.474 149.646 126.474 150.063 126.474 150.483C125.635 150.483 124.794 150.483 123.957 150.485C123.955 150.9 123.955 151.317 123.955 151.737C123.113 151.734 122.274 151.734 121.433 151.737C121.433 151.317 121.433 150.9 121.436 150.483C120.601 150.483 119.767 150.483 118.933 150.48C118.93 150.898 118.93 151.317 118.93 151.737C119.762 151.737 120.594 151.734 121.429 151.734C121.431 152.151 121.433 152.571 121.438 152.99C120.601 152.988 119.765 152.988 118.93 152.99C118.93 153.405 118.93 153.822 118.93 154.242C119.348 154.242 119.765 154.242 120.184 154.244C120.182 154.661 120.179 155.081 120.179 155.5C120.597 155.502 121.016 155.505 121.436 155.509C121.433 155.924 121.436 156.341 121.436 156.758C119.76 156.761 118.087 156.761 116.411 156.761C116.409 156.339 116.409 155.922 116.411 155.507C115.992 155.502 115.575 155.502 115.158 155.505C115.158 154.666 115.158 153.827 115.16 152.988C114.333 152.988 113.505 152.988 112.68 152.99C112.662 152.587 112.657 152.184 112.613 151.785C112.205 151.725 111.793 151.723 111.385 151.704C111.389 150.462 111.385 149.22 111.387 147.98Z" fill="black"/>
<path d="M139.032 158.015C139.871 158.015 140.709 158.015 141.548 158.015C141.548 158.429 141.548 158.849 141.548 159.266C140.709 159.266 139.868 159.266 139.029 159.266C139.029 158.849 139.029 158.429 139.032 158.015Z" fill="black"/>
<path d="M137.776 159.266C138.193 159.266 138.611 159.266 139.03 159.266C139.03 159.683 139.028 160.098 139.03 160.517C138.613 160.515 138.196 160.517 137.779 160.517C137.776 160.098 137.776 159.683 137.776 159.266Z" fill="black"/>
<path d="M66.018 159.515C66.5073 159.513 66.999 159.513 67.4884 159.515C67.4884 160.002 67.4884 160.492 67.4884 160.984C66.9967 160.984 66.5073 160.984 66.0156 160.984C66.018 160.492 66.018 160.002 66.018 159.515Z" fill="black"/>
<path d="M136.524 160.52C136.941 160.517 137.358 160.52 137.778 160.522C137.775 160.937 137.775 161.354 137.775 161.771C137.358 161.771 136.941 161.769 136.526 161.771C136.524 161.354 136.524 160.934 136.524 160.52Z" fill="black"/>
<path d="M64.5609 160.988C65.0456 160.984 65.5303 160.984 66.0174 160.986C66.0174 161.473 66.0174 161.962 66.0174 162.454C65.5327 162.454 65.0456 162.454 64.5586 162.456C64.5586 161.965 64.5609 161.475 64.5609 160.988Z" fill="black"/>
<path d="M134.004 161.77C134.843 161.77 135.682 161.77 136.523 161.77C136.521 162.187 136.521 162.604 136.521 163.024C135.682 163.021 134.841 163.021 134.002 163.024C134.002 162.604 134.002 162.187 134.004 161.77Z" fill="black"/>
<path d="M131.506 162.92C132.34 162.936 133.172 162.997 134.007 163.046C134.004 163.444 134.004 163.845 134.004 164.248C133.17 164.306 132.336 164.395 131.499 164.435C131.497 164.798 131.497 165.162 131.497 165.53C131.075 165.528 130.653 165.528 130.231 165.53C130.231 165.11 130.231 164.689 130.234 164.274C130.649 164.276 131.066 164.281 131.485 164.288C131.492 163.831 131.499 163.374 131.506 162.92Z" fill="black"/>
<path d="M132.898 164.421C133.406 164.412 133.917 164.407 134.427 164.407C134.425 164.908 134.425 165.412 134.42 165.915C134.008 165.864 133.579 165.88 133.185 165.74C132.889 165.365 132.982 164.857 132.898 164.421Z" fill="black"/>
<path d="M131.503 165.829C131.958 165.889 132.463 165.791 132.871 166.052C132.995 166.467 132.95 166.908 132.976 167.339C132.484 167.336 131.99 167.334 131.499 167.334C131.499 166.831 131.501 166.327 131.503 165.829Z" fill="black"/>
<path d="M129.054 166.36C129.559 166.36 130.067 166.36 130.578 166.369C130.51 166.782 130.554 167.238 130.317 167.609C129.949 167.868 129.482 167.812 129.063 167.886C129.056 167.376 129.054 166.868 129.054 166.36Z" fill="black"/>
<path d="M130.627 167.92C131.061 167.776 131.527 167.834 131.977 167.804C131.977 168.298 131.979 168.792 131.979 169.286C131.492 169.286 131.007 169.286 130.523 169.286C130.52 169.775 130.52 170.265 130.52 170.756C130.031 170.756 129.542 170.756 129.052 170.759C129.052 170.267 129.05 169.778 129.05 169.288C129.525 169.286 130.003 169.283 130.481 169.286C130.516 168.831 130.45 168.349 130.627 167.92Z" fill="black"/>
<path d="M96.3119 176.133C96.8013 176.13 97.2906 176.13 97.7823 176.133C97.7823 176.622 97.7823 177.111 97.7823 177.601C97.2906 177.601 96.8013 177.601 96.3096 177.603C96.3096 177.111 96.3119 176.622 96.3119 176.133Z" fill="black"/>
<path d="M203.746 176.142C204.251 176.135 204.762 176.132 205.27 176.13C205.267 176.638 205.263 177.146 205.26 177.656C204.745 177.605 204.093 177.673 203.841 177.111C203.818 176.869 203.769 176.384 203.746 176.142Z" fill="black"/>
<path d="M196.47 177.603C196.96 177.601 197.449 177.601 197.941 177.603C197.939 178.086 197.941 178.573 197.941 179.06C197.449 179.057 196.96 179.057 196.47 179.06C196.468 178.573 196.468 178.088 196.47 177.603Z" fill="black"/>
<path d="M199.416 177.602C199.898 177.6 200.383 177.6 200.87 177.6C200.868 178.084 200.87 178.571 200.87 179.058C200.383 179.056 199.898 179.056 199.416 179.058C199.413 178.571 199.413 178.087 199.416 177.602Z" fill="black"/>
<path d="M197.942 179.06C198.432 179.058 198.921 179.058 199.413 179.06C199.411 179.55 199.411 180.039 199.413 180.531C198.921 180.528 198.432 180.528 197.942 180.531C197.94 180.039 197.942 179.55 197.942 179.06Z" fill="black"/>
<path d="M96.3119 179.556C96.8013 179.554 97.2906 179.554 97.7823 179.556C97.7823 180.039 97.7823 180.524 97.7823 181.011C97.2906 181.008 96.8013 181.008 96.3096 181.011C96.3096 180.524 96.3119 180.039 96.3119 179.556Z" fill="black"/>
<path d="M196.47 180.533C196.96 180.531 197.452 180.531 197.943 180.533C197.941 181.015 197.939 181.5 197.941 181.987C197.449 181.985 196.958 181.985 196.47 181.987C196.468 181.5 196.468 181.015 196.47 180.533Z" fill="black"/>
<path d="M94.8575 181.013C95.3422 181.01 95.8269 181.01 96.3139 181.01C96.3116 181.502 96.3093 181.996 96.3069 182.488C95.8199 182.481 95.3329 182.476 94.8481 182.471C94.8505 181.982 94.8551 181.497 94.8575 181.013Z" fill="black"/>
<path d="M99.2416 182.482C99.7286 182.482 100.218 182.48 100.71 182.482C100.71 182.972 100.71 183.461 100.71 183.953C100.218 183.951 99.7286 183.951 99.2393 183.953C99.2393 183.461 99.2393 182.972 99.2416 182.482Z" fill="black"/>
<path d="M94.8553 183.954C95.34 183.952 95.8247 183.952 96.3117 183.954C96.3117 184.439 96.3094 184.923 96.3117 185.41C95.8247 185.408 95.34 185.408 94.8553 185.41C94.8529 184.923 94.8529 184.439 94.8553 183.954Z" fill="black"/>
<path d="M97.7832 183.956C98.2679 183.954 98.7526 183.952 99.2397 183.954C99.2373 184.439 99.2373 184.924 99.2373 185.411C98.7526 185.408 98.2679 185.411 97.7832 185.411C97.7832 184.924 97.7832 184.439 97.7832 183.956Z" fill="black"/>
<path d="M99.2416 185.409C99.7286 185.407 100.218 185.409 100.707 185.409C100.71 185.896 100.712 186.383 100.714 186.875C100.223 186.875 99.731 186.877 99.2393 186.882C99.2393 186.388 99.2393 185.899 99.2416 185.409Z" fill="black"/>
<path d="M96.3096 185.409C96.8013 185.409 97.293 185.407 97.7823 185.409C97.7823 185.899 97.7823 186.388 97.7823 186.88C97.293 186.877 96.8013 186.877 96.3119 186.88C96.3119 186.388 96.3096 185.899 96.3096 185.409Z" fill="black"/>
<path d="M97.7855 186.879C98.2679 186.879 98.7526 186.879 99.2373 186.882C99.2373 187.369 99.2373 187.858 99.2397 188.35C98.7526 188.348 98.2679 188.348 97.7832 188.35C97.7832 187.858 97.7832 187.369 97.7855 186.879Z" fill="black"/>
<path d="M96.3123 188.352C96.7994 188.35 97.2887 188.35 97.7781 188.35C97.7828 188.834 97.7874 189.324 97.7944 189.811C98.2745 189.806 98.7568 189.806 99.2392 189.806C99.2392 190.295 99.2369 190.785 99.2392 191.277C98.7522 191.277 98.2675 191.277 97.7828 191.279C97.7828 190.787 97.7828 190.298 97.7828 189.808C97.2957 189.806 96.8087 189.806 96.3193 189.806C96.3146 190.295 96.31 190.785 96.3076 191.279C95.8229 191.277 95.3382 191.274 94.8535 191.277C94.8535 190.785 94.8558 190.295 94.8558 189.806C95.3406 189.806 95.8253 189.808 96.3123 189.811C96.31 189.324 96.3123 188.837 96.3123 188.352Z" fill="black"/>
<path d="M171.698 196.887C172.112 196.885 172.53 196.885 172.949 196.887C172.949 198.556 172.949 200.227 172.949 201.898C172.53 201.895 172.112 201.893 171.695 201.895C171.7 200.225 171.698 198.556 171.698 196.887Z" fill="black"/>
<path d="M172.948 203.156C173.372 203.154 173.796 203.153 174.222 203.158C174.213 204.829 174.22 206.5 174.215 208.171C174.633 208.171 175.05 208.175 175.469 208.18C175.469 210.266 175.467 212.351 175.472 214.437C175.052 214.435 174.635 214.435 174.218 214.437C174.218 212.766 174.222 211.093 174.213 209.422C173.791 209.422 173.37 209.424 172.95 209.427C172.948 207.336 172.952 205.246 172.948 203.156Z" fill="black"/>
<path d="M174.233 214.489C174.448 214.876 174.653 215.27 174.856 215.668C175.009 215.678 175.317 215.699 175.473 215.708C175.466 218.211 175.468 220.711 175.471 223.212C175.049 223.216 174.629 223.221 174.212 223.23C174.217 224.06 174.217 224.892 174.217 225.724C173.793 225.721 173.371 225.721 172.949 225.724C172.949 224.47 172.947 223.219 172.952 221.967C173.371 221.965 173.793 221.963 174.217 221.965C174.226 219.474 174.196 216.98 174.233 214.489Z" fill="black"/>
<path d="M171.555 225.972C172.042 225.969 172.531 225.972 173.023 225.974C173.023 226.456 173.023 226.939 173.025 227.428C172.534 227.426 172.042 227.426 171.553 227.428C171.55 226.939 171.553 226.456 171.555 225.972Z" fill="black"/>
<path d="M151.525 230.846C152.015 230.848 152.504 230.853 152.996 230.857C152.996 231.337 152.998 231.822 153.003 232.307C152.513 232.314 152.022 232.318 151.535 232.328C151.528 231.834 151.525 231.337 151.525 230.846Z" fill="black"/>
<path d="M165.201 231.828C165.686 231.825 166.173 231.825 166.66 231.825C166.669 232.315 166.679 232.806 166.693 233.303C167.175 233.298 167.657 233.296 168.144 233.296C168.142 233.785 168.142 234.277 168.144 234.768C167.653 234.766 167.161 234.766 166.672 234.768C166.672 234.272 166.672 233.78 166.674 233.289C166.182 233.291 165.691 233.296 165.201 233.3C165.201 232.806 165.201 232.317 165.201 231.828Z" fill="black"/>
<path d="M168.145 231.828C168.627 231.826 169.114 231.826 169.599 231.828C169.599 232.315 169.599 232.804 169.599 233.296C169.114 233.296 168.627 233.294 168.145 233.298C168.142 232.804 168.142 232.315 168.145 231.828Z" fill="black"/>
<path d="M154.951 232.807C155.443 232.802 155.937 232.802 156.433 232.804C156.363 233.28 156.522 233.846 156.174 234.242C155.771 234.333 155.356 234.279 154.951 234.298C154.949 233.797 154.949 233.301 154.951 232.807Z" fill="black"/>
<path d="M156.498 234.337C156.943 234.207 157.416 234.277 157.878 234.26C157.876 234.761 157.876 235.265 157.876 235.773C157.416 235.733 156.934 235.796 156.496 235.642C156.347 235.225 156.31 234.738 156.498 234.337Z" fill="black"/>
<path d="M165.204 234.768C165.691 234.766 166.183 234.768 166.672 234.77C166.644 235.234 166.728 235.703 166.653 236.166C166.229 236.29 165.782 236.12 165.355 236.222C165.05 236.637 165.332 237.18 165.155 237.632C164.712 237.814 164.209 237.662 163.745 237.695C163.745 237.206 163.745 236.716 163.745 236.229C164.172 236.22 164.619 236.29 165.022 236.115C165.36 235.749 165.16 235.208 165.204 234.768Z" fill="black"/>
<path d="M154.955 235.691C155.368 235.752 155.815 235.715 156.183 235.952C156.437 236.314 156.388 236.773 156.461 237.192C155.955 237.194 155.452 237.199 154.948 237.201C154.948 236.696 154.951 236.19 154.955 235.691Z" fill="black"/>
<path d="M166.702 236.328C167.161 236.147 167.662 236.251 168.142 236.228C168.142 236.72 168.144 237.216 168.147 237.713C167.678 237.668 167.154 237.785 166.744 237.51C166.672 237.118 166.599 236.71 166.702 236.328Z" fill="black"/>
<path d="M81.6592 237.202C82.1439 237.202 82.6286 237.199 83.1156 237.204C83.1156 237.689 83.1133 238.18 83.1133 238.672C82.6286 238.67 82.1439 238.67 81.6615 238.675C81.6592 238.18 81.6592 237.689 81.6592 237.202Z" fill="black"/>
<path d="M153.473 238.667C153.475 238.173 153.48 237.684 153.487 237.194C153.974 237.197 154.463 237.201 154.955 237.206C154.948 237.695 154.941 238.187 154.936 238.681C154.447 238.672 153.96 238.669 153.473 238.667Z" fill="black"/>
<path d="M165.35 237.833C165.735 237.574 166.248 237.644 166.653 237.83C166.723 238.266 166.676 238.713 166.686 239.156C166.241 239.149 165.791 239.212 165.353 239.131C165.131 238.737 165.087 238.21 165.35 237.833Z" fill="black"/>
<path d="M83.1226 238.664C83.6096 238.666 84.1013 238.673 84.5907 238.683C84.5884 239.165 84.5861 239.65 84.5861 240.137C84.0944 240.139 83.605 240.139 83.1133 240.144C83.1156 239.647 83.1179 239.156 83.1226 238.664Z" fill="black"/>
<path d="M163.748 239.132C164.17 239.155 164.612 239.095 165.027 239.23C165.293 239.642 165.174 240.157 165.225 240.626C164.731 240.623 164.24 240.623 163.748 240.626C163.746 240.125 163.746 239.626 163.748 239.132Z" fill="black"/>
<path d="M161.778 240.626C162.268 240.623 162.759 240.623 163.251 240.626C163.249 241.113 163.249 241.602 163.251 242.094C162.759 242.092 162.27 242.094 161.781 242.094C161.778 241.602 161.776 241.113 161.778 240.626Z" fill="black"/>
<path d="M155.43 245.023C155.919 245.021 156.409 245.023 156.9 245.025C156.898 245.515 156.898 246.004 156.9 246.498C156.406 246.498 155.915 246.498 155.425 246.5C155.425 246.006 155.428 245.515 155.43 245.023Z" fill="black"/>
</g>
<rect x="152" y="247" width="1.5" height="1.5" fill="black"/>
<defs>
<clipPath id="clip0_2525_37916">
<rect width="225.5" height="222" fill="white" transform="translate(21.5 24.5)"/>
</clipPath>
</defs>
</svg>
