<svg width="250" height="250" viewBox="0 0 250 250" fill="none" xmlns="http://www.w3.org/2000/svg">
<path d="M121.94 25.1143C126.909 25.1143 131.877 25.1143 136.846 25.1143C136.85 25.5553 136.85 25.9984 136.852 26.4394C139.579 26.4554 142.306 26.4335 145.034 26.4514C145.03 26.9045 145.032 27.3555 145.038 27.8085C146.852 27.8085 148.665 27.8165 150.48 27.8045C150.49 28.2835 150.51 28.7645 150.544 29.2435C151.886 29.2235 153.233 29.2395 154.577 29.2335C154.575 29.6646 154.575 30.0957 154.575 30.5268C155.936 30.5287 157.296 30.5287 158.656 30.5287C158.656 30.9678 158.654 31.4089 158.656 31.8499C160.436 31.8459 162.215 31.8559 163.996 31.844C164.008 32.3269 164.014 32.8099 164.018 33.2929C164.948 33.3048 165.879 33.2989 166.811 33.2989C166.809 33.7359 166.809 34.173 166.811 34.6121C167.238 34.6101 167.668 34.6121 168.099 34.6121C168.099 35.0731 168.107 35.5361 168.125 35.9991C169.938 35.9911 171.752 35.9971 173.567 35.9971C173.565 36.4621 173.569 36.9271 173.577 37.3922C174.47 37.4021 175.366 37.3962 176.264 37.3981C176.26 37.8292 176.26 38.2603 176.26 38.6914C177.189 38.6954 178.121 38.6934 179.052 38.6934C179.052 39.1345 179.05 39.5755 179.052 40.0186C179.475 40.0166 179.898 40.0166 180.325 40.0146C180.331 40.4956 180.335 40.9765 180.339 41.4595C180.808 41.4635 181.278 41.4675 181.749 41.4695C181.747 41.9046 181.747 42.3396 181.749 42.7747C182.645 42.7807 183.54 42.7707 184.436 42.7847C184.438 43.2517 184.448 43.7187 184.476 44.1857C185.386 44.1737 186.295 44.1817 187.205 44.1797C187.203 44.6068 187.205 45.0359 187.209 45.465C187.636 45.4311 188.064 45.3971 188.497 45.3832C187.939 45.451 187.38 45.483 186.824 45.5309C186.824 46.3751 186.824 47.2213 186.826 48.0655C187.673 48.0655 188.525 48.0655 189.375 48.0655C189.375 47.6603 189.373 47.2572 189.377 46.8521C189.558 46.854 189.744 46.854 189.931 46.856C189.929 47.2991 189.927 47.7442 189.929 48.1912C190.378 48.1912 190.829 48.1912 191.28 48.1912C191.284 48.6722 191.288 49.1552 191.294 49.6361C191.735 49.6361 192.179 49.6381 192.624 49.6461C192.622 49.9594 192.622 50.2728 192.626 50.5881C192.391 50.5981 192.156 50.6101 191.926 50.62C191.834 51.4303 192.12 52.3324 191.781 53.0828C191.001 53.2804 190.175 53.1267 189.377 53.1706C189.373 54.0188 189.375 54.867 189.375 55.7172C190.175 55.7392 190.977 55.6713 191.775 55.7312C192.116 56.5035 191.838 57.4256 191.926 58.2598C192.776 58.2618 193.628 58.2598 194.479 58.2598C194.477 57.4116 194.477 56.5634 194.479 55.7172C193.666 55.6753 192.834 55.805 192.034 55.6553C191.797 54.9029 191.958 54.0727 191.966 53.2924C192.002 53.2505 192.078 53.1706 192.116 53.1307C192.768 53.1626 193.422 53.1606 194.078 53.1966C194.07 53.3123 194.055 53.5458 194.047 53.6636C194.473 53.6656 194.906 53.6656 195.339 53.6636C195.387 54.5617 195.363 55.4618 195.367 56.3618C195.794 56.3618 196.223 56.3618 196.654 56.3598C196.656 56.8388 196.66 57.3178 196.666 57.7968C197.142 57.7988 197.623 57.8028 198.102 57.8088C198.1 58.6769 198.1 59.5451 198.102 60.4132C198.545 60.4112 198.989 60.4132 199.436 60.4112C199.458 61.3353 199.446 62.2593 199.448 63.1833C199.873 63.1833 200.3 63.1833 200.729 63.1833C200.727 64.1074 200.729 65.0334 200.729 65.9594C201.188 65.9694 201.646 65.9714 202.109 65.9754C202.103 67.3185 202.117 68.6617 202.101 70.0048C202.574 70.0308 203.049 70.0408 203.525 70.0448C203.531 70.9389 203.533 71.8349 203.521 72.733C203.952 72.733 204.389 72.735 204.824 72.735C204.824 73.6311 204.824 74.5272 204.826 75.4233C204.391 75.4233 203.958 75.4233 203.529 75.4253C203.527 76.3553 203.531 77.2874 203.523 78.2174C203.049 78.2114 202.578 78.2034 202.107 78.1795C202.107 77.7025 202.103 77.2275 202.089 76.7505C201.66 76.7565 201.229 76.7565 200.803 76.7585C200.803 76.3374 200.807 75.9203 200.815 75.5012C199.915 75.3694 199.003 75.4373 198.1 75.4253C198.098 74.9982 198.1 74.5751 198.104 74.15C197.621 74.144 197.138 74.142 196.658 74.144C196.66 75.4992 196.658 76.8543 196.658 78.2094C196.225 78.2094 195.796 78.2094 195.367 78.2094C195.367 79.0736 195.367 79.9377 195.367 80.8039C195.796 80.8019 196.227 80.8019 196.66 80.8039C196.656 80.3708 196.658 79.9417 196.658 79.5106C197.138 79.5086 197.621 79.5086 198.106 79.5166C198.096 80.8737 198.102 82.2328 198.102 83.59C198.549 83.59 198.997 83.59 199.448 83.59C199.446 83.1589 199.448 82.7278 199.45 82.2967C199.901 82.3007 200.356 82.3067 200.809 82.3286C200.805 82.7438 200.803 83.1609 200.801 83.578C201.279 83.58 201.766 83.59 202.237 83.7037C202.225 84.1128 202.219 84.522 202.219 84.9331C202.644 84.9311 203.077 84.9311 203.507 84.9251C203.543 85.8372 203.525 86.7512 203.529 87.6653C203.958 87.6653 204.387 87.6633 204.82 87.6653C204.82 88.1443 204.828 88.6253 204.848 89.1062C205.277 89.1002 205.696 89.0923 206.131 89.0843C206.031 89.5174 205.977 89.9604 205.899 90.3995L206.182 89.3298C205.578 90.8705 206.889 90.3895 207.585 90.4773C207.619 89.9684 207.611 89.4555 207.475 88.9625C207.068 88.9745 206.661 88.9785 206.26 88.9885C206.272 86.2942 206.29 83.5979 206.25 80.9037C206.699 80.9176 207.15 80.9216 207.603 80.9236C207.601 83.1708 207.603 85.4181 207.603 87.6653C208.031 87.6653 208.46 87.6633 208.893 87.6633C208.893 89.3657 208.893 91.0681 208.893 92.7704C208.377 92.7704 207.864 92.7704 207.353 92.7704C207.351 93.6206 207.351 94.4728 207.353 95.325C208.201 95.323 209.049 95.323 209.897 95.323C209.895 96.1692 209.895 97.0154 209.897 97.8616C209.559 97.8676 209.224 97.8736 208.891 97.8836C208.877 100.408 208.931 102.935 208.861 105.457C208.44 105.451 208.02 105.449 207.603 105.449C207.601 107.26 207.603 109.07 207.603 110.88C207.158 110.88 206.713 110.878 206.272 110.88C206.266 111.794 206.29 112.708 206.244 113.62C205.769 113.622 205.295 113.626 204.822 113.632C204.822 114.073 204.824 114.518 204.826 114.961C204.391 114.961 203.96 114.961 203.529 114.963C203.527 115.863 203.539 116.763 203.513 117.666C203.087 117.658 202.66 117.654 202.239 117.648L202.283 117.863L202.095 117.821C202.101 118.228 202.109 118.635 202.113 119.045C201.65 119.047 201.188 119.049 200.727 119.059C200.725 119.478 200.727 119.899 200.729 120.322C200.302 120.32 199.875 120.318 199.454 120.318C199.442 123.04 199.45 125.762 199.45 128.485C198.999 128.487 198.549 128.487 198.102 128.489C198.1 129.417 198.096 130.347 198.106 131.277C197.623 131.285 197.138 131.287 196.66 131.287C196.658 132.195 196.664 133.105 196.65 134.013C195.784 134.011 194.918 134.011 194.053 134.013C194.055 134.428 194.061 134.845 194.074 135.262C192.229 135.504 190.354 135.304 188.499 135.378C188.499 136.26 188.499 137.144 188.501 138.03C188.078 138.026 187.659 138.024 187.241 138.018C187.161 145.041 187.229 152.064 187.207 159.087C187.458 159.085 187.713 159.085 187.973 159.087C187.971 159.938 187.971 160.788 187.973 161.638C187.121 161.646 186.269 161.652 185.419 161.65C185.419 162.496 185.417 163.344 185.419 164.195C186.269 164.193 187.119 164.193 187.971 164.193C187.971 163.344 187.971 162.496 187.971 161.65C188.82 161.648 189.672 161.648 190.524 161.65C190.522 162.498 190.522 163.344 190.524 164.195C191.372 164.193 192.223 164.193 193.075 164.195C193.073 163.346 193.073 162.498 193.075 161.65C193.923 161.648 194.775 161.648 195.626 161.65C195.624 162.496 195.624 163.344 195.626 164.193C196.472 164.193 197.32 164.193 198.168 164.193C198.168 165.045 198.168 165.895 198.17 166.747C197.32 166.745 196.472 166.745 195.626 166.747C195.624 165.895 195.624 165.045 195.626 164.195C194.775 164.193 193.925 164.193 193.075 164.195C193.073 165.045 193.073 165.895 193.075 166.747C192.223 166.745 191.372 166.747 190.524 166.747C190.522 165.895 190.522 165.045 190.522 164.195C189.67 164.193 188.82 164.193 187.971 164.195C187.971 165.045 187.971 165.895 187.971 166.745C188.104 166.747 188.368 166.747 188.501 166.749C188.497 169.891 188.503 173.034 188.497 176.177C188.974 176.181 189.453 176.185 189.931 176.189C189.929 176.952 189.929 177.714 189.931 178.478C190.079 178.48 190.376 178.48 190.524 178.482C190.522 179.33 190.522 180.181 190.524 181.033C191.336 180.997 192.162 181.109 192.967 180.987C193.213 180.187 193.009 179.311 193.073 178.48C193.923 178.48 194.775 178.48 195.626 178.48C195.624 179.328 195.624 180.177 195.626 181.025C194.824 181.055 194.015 180.961 193.221 181.059C192.892 181.833 193.155 182.745 193.075 183.577C192.477 183.577 191.882 183.577 191.288 183.577C191.292 184.753 191.27 185.93 191.304 187.106C191.723 187.102 192.142 187.1 192.564 187.102C192.59 188.906 192.507 190.712 192.61 192.514C192.726 192.51 192.959 192.502 193.075 192.498C193.073 192.245 193.071 191.994 193.073 191.744C193.923 191.742 194.775 191.742 195.624 191.744C195.624 192.592 195.624 193.438 195.624 194.289C195.102 194.287 194.579 194.287 194.059 194.289C194.057 195.055 194.059 195.823 194.059 196.592C194.491 196.59 194.93 196.59 195.369 196.592C195.393 198.4 195.309 200.214 195.417 202.02C195.828 202.014 196.243 202.012 196.658 202.012C196.66 203.349 196.658 204.689 196.66 206.026C196.783 206.028 197.031 206.028 197.154 206.028C197.154 206.876 197.154 207.726 197.154 208.576C197.469 208.58 197.789 208.592 198.108 208.604C198.1 209.107 198.1 209.612 198.1 210.117C198.533 210.179 199.067 209.971 199.436 210.275C199.458 210.554 199.45 210.837 199.458 211.125C198.69 211.127 197.922 211.125 197.154 211.127C197.154 211.977 197.154 212.827 197.154 213.679C198.002 213.679 198.85 213.679 199.7 213.681C199.696 213.422 199.696 213.167 199.698 212.915C200.039 212.913 200.382 212.913 200.729 212.915C200.727 213.348 200.727 213.783 200.729 214.22C200.382 214.214 200.043 214.218 199.702 214.218C199.698 214.889 199.696 215.559 199.698 216.234C198.85 216.232 198.002 216.232 197.156 216.234C197.154 215.382 197.154 214.53 197.154 213.681C196.305 213.679 195.453 213.679 194.603 213.679C194.603 214.53 194.603 215.382 194.603 216.234C193.753 216.232 192.904 216.23 192.056 216.236C192.048 215.384 192.052 214.532 192.052 213.679C191.2 213.679 190.35 213.679 189.501 213.679C189.501 212.829 189.499 211.977 189.501 211.127C188.651 211.127 187.803 211.127 186.957 211.127C186.955 211.722 186.955 212.318 186.957 212.915C185.22 212.915 183.485 212.913 181.749 212.917C181.747 213.348 181.749 213.783 181.751 214.218C180.852 214.22 179.952 214.218 179.054 214.22C179.052 213.783 179.05 213.348 179.052 212.915C178.607 212.913 178.163 212.913 177.72 212.915C177.718 209.756 177.72 206.595 177.718 203.433C177.622 203.457 177.429 203.505 177.333 203.529L177.377 203.315C177.02 203.319 176.665 203.321 176.312 203.319C176.226 204.228 176.27 205.142 176.262 206.056C175.639 206.054 175.013 206.04 174.393 206.088C173.992 205.291 174.303 204.337 174.207 203.477C173.357 203.475 172.506 203.475 171.656 203.477C171.654 204.325 171.656 205.178 171.656 206.03C170.804 206.03 169.954 206.03 169.105 206.03C169.103 206.88 169.103 207.73 169.105 208.582C168.253 208.582 167.403 208.582 166.553 208.582C166.551 207.732 166.551 206.88 166.551 206.03C167.401 206.028 168.253 206.03 169.105 206.03C169.103 205.178 169.103 204.327 169.105 203.477C168.253 203.475 167.403 203.475 166.553 203.477C166.551 203.898 166.551 204.323 166.553 204.75C164.347 204.746 162.141 204.752 159.935 204.746C159.937 204.309 159.935 203.872 159.937 203.439C159.538 203.441 159.141 203.447 158.744 203.459C158.551 201.607 158.718 199.739 158.644 197.881C158.208 197.881 157.773 197.881 157.338 197.879L157.432 198.117L157.21 198.043C157.216 198.466 157.218 198.893 157.218 199.32C156.761 199.316 156.305 199.316 155.852 199.322C155.846 200.218 155.862 201.118 155.834 202.018C155.415 202.014 154.996 202.01 154.581 202.012C154.577 202.487 154.573 202.966 154.561 203.445C154.11 203.443 153.658 203.441 153.207 203.445C153.207 203.87 153.209 204.301 153.217 204.73C151.376 204.77 149.535 204.738 147.695 204.75C147.693 205.184 147.693 205.619 147.695 206.056C145.914 206.05 144.135 206.066 142.354 206.048C142.338 206.533 142.326 207.02 142.314 207.509C140.965 207.489 139.617 207.503 138.268 207.501C138.262 207.018 138.256 206.535 138.252 206.054C137.784 206.054 137.317 206.054 136.852 206.052C136.852 205.182 136.85 204.315 136.852 203.447C136.391 203.443 135.931 203.443 135.472 203.445C135.434 202.07 135.462 200.693 135.452 199.316C135.029 199.316 134.608 199.318 134.189 199.324C134.169 197.051 134.185 194.78 134.179 192.508C134.602 192.506 135.027 192.506 135.454 192.508C135.452 190.706 135.454 188.904 135.454 187.104C135.913 187.1 136.375 187.1 136.838 187.102C136.872 185.254 136.836 183.404 136.858 181.554C137.325 181.55 137.794 181.55 138.26 181.55C138.26 180.193 138.26 178.834 138.262 177.478C138.685 177.474 139.108 177.476 139.533 177.478C139.543 176.109 139.503 174.742 139.565 173.377C140 173.379 140.435 173.379 140.874 173.383C140.874 172.651 140.872 171.92 140.876 171.19C140.766 171.086 140.542 170.876 140.433 170.773C140.243 170.753 140.058 170.735 139.872 170.721C139.87 170.539 139.87 170.36 139.87 170.182C139.527 169.994 139.377 169.627 139.19 169.314C138.989 169.312 138.787 169.312 138.588 169.314C138.508 169.018 138.414 168.729 138.282 168.456L138.29 168.39C137.917 168.198 137.53 167.999 137.341 167.605L137.329 167.548C137.014 167.262 136.671 167.013 136.367 166.717C136.242 166.715 135.988 166.709 135.863 166.705C135.873 166.637 135.891 166.5 135.901 166.43C135.422 166.218 135.352 165.675 135.149 165.254C134.532 165.356 134.187 164.885 133.852 164.466L133.884 164.404C133.541 164.354 133.403 164.103 133.387 163.78C133.232 163.524 133.068 163.277 132.869 163.061L132.861 162.983C132.757 162.967 132.552 162.935 132.448 162.919C132.354 162.462 132.212 162.021 132.091 161.574C132.027 161.574 131.901 161.572 131.837 161.57C131.839 161.419 131.841 161.115 131.843 160.964C131.728 160.94 131.5 160.892 131.385 160.868C131.277 160.566 131.175 160.265 131.081 159.962C130.732 159.856 130.844 159.501 130.788 159.247C130.437 159.147 130.3 158.872 130.3 158.519L130.098 158.525C130.096 158.964 130.1 159.407 130.108 159.848C129.996 159.84 129.771 159.826 129.659 159.818C129.667 159.666 129.683 159.367 129.691 159.215C129.196 159.099 129.362 158.571 129.31 158.199C129.065 157.996 129.077 157.678 129.007 157.405C128.927 157.405 128.768 157.407 128.688 157.409C128.652 159.129 128.676 160.85 128.676 162.572C129.149 162.576 129.623 162.58 130.1 162.582C130.1 168.905 130.098 175.227 130.1 181.55C129.625 181.55 129.151 181.55 128.678 181.558C128.662 186.998 128.676 192.441 128.67 197.883C128.213 197.883 127.758 197.881 127.304 197.883C127.286 201.09 127.311 204.295 127.29 207.503C126.865 207.499 126.442 207.497 126.019 207.499C126.017 208.197 126.017 208.898 126.019 209.598C126.444 209.594 126.871 209.596 127.3 209.598C127.298 210.446 127.298 211.299 127.3 212.149C126.871 212.149 126.444 212.149 126.019 212.151C126.017 213.001 126.019 213.851 126.019 214.703C126.444 214.701 126.871 214.699 127.298 214.703C127.298 215.553 127.298 216.406 127.298 217.258C126.446 217.254 125.596 217.256 124.746 217.256C124.746 218.104 124.746 218.952 124.746 219.8C123.895 219.798 123.045 219.8 122.195 219.8C122.195 220.651 122.195 221.501 122.195 222.353C121.345 222.353 120.494 222.353 119.644 222.353C119.644 221.501 119.644 220.651 119.644 219.8C118.796 219.798 117.95 219.798 117.103 219.8C117.101 219.292 117.099 218.787 117.087 218.282C116.937 218.284 116.64 218.288 116.49 218.288C116.49 214.695 116.49 211.101 116.492 207.509C116.011 207.501 115.535 207.497 115.058 207.497C115.054 209.303 115.056 211.109 115.056 212.915C114.629 212.913 114.204 212.913 113.779 212.915C113.777 213.837 113.789 214.761 113.763 215.683C113.285 215.673 112.808 215.667 112.331 215.655C112.325 214.324 112.337 212.995 112.323 211.666C112.8 211.536 113.291 211.482 113.785 211.49C113.775 209.243 113.783 206.996 113.781 204.75C114.204 204.746 114.631 204.746 115.058 204.748C115.06 202.459 115.046 200.172 115.066 197.883C115.539 197.881 116.015 197.881 116.492 197.873C116.484 192.942 116.498 188.008 116.484 183.077C116.939 182.987 117.404 182.951 117.869 182.925C117.859 175.237 117.867 167.549 117.865 159.862C117.406 159.86 116.947 159.86 116.49 159.862C116.488 153.964 116.494 148.067 116.488 142.169C116.382 142.193 116.169 142.243 116.063 142.267L116.145 142.046C115.78 142.054 115.417 142.058 115.056 142.062C115.054 139.832 115.056 137.601 115.056 135.372C113.271 135.372 111.485 135.372 109.7 135.372C109.7 135.795 109.7 136.22 109.7 136.647C110.123 136.645 110.548 136.645 110.973 136.645C110.979 138.94 110.973 141.233 110.975 143.529C110.55 143.529 110.125 143.529 109.7 143.531C109.702 144.423 109.698 145.317 109.704 146.211C110.121 146.207 110.542 146.207 110.961 146.203C110.995 149.394 110.965 152.585 110.977 155.779C110.55 155.777 110.125 155.777 109.7 155.779C109.7 157.567 109.7 159.357 109.7 161.145C110.123 161.143 110.546 161.143 110.969 161.143C110.981 162.957 110.973 164.773 110.975 166.588C110.558 166.586 110.141 166.586 109.724 166.584C109.67 173.862 109.716 181.145 109.7 188.425C109.237 188.423 108.777 188.425 108.316 188.429C108.31 190.708 108.334 192.987 108.302 195.267C107.835 195.269 107.368 195.269 106.904 195.273C106.902 196.622 106.906 197.971 106.9 199.32C106.471 199.318 106.042 199.316 105.615 199.318C105.611 200.214 105.627 201.112 105.597 202.01C105.114 202.01 104.632 202.02 104.151 202.05C104.165 202.948 104.157 203.848 104.159 204.75C103.712 204.746 103.267 204.748 102.822 204.748C102.82 205.184 102.82 205.619 102.82 206.058C102.396 206.054 101.969 206.052 101.544 206.054C101.534 206.978 101.538 207.904 101.538 208.83C101.069 208.83 100.6 208.832 100.134 208.838C100.134 209.255 100.138 209.678 100.144 210.099C99.6727 210.111 99.204 210.135 98.7392 210.195C98.7392 210.624 98.7412 211.051 98.7492 211.484L98.5417 211.454L98.5816 211.632C96.3795 211.602 94.1793 211.62 91.9771 211.622C91.9532 211.115 91.9512 210.608 91.9692 210.103C91.676 210.101 91.3847 210.103 91.0955 210.107C91.0935 209.257 91.0935 208.409 91.0955 207.56C91.9412 207.558 92.789 207.558 93.6368 207.56C93.6348 208.415 93.6447 209.271 93.6268 210.127C94.4805 210.117 95.3343 210.097 96.19 210.105C96.188 209.255 96.188 208.405 96.19 207.558C95.3382 207.56 94.4885 207.558 93.6387 207.56C93.6368 206.708 93.6368 205.856 93.6387 205.008C94.4885 205.008 95.3382 205.006 96.19 205.008C96.188 205.836 96.188 206.666 96.194 207.499C96.6029 207.497 97.0118 207.499 97.4227 207.507C97.4826 206.587 97.4686 205.666 97.4686 204.748C97.8915 204.746 98.3163 204.746 98.7412 204.748C98.7412 204.313 98.7392 203.876 98.7412 203.445C99.2 203.441 99.6588 203.441 100.12 203.443C100.145 202.521 100.136 201.599 100.136 200.679C100.602 200.675 101.069 200.671 101.538 200.671C101.536 199.741 101.54 198.813 101.532 197.885C101.067 197.883 100.606 197.883 100.144 197.885C100.138 198.36 100.134 198.833 100.134 199.312C99.6688 199.316 99.204 199.316 98.7432 199.32C98.7412 199.769 98.7392 200.222 98.7412 200.675C98.3203 200.673 97.8994 200.671 97.4826 200.671C97.4666 201.118 97.4467 201.569 97.4127 202.02C96.6946 202.012 95.9766 202.014 95.2585 202.012C94.7378 202.012 94.2192 202.012 93.7006 202.024C93.6527 201.573 93.6328 201.124 93.6228 200.675C94.4127 200.673 95.2046 200.675 95.9965 200.673C95.9905 200.258 95.9885 199.847 95.9766 199.438L96.1641 199.518L96.1561 199.31C96.577 199.314 96.9978 199.318 97.4207 199.328C97.4447 198.843 97.4726 198.358 97.4945 197.875C97.9094 197.881 98.3243 197.881 98.7412 197.887C98.7392 197.454 98.7392 197.025 98.7392 196.596C99.206 196.592 99.6728 196.586 100.142 196.576C100.132 195.662 100.138 194.748 100.136 193.834C100.6 193.828 101.067 193.826 101.532 193.828C101.542 192.928 101.532 192.027 101.546 191.129C101.969 191.131 102.392 191.131 102.816 191.135C102.824 189.305 102.824 187.477 102.816 185.647C102.39 185.647 101.963 185.647 101.538 185.649C101.538 187.004 101.536 188.359 101.54 189.716C101.073 189.718 100.608 189.72 100.144 189.722C100.132 190.648 100.136 191.574 100.138 192.5C99.6708 192.504 99.206 192.506 98.7392 192.51C98.7392 193.43 98.7512 194.353 98.7253 195.275C98.3064 195.271 97.8855 195.267 97.4686 195.271C97.4666 195.702 97.4686 196.139 97.4686 196.576C96.9699 196.584 96.4732 196.598 95.9785 196.644C95.9885 197.057 95.9905 197.468 95.9965 197.885C95.5557 197.881 95.1188 197.881 94.68 197.877C94.664 198.358 94.6541 198.839 94.6461 199.324C94.2232 199.318 93.8043 199.316 93.3834 199.316C93.3834 199.462 93.3814 199.753 93.3794 199.897C92.6175 199.901 91.8555 199.901 91.0955 199.901C91.0935 200.751 91.0935 201.601 91.0955 202.453C91.9412 202.453 92.789 202.453 93.6368 202.453C93.6368 203.303 93.6368 204.156 93.6368 205.008C92.789 205.006 91.9412 205.004 91.0955 205.008C91.0935 204.156 91.0935 203.305 91.0955 202.455C90.2457 202.453 89.396 202.455 88.5482 202.453C88.5403 202.781 88.5363 203.114 88.5283 203.445C87.8541 203.443 87.1799 203.443 86.5057 203.445C86.5057 203.878 86.5057 204.311 86.5077 204.748C85.5961 204.748 84.6865 204.746 83.7789 204.75C83.7769 205.184 83.7769 205.619 83.7789 206.056C82.4025 206.07 81.0262 206.022 79.6518 206.088C79.6518 206.559 79.6459 207.028 79.6399 207.503C78.2954 207.499 76.951 207.495 75.6066 207.507C75.6066 207.948 75.6066 208.389 75.6066 208.832C73.3685 208.834 71.1304 208.832 68.8904 208.834C68.8904 209.259 68.8924 209.688 68.8943 210.117C67.0273 210.151 65.1583 210.077 63.2912 210.153C62.4654 210.305 61.6256 209.987 60.8118 210.233C60.736 209.768 60.716 209.299 60.714 208.832C61.1529 208.83 61.5917 208.83 62.0305 208.832C62.0286 208.387 62.0286 207.942 62.0286 207.499C61.111 207.497 60.1914 207.513 59.2719 207.479C59.2739 207.002 59.2679 206.525 59.2619 206.052C58.829 206.052 58.3962 206.056 57.9633 206.06C57.9334 204.711 57.9554 203.361 57.9494 202.014C58.3862 202.012 58.8211 202.012 59.2599 202.016C59.2778 201.116 59.2699 200.216 59.2679 199.318C58.4002 199.318 57.5325 199.318 56.6648 199.318C56.6628 200.188 56.6568 201.06 56.6688 201.93C56.19 201.98 55.7113 202.02 55.2326 202.038C55.2386 202.455 55.2406 202.872 55.2485 203.296L55.0291 203.26L55.1129 203.455C54.704 203.445 54.2951 203.443 53.8881 203.445C53.8722 202.966 53.8662 202.487 53.8622 202.012C52.9406 202.006 52.0111 202.07 51.0975 201.904C51.1135 201.046 51.1055 200.188 51.1055 199.33C51.5842 199.32 52.061 199.314 52.5397 199.318C52.5437 198.839 52.5417 198.36 52.5357 197.885C52.057 197.883 51.5803 197.879 51.1035 197.867C51.1055 197.44 51.1055 197.015 51.1075 196.592C50.6667 196.59 50.2278 196.59 49.787 196.592C49.787 196.151 49.787 195.71 49.787 195.273C48.8854 195.271 47.9818 195.269 47.0782 195.273C47.0622 194.79 47.0543 194.307 47.0523 193.828C46.1846 193.828 45.3169 193.826 44.4492 193.832C44.4133 193.389 44.3694 192.946 44.3414 192.504C43.9365 192.504 43.5316 192.506 43.1267 192.522C42.8514 192.267 42.8554 191.982 43.1406 191.666L42.9252 191.758V191.245L43.1466 191.337C43.0748 191.193 42.9312 190.906 42.8594 190.762L43.2463 190.577L42.9312 190.523C42.9292 190.309 42.9252 189.88 42.9252 189.666L43.1007 189.74C43.019 189.323 42.9432 188.904 42.8893 188.485C43.4019 188.431 43.9166 188.409 44.4332 188.377C44.4252 187.465 44.4272 186.557 44.4332 185.647C44.8581 185.647 45.281 185.647 45.7058 185.651C45.7098 184.284 45.6998 182.917 45.7118 181.55C46.1646 181.55 46.6174 181.548 47.0702 181.55C47.0602 181.426 47.0423 181.179 47.0343 181.057C47.2138 181.045 47.5749 181.025 47.7544 181.015C47.7484 180.169 47.7524 179.324 47.7524 178.482C47.519 178.476 47.2876 178.474 47.0563 178.476C47.0563 178.143 47.0582 177.816 47.0563 177.486C47.537 177.48 48.0157 177.474 48.4964 177.474C48.4964 176.96 48.4964 176.447 48.4984 175.938C48.2491 175.93 47.9997 175.926 47.7504 175.924C47.7524 175.074 47.7504 174.223 47.7524 173.375C48.6021 173.373 49.4519 173.373 50.3016 173.375C50.2977 172.499 50.3176 171.623 50.2837 170.749C50.5969 170.745 50.91 170.741 51.2252 170.731C51.2332 168.895 51.2152 167.057 51.2372 165.22C51.672 165.218 52.1089 165.218 52.5457 165.218C52.5676 163.857 52.4878 162.494 52.6095 161.139C53.0284 161.143 53.4473 161.143 53.8682 161.147C53.8682 159.357 53.8682 157.569 53.8682 155.781C54.325 155.779 54.7818 155.777 55.2406 155.773C55.2565 153.926 55.1967 152.078 55.2745 150.234C55.7372 150.234 56.2 150.23 56.6648 150.226C56.6608 148.422 56.6608 146.618 56.6648 144.814C57.0916 144.812 57.5205 144.814 57.9474 144.816C57.9494 142.601 57.9474 140.387 57.9494 138.174C58.7991 138.174 59.6489 138.172 60.5006 138.176C60.5006 137.326 60.5006 136.478 60.5006 135.631C59.6509 135.629 58.8031 135.627 57.9554 135.631C57.9454 134.781 57.9494 133.933 57.9494 133.085C58.4361 133.081 58.9228 133.069 59.4075 133.027C59.3975 132.446 59.3995 131.867 59.4015 131.291C59.8424 131.287 60.2852 131.287 60.728 131.287C60.724 128.991 60.726 126.698 60.726 124.403C61.1609 124.403 61.5957 124.403 62.0305 124.403C62.0305 123.381 62.0286 122.358 62.0305 121.336C61.5199 121.334 61.0093 121.334 60.5006 121.336C60.4986 120.484 60.5026 119.631 60.4966 118.781C61.3464 118.781 62.1941 118.781 63.0439 118.781C63.0439 117.933 63.0439 117.085 63.0439 116.239C63.1376 116.235 63.3271 116.227 63.4229 116.223C63.4209 115.805 63.4189 115.39 63.4149 114.975C63.8856 114.965 64.3544 114.957 64.8251 114.945C64.8152 112.654 64.8231 110.363 64.8212 108.072C65.25 108.07 65.6809 108.07 66.1117 108.072C66.1097 103.913 66.1117 99.7556 66.1097 95.5984C66.1117 94.7642 66.0838 93.928 66.1656 93.0977C66.5885 93.1057 67.0153 93.1077 67.4402 93.1117C67.4322 89.9644 67.4602 86.8171 67.4262 83.6698C67.913 83.5979 68.4056 83.58 68.8963 83.576C68.8864 80.8598 68.8944 78.1415 68.8924 75.4233C69.3232 75.4233 69.7521 75.4233 70.1829 75.4233C70.1829 73.8946 70.1849 72.3638 70.1829 70.8351C70.6916 70.8331 71.2022 70.8331 71.7129 70.8331C71.7109 71.6813 71.7129 72.5295 71.7129 73.3797C72.5626 73.3777 73.4124 73.3777 74.2641 73.3797C74.2641 72.5315 74.2641 71.6833 74.2641 70.8351C73.4124 70.8331 72.5626 70.8331 71.7129 70.8351C71.7109 69.9829 71.7109 69.1307 71.7129 68.2805C72.5626 68.2805 73.4144 68.2805 74.2641 68.2805C74.2641 67.4303 74.2641 66.5781 74.2641 65.7279C73.4104 65.7279 72.5566 65.7279 71.7049 65.7279C71.7169 66.5781 71.7109 67.4283 71.7129 68.2805C70.8651 68.2805 70.0174 68.2805 69.1696 68.2805C69.1676 69.1327 69.1696 69.9829 69.1696 70.8331C68.3179 70.8331 67.4681 70.8331 66.6184 70.8331C66.6164 69.9829 66.6164 69.1327 66.6184 68.2805C67.4681 68.2805 68.3179 68.2805 69.1696 68.2805C69.1696 67.4283 69.1696 66.5781 69.1696 65.7259C69.9795 65.7279 70.7893 65.7399 71.5992 65.706C71.5992 65.3188 71.5992 64.9316 71.6012 64.5464C72.062 64.5464 72.5227 64.5464 72.9835 64.5424C72.9875 63.2073 72.9815 61.8701 72.9875 60.533C73.3984 60.535 73.8113 60.537 74.2242 60.5429C74.2581 60.06 74.2681 59.575 74.2701 59.092C75.074 59.13 75.8878 59.0202 76.6837 59.124C76.8812 59.9342 76.6817 60.7924 76.7775 61.6207C77.6292 61.7244 78.4989 61.6326 79.3586 61.6426C79.3586 60.7904 79.3566 59.9422 79.3626 59.092C78.5527 59.0741 77.7389 59.1379 76.933 59.0641C76.5002 58.3656 76.955 57.4515 76.6977 56.6911C76.3426 56.5415 75.9457 56.6532 75.5766 56.6073C75.5308 56.0804 75.6205 55.5536 75.6165 55.0247C76.1012 55.0187 76.588 55.0147 77.0747 55.0107C77.0268 54.6275 77.1704 54.1545 76.8313 53.8731C76.8014 53.0648 76.8193 52.2586 76.8154 51.4503C77.326 51.4503 77.8346 51.4503 78.3453 51.4503C78.3433 51.3245 78.3413 51.0731 78.3413 50.9473C78.824 50.9434 79.3067 50.9154 79.7855 50.8515C79.7615 49.9654 79.7695 49.0773 79.7835 48.1892C80.2363 48.1912 80.6891 48.1912 81.1419 48.1872C81.1419 47.7422 81.1419 47.2951 81.1419 46.8501C81.5688 46.8521 81.9976 46.8521 82.4265 46.8521C82.4245 46.423 82.4245 45.9959 82.4265 45.5688C82.8733 45.5688 83.3201 45.5688 83.7689 45.5688C83.7829 44.6427 83.7809 43.7167 83.7729 42.7907C84.2536 42.7807 84.7344 42.7747 85.2171 42.7727C85.2151 42.3376 85.2151 41.9006 85.2151 41.4655C85.6439 41.4655 86.0728 41.4655 86.5017 41.4655C86.5037 40.9805 86.5116 40.4976 86.5276 40.0146C87.0004 40.0186 87.4751 40.0146 87.9498 40.0006C87.9458 39.5655 87.9438 39.1305 87.9458 38.6954C88.8235 38.6934 89.7012 38.6934 90.5789 38.6934C90.5789 38.2623 90.5789 37.8292 90.5789 37.3981C91.0337 37.3981 91.4904 37.3981 91.9452 37.3981C91.9532 36.9331 91.9532 36.4681 91.9552 36.0031C92.424 35.9971 92.8947 35.9951 93.3655 35.9951C93.3755 35.5341 93.3814 35.0711 93.3854 34.6101C94.295 34.6081 95.2066 34.622 96.1162 34.5941C96.1142 34.163 96.1142 33.7319 96.1162 33.3009C96.9899 33.3009 97.8635 33.2989 98.7392 33.3009C98.7392 32.8598 98.7392 32.4187 98.7412 31.9777C99.5431 31.9777 100.345 31.9717 101.147 31.9857L101.093 31.7861C101.201 31.81 101.42 31.8579 101.53 31.8819C101.536 31.4308 101.538 30.9778 101.54 30.5268C102.459 30.5168 103.383 30.5707 104.3 30.4689C104.291 30.0578 104.287 29.6466 104.283 29.2355C105.625 29.2295 106.967 29.2415 108.308 29.2275C108.314 28.7565 108.316 28.2835 108.32 27.8105C110.137 27.8085 111.952 27.8085 113.769 27.8125C113.777 27.3575 113.779 26.9025 113.781 26.4474C116.5 26.4434 119.219 26.4454 121.938 26.4454C121.936 26.0004 121.936 25.5573 121.94 25.1143ZM184.272 48.0655C184.272 48.9157 184.272 49.7679 184.272 50.62C185.122 50.618 185.972 50.618 186.824 50.62C186.824 49.7679 186.824 48.9177 186.824 48.0655C185.972 48.0655 185.122 48.0655 184.272 48.0655ZM147.695 49.6401C147.693 50.0712 147.693 50.5023 147.695 50.9334C148.144 50.9334 148.593 50.9354 149.046 50.9354C149.046 50.5023 149.046 50.0692 149.046 49.6381C148.593 49.6361 148.144 49.6381 147.695 49.6401ZM165.391 50.9314C165.863 50.9334 166.336 50.9354 166.811 50.9374C166.809 50.5023 166.809 50.0692 166.811 49.6361C166.336 49.6361 165.861 49.6401 165.389 49.6461C165.389 50.0732 165.389 50.5023 165.391 50.9314ZM85.2131 50.9354C85.2151 51.0611 85.2191 51.3146 85.2211 51.4423C84.9657 51.4443 84.7144 51.4483 84.4611 51.4523C84.4611 52.3025 84.4611 53.1527 84.4611 54.0029C85.3128 54.0029 86.1626 54.0029 87.0123 54.0029C87.0143 53.1527 87.0123 52.3005 87.0143 51.4503C86.8867 51.4503 86.6333 51.4503 86.5057 51.4503C86.5077 51.3206 86.5077 51.0631 86.5077 50.9334C86.0748 50.9334 85.6439 50.9334 85.2131 50.9354ZM90.5789 50.9354C90.5789 51.3724 90.5769 51.8095 90.5789 52.2466C90.166 52.2446 89.757 52.2426 89.3461 52.2346C89.3102 52.6996 89.3022 53.1666 89.3003 53.6336C88.8036 53.6795 88.3089 53.7314 87.8142 53.7933C87.8182 54.1905 87.8202 54.5876 87.8182 54.9868C89.6713 55.0526 91.5263 55.0047 93.3814 55.0147C93.3794 53.6556 93.3794 52.2965 93.3814 50.9394C92.4479 50.9314 91.5124 50.9354 90.5789 50.9354ZM96.1162 50.9334C96.1142 51.3704 96.1142 51.8075 96.1162 52.2466C96.565 52.2446 97.0178 52.2426 97.4686 52.2366C97.4666 51.8055 97.4666 51.3724 97.4686 50.9414C97.0178 50.9354 96.567 50.9334 96.1162 50.9334ZM79.3586 51.4503C79.3586 52.3005 79.3586 53.1527 79.3586 54.0029C80.2084 54.0029 81.0601 54.0029 81.9098 54.0029C81.9098 53.1527 81.9098 52.3005 81.9098 51.4503C81.0601 51.4503 80.2084 51.4503 79.3586 51.4503ZM127.313 52.2446C127.286 53.1686 127.301 54.0927 127.298 55.0167C126.871 55.0167 126.444 55.0167 126.019 55.0167C126.019 55.9447 126.015 56.8727 126.025 57.8008C125.57 57.8008 125.117 57.8008 124.662 57.8008C124.662 58.6709 124.662 59.5411 124.662 60.4132C125.113 60.4112 125.566 60.4132 126.019 60.4112C126.019 59.5431 126.017 58.6729 126.019 57.8048C126.444 57.8008 126.871 57.8008 127.298 57.8008C127.298 58.2339 127.298 58.6669 127.298 59.1C128.656 59.1 130.014 59.1 131.373 59.1C131.371 59.5371 131.371 59.9742 131.373 60.4132C133.146 60.4052 134.921 60.4272 136.695 60.3993L136.625 60.6068L136.86 60.541C136.852 60.974 136.85 61.4071 136.846 61.8402C137.315 61.8482 137.784 61.8522 138.256 61.8562C138.258 61.3752 138.262 60.8942 138.278 60.4152C138.681 60.4132 139.084 60.4092 139.489 60.4013C139.525 60.8822 139.535 61.3652 139.543 61.8482C139.984 61.8502 140.427 61.8522 140.87 61.8542C140.872 61.3772 140.876 60.9022 140.885 60.4252C141.382 60.4132 141.879 60.4092 142.38 60.4212C142.276 59.0681 142.372 57.709 142.316 56.3539C139.605 56.3718 136.892 56.3578 134.181 56.3618C134.179 55.9128 134.179 55.4657 134.181 55.0167C132.819 55.0167 131.458 55.0167 130.1 55.0167C130.098 54.5936 130.098 54.1725 130.102 53.7514C129.619 53.7494 129.141 53.7155 128.668 53.6396C128.67 53.1726 128.666 52.7076 128.652 52.2406C128.205 52.2446 127.758 52.2446 127.313 52.2446ZM98.7412 52.3544C98.7392 53.2425 98.7412 54.1286 98.7412 55.0167C98.3163 55.0167 97.8915 55.0167 97.4686 55.0167C97.4666 55.4637 97.4666 55.9128 97.4686 56.3618C98.3562 56.3618 99.2439 56.3578 100.132 56.3678C100.134 56.8448 100.138 57.3218 100.142 57.7988C100.604 57.7988 101.067 57.8008 101.532 57.8008C101.534 57.3198 101.54 56.8388 101.544 56.3598C101.969 56.3618 102.394 56.3618 102.82 56.3618C102.816 55.4618 102.844 54.5597 102.79 53.6616C101.905 53.6676 101.019 53.6696 100.134 53.6596C100.134 53.2265 100.136 52.7974 100.14 52.3663C99.6728 52.3583 99.206 52.3544 98.7412 52.3544ZM146.411 52.3564C146.411 52.8174 146.417 53.2784 146.427 53.7394C146.842 53.7374 147.259 53.7374 147.675 53.7394C147.689 53.2804 147.695 52.8194 147.699 52.3583C147.271 52.3564 146.84 52.3564 146.411 52.3564ZM106.902 53.7394C106.902 54.1645 106.902 54.5896 106.904 55.0167C106.473 55.0167 106.044 55.0187 105.615 55.0207C105.615 55.9467 105.615 56.8747 105.615 57.8008C107.398 57.8028 109.182 57.7968 110.965 57.8048C110.981 56.8767 110.973 55.9467 110.975 55.0187C111.426 55.0167 111.876 55.0167 112.331 55.0167C112.329 54.5896 112.329 54.1645 112.329 53.7374C110.52 53.7394 108.711 53.7374 106.902 53.7394ZM115.056 55.0147C115.056 55.4637 115.054 55.9128 115.056 56.3618C114.631 56.3618 114.206 56.3618 113.781 56.3618C113.779 56.8408 113.779 57.3198 113.781 57.8008C114.204 57.8008 114.627 57.8008 115.052 57.8008C115.054 57.3198 115.058 56.8388 115.064 56.3578C115.539 56.3598 116.013 56.3638 116.49 56.3698C116.488 55.9208 116.49 55.4737 116.492 55.0267C116.011 55.0187 115.535 55.0167 115.056 55.0147ZM117.865 55.0167C117.863 55.4637 117.865 55.9128 117.865 56.3598C117.406 56.3618 116.949 56.3618 116.492 56.3638C116.488 57.2759 116.49 58.188 116.49 59.1C118.732 59.1 120.976 59.1 123.218 59.1C123.218 58.186 123.21 57.2699 123.23 56.3559C123.663 56.3598 124.098 56.3618 124.535 56.3638C124.533 55.9148 124.533 55.4657 124.535 55.0187C123.667 55.0167 122.801 55.0167 121.938 55.0167C121.936 55.4657 121.936 55.9148 121.936 56.3638C121.455 56.3618 120.976 56.3598 120.496 56.3539C120.498 55.9088 120.496 55.4618 120.498 55.0187C119.62 55.0167 118.742 55.0167 117.865 55.0167ZM145.033 55.0187C145.031 55.4657 145.033 55.9128 145.033 56.3598C145.491 56.3598 145.952 56.3618 146.415 56.3618C146.413 55.9128 146.413 55.4657 146.415 55.0167C145.952 55.0167 145.491 55.0167 145.033 55.0187ZM164.014 55.0207C164.012 55.9487 164.018 56.8767 164.006 57.8048C163.577 57.8008 163.154 57.8008 162.73 57.8008C162.73 59.595 162.73 61.3892 162.73 63.1833C163.156 63.1833 163.583 63.1833 164.014 63.1833C164.012 61.8262 164.016 60.4671 164.012 59.11C164.469 59.102 164.928 59.1 165.391 59.098C165.391 57.7369 165.391 56.3778 165.391 55.0167C164.93 55.0167 164.471 55.0187 164.014 55.0207ZM79.3586 56.5474C79.3586 57.3897 79.3606 58.2339 79.3526 59.0781C80.2044 59.102 81.0581 59.092 81.9098 59.092C81.9098 58.2438 81.9098 57.3956 81.9098 56.5474C81.0601 56.5474 80.2084 56.5474 79.3586 56.5474ZM143.616 57.8008C143.614 58.6749 143.626 59.5511 143.604 60.4252C144.081 60.4132 144.558 60.4092 145.036 60.4013C145.029 59.5371 145.032 58.6709 145.034 57.8068C144.56 57.8028 144.087 57.8008 143.616 57.8008ZM177.648 58.2698C177.648 59.12 177.648 59.9702 177.648 60.8224C178.438 60.7505 179.29 60.986 180.038 60.6847C180.391 59.9462 180.115 59.0661 180.199 58.2698C179.348 58.2698 178.498 58.2698 177.648 58.2698ZM182.75 58.2698C182.75 59.12 182.75 59.9722 182.75 60.8224C183.598 60.8224 184.446 60.8224 185.296 60.8224C185.294 59.9702 185.294 59.12 185.296 58.2678C184.446 58.2698 183.598 58.2678 182.75 58.2698ZM146.415 59.102C146.415 60.0141 146.413 60.9261 146.417 61.8402C145.952 61.8502 145.487 61.8801 145.027 61.916C145.036 62.7922 145.031 63.6683 145.036 64.5464C145.493 64.5464 145.95 64.5464 146.411 64.5484C146.411 64.0934 146.415 63.6384 146.415 63.1833C146.836 63.1833 147.261 63.1833 147.683 63.1853C147.689 62.7383 147.709 62.2912 147.751 61.8462C148.18 61.8502 148.611 61.8522 149.044 61.8562C149.044 61.4151 149.044 60.972 149.046 60.531C148.625 60.535 148.208 60.537 147.791 60.5489C147.721 60.068 147.687 59.581 147.679 59.096C147.257 59.1 146.834 59.1 146.415 59.102ZM151.803 60.4072C151.779 60.8902 151.769 61.3732 151.767 61.8562C151.356 61.8522 150.947 61.8502 150.54 61.8462C150.506 62.2892 150.492 62.7363 150.486 63.1813C150.003 63.1813 149.525 63.1853 149.044 63.2033C149.048 64.1194 149.046 65.0354 149.046 65.9515C150.889 65.9954 152.732 65.9594 154.577 65.9714C154.575 66.4005 154.575 66.8296 154.575 67.2567C155.457 67.2587 156.339 67.2587 157.22 67.2587C157.218 66.8336 157.218 66.4105 157.216 65.9874C157.693 65.9754 158.17 65.9694 158.648 65.9714C158.652 65.4964 158.656 65.0234 158.66 64.5484C159.083 64.5464 159.508 64.5464 159.937 64.5464C159.937 63.6643 159.935 62.7842 159.941 61.9021C159.259 61.8402 158.575 61.8462 157.892 61.8522C157.294 61.8522 156.696 61.8522 156.097 61.8522C155.136 61.8522 154.174 61.8502 153.215 61.8542C153.211 61.3732 153.205 60.8942 153.189 60.4172C152.726 60.4152 152.263 60.4132 151.803 60.4072ZM142.3 60.531C142.36 61.4151 142.328 62.2992 142.334 63.1833C142.761 63.1833 143.187 63.1833 143.618 63.1833C143.618 62.2992 143.604 61.4131 143.634 60.529C143.187 60.535 142.743 60.537 142.3 60.531ZM180.269 60.9142C180.1 61.7145 180.245 62.5507 180.199 63.3669C181.047 63.3669 181.895 63.3669 182.743 63.3669C182.743 62.5168 182.743 61.6646 182.743 60.8144C181.923 60.8762 181.061 60.6807 180.269 60.9142ZM84.499 61.7185C84.4172 62.4908 84.5349 63.2751 84.4451 64.0475C83.6712 64.3868 82.7456 64.1114 81.9098 64.1972C81.9098 65.0434 81.9098 65.8896 81.9098 66.7378C82.7476 66.8016 83.5894 66.8456 84.4292 66.7957C84.5688 65.9754 84.3753 65.1252 84.5229 64.305C85.3148 64.0575 86.1885 64.261 87.0143 64.1972C87.0123 63.349 87.0143 62.5008 87.0143 61.6546C86.1805 61.7005 85.3009 61.5588 84.499 61.7185ZM123.23 61.8342C123.218 62.2833 123.216 62.7343 123.216 63.1873C123.697 63.1853 124.18 63.1793 124.664 63.1654C124.662 62.7582 124.664 62.3491 124.674 61.942C124.192 61.8961 123.711 61.8542 123.23 61.8342ZM161.381 63.1833C161.385 64.5405 161.371 65.8996 161.391 67.2567C161.836 67.2567 162.283 67.2567 162.73 67.2587C162.73 65.8996 162.73 64.5424 162.73 63.1833C162.279 63.1833 161.83 63.1833 161.381 63.1833ZM182.75 63.3669C182.75 64.2171 182.75 65.0693 182.75 65.9195C183.598 65.9195 184.446 65.9195 185.296 65.9195C185.294 65.0673 185.294 64.2171 185.296 63.3669C184.446 63.3669 183.598 63.3669 182.75 63.3669ZM164.016 64.5484C164.012 65.8956 164.016 67.2427 164.012 68.5898C163.591 68.5859 163.174 68.5859 162.758 68.5779C162.712 69.4979 162.734 70.42 162.73 71.34C162.279 71.34 161.83 71.34 161.381 71.342C161.381 72.272 161.383 73.202 161.377 74.1321C160.896 74.1381 160.414 74.142 159.935 74.146C159.935 74.4713 159.939 74.7986 159.943 75.126C160.24 75.1659 160.613 75.088 160.807 75.3874C160.591 75.3994 160.162 75.4253 159.947 75.4373C159.945 75.9302 159.955 76.4312 159.793 76.9042C159.412 76.8922 159.033 76.8882 158.656 76.8862C158.656 77.7584 158.656 78.6325 158.656 79.5066C158.299 79.5066 157.94 79.5086 157.587 79.5166C157.613 79.8499 157.699 80.1752 157.902 80.4466C157.884 80.5744 157.847 80.8258 157.829 80.9536C157.707 80.9396 157.464 80.9137 157.344 80.9017C157.338 81.3168 157.34 81.7339 157.35 82.151L157.146 82.0891L157.198 82.3067C156.747 82.3027 156.299 82.3027 155.85 82.3087C155.85 83.1808 155.85 84.053 155.85 84.9271C156.871 84.9351 157.894 84.9311 158.916 84.9311C158.916 85.1027 158.914 85.442 158.914 85.6117C159.031 85.6356 159.267 85.6855 159.386 85.7115C159.372 85.933 159.363 86.1545 159.357 86.378C160.908 86.38 162.46 86.378 164.014 86.38C164.012 86.8071 164.012 87.2362 164.014 87.6653C159.935 87.6653 155.856 87.6653 151.779 87.6633C151.773 88.1423 151.771 88.6213 151.763 89.1002C151.34 89.0983 150.917 89.0983 150.496 89.0983C150.494 89.9824 150.494 90.8645 150.496 91.7486C150.053 91.7466 149.612 91.7466 149.174 91.7486C149.172 92.1997 149.174 92.6527 149.176 93.1057C149.08 93.0878 148.892 93.0499 148.799 93.0319L148.795 93.2474C148.427 93.2414 148.06 93.2414 147.695 93.2434C147.693 93.6785 147.691 94.1156 147.691 94.5527C147.265 94.5487 146.84 94.5487 146.415 94.5487C146.413 94.9758 146.413 95.4029 146.413 95.8319C145.481 95.8299 144.55 95.8319 143.618 95.8299C143.616 95.4028 143.616 94.9758 143.616 94.5487C143.187 94.5487 142.761 94.5487 142.334 94.5507C142.332 94.0677 142.338 93.5827 142.356 93.1017C142.774 93.1057 143.195 93.1077 143.616 93.1117C143.616 92.6547 143.616 92.2017 143.616 91.7486C143.187 91.7466 142.761 91.7466 142.334 91.7486C142.332 92.1997 142.332 92.6507 142.336 93.1037C141.849 93.1057 141.362 93.1117 140.878 93.1337C140.876 93.6047 140.872 94.0777 140.872 94.5507C140 94.5487 139.13 94.5507 138.26 94.5507C138.26 94.9758 138.26 95.4008 138.26 95.8279C137.79 95.8299 137.319 95.8339 136.848 95.8419C136.854 96.7739 136.854 97.706 136.848 98.64C136.381 98.638 135.917 98.638 135.452 98.642C135.454 99.9971 135.452 101.354 135.454 102.709C137.748 102.711 140.042 102.709 142.336 102.711C142.334 102.232 142.328 101.755 142.316 101.278C141.877 101.284 141.44 101.284 141.005 101.288C141.001 100.835 141.001 100.384 141.005 99.9332C140.514 99.9173 140.022 99.9113 139.533 99.9093C139.531 99.4862 139.531 99.0631 139.533 98.642C142.252 98.636 144.969 98.64 147.687 98.64C147.691 98.1849 147.693 97.7299 147.697 97.2769C149.018 97.2769 150.34 97.2589 151.663 97.2888L151.591 97.1092L151.783 97.0973C151.773 96.6761 151.771 96.255 151.769 95.8359C156.309 95.824 160.849 95.8359 165.387 95.8299C165.387 96.3069 165.393 96.7859 165.404 97.2649C165.845 97.2689 166.288 97.2729 166.731 97.2829C166.773 97.1392 166.857 96.8558 166.897 96.7141C166.978 96.8597 167.138 97.1531 167.218 97.3008C167.268 97.2868 167.367 97.2609 167.417 97.2469C167.407 97.2928 167.387 97.3826 167.377 97.4285C167.814 97.5203 167.87 97.9335 167.964 98.3007C168.155 98.3007 168.349 98.3027 168.544 98.3067C168.546 98.4204 168.552 98.6479 168.554 98.7617C168.831 98.9493 168.957 99.2666 169.123 99.5441C169.232 99.5441 169.456 99.5401 169.567 99.5401L169.673 99.109C169.791 99.3624 169.859 99.6339 169.924 99.9073C169.316 99.9173 168.708 99.9133 168.103 99.9153C168.101 100.37 168.103 100.825 168.105 101.28C168.584 101.282 169.067 101.288 169.549 101.3C169.553 102.198 169.553 103.098 169.553 103.997C169.994 103.997 170.439 103.997 170.886 103.997C170.886 104.492 170.896 104.988 170.936 105.483C171.109 105.446 171.454 105.37 171.628 105.332L172.021 105.314L171.921 105.555L172.177 105.434C172.169 105.875 172.169 106.318 172.165 106.759C173.098 106.819 174.036 106.797 174.973 106.799C174.971 107.222 174.969 107.647 174.971 108.072C175.4 108.072 175.829 108.07 176.26 108.072C176.26 108.537 176.262 109.002 176.27 109.469C176.75 109.469 177.233 109.475 177.718 109.489C177.718 110.826 177.722 112.165 177.716 113.504L177.975 113.452C178.021 113.949 178.035 114.448 178.039 114.949C178.272 114.969 178.508 114.991 178.745 115.015C178.721 115.895 178.729 116.777 178.741 117.66C180.201 117.656 181.663 117.656 183.124 117.66C183.137 116.759 183.133 115.859 183.133 114.961C184.055 114.955 184.981 114.995 185.902 114.915C185.89 114.486 185.886 114.053 185.886 113.626C186.323 113.622 186.764 113.624 187.207 113.624C187.203 114.069 187.205 114.516 187.207 114.961C187.636 114.961 188.066 114.961 188.501 114.961C188.499 114.027 188.499 113.093 188.499 112.161C188.978 112.155 189.457 112.149 189.935 112.139C189.925 111.249 189.927 110.361 189.933 109.473C190.382 109.471 190.833 109.471 191.284 109.471C191.29 108.132 191.286 106.791 191.286 105.451C190.831 105.449 190.378 105.451 189.927 105.455C189.927 105.887 189.929 106.322 189.939 106.755C189.028 106.817 188.112 106.799 187.201 106.799C187.201 106.3 187.217 105.803 187.273 105.308C187.681 105.32 188.088 105.322 188.499 105.328C188.497 104.887 188.499 104.448 188.497 104.009C189.425 103.991 190.356 103.999 191.288 103.997C191.282 100.366 191.296 96.738 191.28 93.1077C190.831 93.1077 190.382 93.1077 189.937 93.1097C189.923 94.4529 189.929 95.796 189.933 97.1392C189.463 97.1432 188.996 97.1491 188.529 97.1491C188.469 98.5262 188.515 99.9073 188.499 101.288C188.076 101.284 187.655 101.282 187.237 101.276C187.193 102.182 187.207 103.091 187.207 103.997C186.766 103.997 186.327 103.997 185.89 103.997C185.888 103.1 185.888 102.204 185.888 101.308C185.409 101.288 184.933 101.282 184.458 101.276C184.434 102.176 184.444 103.077 184.444 103.977C182.647 104.021 180.85 103.987 179.052 103.997C179.052 102.21 179.052 100.424 179.052 98.64C178.121 98.64 177.189 98.638 176.26 98.642C176.26 99.0651 176.26 99.4882 176.262 99.9133C175.831 99.9133 175.4 99.9133 174.971 99.9133C174.965 97.6441 174.987 95.3749 174.959 93.1037C174.532 93.1077 174.105 93.1077 173.681 93.1097C173.679 92.6507 173.679 92.1937 173.677 91.7366C174.105 91.7446 174.538 91.7486 174.971 91.7506C174.973 90.3915 174.969 89.0304 174.973 87.6713C174.502 87.6653 174.034 87.6613 173.565 87.6453C173.571 85.8651 173.565 84.0849 173.569 82.3027C173.1 82.3027 172.633 82.3047 172.169 82.3107C172.175 85.0289 172.165 87.7491 172.175 90.4693C172.635 90.4693 173.1 90.4713 173.565 90.4733C173.565 90.9004 173.569 91.3295 173.583 91.7586C173.11 91.7466 172.639 91.7466 172.171 91.7486C172.169 92.6826 172.171 93.6166 172.169 94.5507C171.74 94.5487 171.315 94.5487 170.89 94.5507C170.89 95.9118 170.892 97.2749 170.89 98.64C170.443 98.638 170 98.638 169.557 98.64C169.551 95.9237 169.547 93.2095 169.559 90.4933C169.079 90.4773 168.598 90.4673 168.121 90.4693C168.111 89.9644 168.109 89.4555 167.984 88.9645C167.16 88.9865 166.334 88.9745 165.51 88.9765C165.508 88.5394 165.508 88.1004 165.51 87.6653C166.374 87.6653 167.238 87.6653 168.103 87.6653C168.103 84.8553 168.103 82.0472 168.103 79.2392C168.095 78.407 168.147 77.5688 168.024 76.7425C167.619 76.7525 167.214 76.7565 166.811 76.7625C166.795 74.0343 166.843 71.3061 166.785 68.5799C166.36 68.5859 165.933 68.5859 165.512 68.5878C165.51 67.2547 165.506 65.9215 165.512 64.5864C165.014 64.5504 164.515 64.5444 164.016 64.5484ZM173.565 64.5624C173.569 66.3805 173.573 68.1987 173.563 70.0168C174.03 70.0328 174.498 70.0388 174.969 70.0428C174.973 70.9389 174.967 71.8369 174.977 72.735C176.762 72.733 178.548 72.735 180.333 72.733C180.333 73.2 180.335 73.669 180.341 74.1381C182.192 74.158 184.043 74.1141 185.894 74.164C185.888 74.5831 185.886 75.0022 185.888 75.4233C187.235 75.4253 188.583 75.4213 189.931 75.4253C189.929 75.8684 189.927 76.3114 189.929 76.7545C190.38 76.7565 190.833 76.7565 191.288 76.7565C191.286 75.8843 191.286 75.0142 191.288 74.142C190.833 74.14 190.384 74.14 189.933 74.14C189.914 72.29 189.955 70.4379 189.91 68.5878C189.439 68.5878 188.966 68.5839 188.499 68.5799C188.497 68.1388 188.499 67.6997 188.501 67.2587C187.63 67.2567 186.76 67.2587 185.888 67.2587C185.888 67.7037 185.888 68.1508 185.888 68.5978C185.796 68.5719 185.611 68.524 185.517 68.498C185.521 68.5539 185.527 68.6677 185.531 68.7236C184.219 68.6517 182.894 68.8174 181.594 68.6298C181.975 68.5619 182.364 68.5479 182.754 68.5459C182.733 67.6698 182.745 66.7957 182.745 65.9195C181.895 65.9195 181.047 65.9195 180.199 65.9195C180.191 66.8116 180.223 67.7037 180.167 68.5958C180.263 68.6138 180.453 68.6497 180.546 68.6697C180.07 68.7076 179.591 68.7136 179.116 68.7295C179.006 67.8135 179.064 66.8915 179.054 65.9714C178.605 65.9714 178.159 65.9714 177.716 65.9734C177.716 66.3885 177.72 66.8056 177.73 67.2208C177.241 67.2507 176.75 67.2607 176.262 67.2627C176.26 66.8316 176.26 66.4005 176.262 65.9714C175.831 65.9714 175.404 65.9714 174.977 65.9734C174.973 65.4964 174.967 65.0194 174.963 64.5424C174.494 64.5464 174.03 64.5504 173.565 64.5624ZM141.007 64.5464C141.003 65.0214 141.003 65.4964 141.009 65.9734C141.446 65.9714 141.885 65.9714 142.324 65.9754C142.33 65.4984 142.33 65.0214 142.326 64.5444C141.885 64.5464 141.444 64.5464 141.007 64.5464ZM191.292 64.5464C191.286 65.0214 191.286 65.4964 191.292 65.9714C191.711 65.9714 192.132 65.9714 192.555 65.9734C192.56 65.4964 192.56 65.0214 192.558 64.5444C192.134 64.5464 191.711 64.5464 191.292 64.5464ZM159.937 67.2647C159.937 68.1887 159.937 69.1147 159.939 70.0408C160.422 70.0388 160.904 70.0308 161.389 70.0128C161.375 69.0868 161.383 68.1588 161.381 67.2327C160.898 67.2507 160.418 67.2607 159.937 67.2647ZM169.553 67.2587C169.551 68.1847 169.551 69.1127 169.555 70.0388C169.998 70.0368 170.445 70.0368 170.89 70.0368C170.892 69.1107 170.89 68.1847 170.892 67.2587C170.443 67.2567 169.998 67.2567 169.553 67.2587ZM192.558 67.2846C192.564 68.1987 192.562 69.1127 192.562 70.0248C193.063 70.0408 193.566 70.0348 194.068 69.9969C194.053 69.1047 194.051 68.2107 194.072 67.3186C193.568 67.2647 193.061 67.2587 192.558 67.2846ZM194.059 71.342C194.059 72.268 194.059 73.1941 194.057 74.1201C193.558 74.1381 193.059 74.144 192.562 74.154C192.562 75.5012 192.564 76.8483 192.562 78.1934C193.017 78.2054 193.472 78.2094 193.931 78.2154C193.937 77.3133 193.947 76.4112 193.923 75.5091C194.402 75.4453 194.886 75.4153 195.373 75.4093C195.363 74.0542 195.369 72.6971 195.367 71.34C194.93 71.34 194.493 71.34 194.059 71.342ZM202.225 72.733C202.221 73.202 202.223 73.673 202.231 74.144C202.658 74.14 203.091 74.142 203.521 74.142C203.525 73.673 203.527 73.204 203.529 72.735C203.093 72.733 202.656 72.733 202.225 72.733ZM162.728 97.2749C162.728 97.7279 162.73 98.1829 162.736 98.64C163.158 98.638 163.583 98.638 164.01 98.64C164.012 98.1829 164.012 97.7279 164.014 97.2729C163.583 97.2729 163.154 97.2729 162.728 97.2749ZM164.012 98.644C164.012 99.0651 164.012 99.4862 164.014 99.9093C164.946 99.9173 165.877 99.9113 166.809 99.9153C166.809 99.4882 166.809 99.0631 166.811 98.64C165.877 98.64 164.946 98.636 164.012 98.644ZM102.828 99.9133C102.828 100.47 102.852 101.041 102.659 101.574C102.639 101.498 102.603 101.346 102.585 101.27C102.238 101.278 101.891 101.284 101.544 101.29C101.538 101.761 101.536 102.234 101.536 102.707C101.067 102.709 100.6 102.711 100.134 102.715C100.134 103.132 100.138 103.552 100.144 103.971C99.6747 103.987 99.206 103.997 98.7392 104.005C98.7412 104.935 98.7412 105.867 98.7392 106.799C98.3144 106.799 97.8915 106.799 97.4686 106.799C97.4806 110.421 97.4447 114.043 97.4865 117.666C97.9034 117.658 98.3203 117.656 98.7392 117.654C98.7412 118.542 98.7412 119.432 98.7412 120.32C99.206 120.32 99.6708 120.32 100.136 120.322C100.136 121.252 100.14 122.182 100.132 123.114C100.6 123.12 101.069 123.122 101.54 123.128C101.536 123.553 101.536 123.978 101.538 124.405C101.961 124.403 102.386 124.403 102.81 124.401C102.818 124.884 102.836 125.365 102.868 125.85C103.299 125.84 103.73 125.838 104.163 125.838C104.159 126.255 104.153 126.674 104.143 127.093L104.326 127.026L104.336 127.213C104.761 127.205 105.188 127.205 105.615 127.203C105.615 127.63 105.615 128.057 105.615 128.487C106.044 128.487 106.473 128.487 106.902 128.487C106.902 128.94 106.902 129.397 106.904 129.852C107.328 129.85 107.753 129.844 108.178 129.838L108.086 130.069L108.326 129.985C108.316 130.416 108.316 130.852 108.314 131.287C108.775 131.287 109.237 131.289 109.7 131.291C109.7 131.714 109.7 132.139 109.702 132.566C110.121 132.564 110.542 132.564 110.963 132.562C110.967 133.049 110.983 133.538 111.051 134.025C112.373 134.001 113.7 134.013 115.024 134.017C115.096 131.748 115.036 129.476 115.056 127.207C114.629 127.205 114.204 127.205 113.779 127.205C113.779 126.75 113.779 126.295 113.781 125.84C112.425 125.84 111.069 125.836 109.714 125.842C109.704 125.363 109.698 124.884 109.698 124.407C108.767 124.401 107.835 124.403 106.904 124.403C106.902 123.976 106.902 123.549 106.902 123.124C106.473 123.122 106.044 123.122 105.615 123.122C105.615 122.681 105.613 122.238 105.613 121.797C105.238 121.799 104.869 121.805 104.498 121.813L104.556 121.583C104.456 121.607 104.259 121.657 104.159 121.681C104.159 119.867 104.159 118.053 104.159 116.239C103.712 116.237 103.267 116.237 102.822 116.237C102.82 115.366 102.82 114.494 102.822 113.624C103.261 113.622 103.702 113.624 104.143 113.628C104.127 113.532 104.091 113.343 104.073 113.249L104.3 113.311C104.291 112.926 104.287 112.538 104.285 112.155C105.156 112.153 106.03 112.153 106.902 112.155C106.904 110.794 106.902 109.433 106.904 108.072C106.03 108.072 105.16 108.072 104.289 108.072C104.287 108.529 104.287 108.986 104.289 109.445C103.373 109.489 102.457 109.467 101.542 109.469C101.53 112.662 101.54 115.855 101.538 119.049C101.965 119.047 102.392 119.047 102.82 119.047C102.82 119.47 102.82 119.895 102.822 120.32C102.394 120.32 101.965 120.32 101.538 120.32C101.536 119.895 101.536 119.472 101.538 119.049C101.199 119.047 100.862 119.047 100.524 119.047C100.522 118.793 100.522 118.54 100.524 118.286C100.427 118.284 100.231 118.276 100.134 118.274C100.142 117.181 100.128 116.087 100.144 114.993C99.9819 114.983 99.6608 114.961 99.4992 114.949C99.5132 113.121 99.4892 111.293 99.5112 109.467L99.7585 109.471C99.7585 109.313 99.7625 108.998 99.7645 108.84C99.8563 108.84 100.042 108.838 100.134 108.838C100.136 108.283 100.134 107.729 100.142 107.174C100.53 106.92 100.854 106.587 101.153 106.234C101.143 106.204 101.127 106.142 101.117 106.112C101.532 106.116 101.572 105.783 101.58 105.448C101.871 105.448 102.164 105.449 102.457 105.451C102.781 105.026 102.884 104.523 102.834 103.997C104.191 103.997 105.547 103.997 106.904 103.999C106.902 104.44 106.902 104.879 106.902 105.322C107.364 105.322 107.829 105.324 108.294 105.326C108.312 105.817 108.318 106.306 108.324 106.799C108.783 106.799 109.241 106.799 109.702 106.803C109.7 107.693 109.696 108.583 109.708 109.475C110.127 109.471 110.544 109.469 110.965 109.469C110.979 110.363 110.975 111.259 110.975 112.155C111.426 112.153 111.876 112.153 112.329 112.155C112.329 113.514 112.329 114.875 112.329 116.237C111.878 116.237 111.426 116.237 110.975 116.239C110.975 117.175 110.975 118.111 110.975 119.047C111.426 119.047 111.876 119.047 112.329 119.049C112.325 120.396 112.339 121.745 112.319 123.094C112.806 123.116 113.293 123.124 113.781 123.128C113.779 123.553 113.779 123.978 113.781 124.403C114.204 124.403 114.629 124.403 115.056 124.403C115.056 123.042 115.056 121.681 115.056 120.32C114.629 120.318 114.204 120.32 113.779 120.32C113.779 117.598 113.779 114.875 113.781 112.155C114.204 112.153 114.629 112.153 115.056 112.155C115.056 111.73 115.056 111.305 115.056 110.88C114.631 110.88 114.206 110.878 113.783 110.88C113.779 110.407 113.777 109.938 113.769 109.467C113.335 109.471 112.898 109.471 112.465 109.475C112.453 108.605 112.449 107.735 112.467 106.864C111.972 106.803 111.473 106.791 110.977 106.791C110.975 106.344 110.973 105.895 110.975 105.449C110.558 105.449 110.143 105.451 109.728 105.455C109.704 104.971 109.698 104.486 109.696 104.001C109.239 103.997 108.781 103.997 108.324 103.997L108.306 103.739C108.643 103.733 108.98 103.727 109.321 103.721C109.325 103.635 109.337 103.466 109.343 103.38C109.738 103.364 109.702 103.005 109.742 102.717C109.267 102.709 108.793 102.709 108.32 102.709C108.316 102.236 108.314 101.765 108.312 101.294C107.412 101.28 106.513 101.286 105.615 101.284C105.615 100.827 105.615 100.37 105.615 99.9133C104.685 99.9133 103.758 99.9133 102.828 99.9133ZM149.05 102.727C149.046 103.128 149.042 103.532 149.034 103.937C149.519 103.981 150.005 104.001 150.496 104.009C150.494 103.573 150.494 103.14 150.494 102.707C150.011 102.709 149.529 102.713 149.05 102.727ZM153.209 105.451C153.207 106.789 153.213 108.126 153.207 109.465C152.73 109.469 152.253 109.471 151.779 109.473C151.773 109.94 151.773 110.407 151.773 110.876C152.251 110.876 152.732 110.882 153.211 110.888C153.209 111.309 153.207 111.732 153.209 112.155C153.664 112.153 154.12 112.153 154.577 112.153C154.577 112.604 154.573 113.055 154.565 113.508C154.994 113.498 155.425 113.498 155.858 113.504C155.84 111.271 155.856 109.038 155.85 106.807C156.305 106.799 156.759 106.797 157.216 106.797C157.218 106.348 157.218 105.899 157.22 105.451C155.884 105.451 154.545 105.451 153.209 105.451ZM135.969 106.034C135.961 106.884 135.957 107.735 135.959 108.585C135.833 108.587 135.578 108.591 135.452 108.593C135.452 109.014 135.452 109.435 135.452 109.856C135.125 109.856 134.8 109.856 134.476 109.858C134.441 109.72 134.367 109.443 134.331 109.305C134.227 109.585 134.159 109.876 134.177 110.179C134.181 112.199 134.179 114.219 134.181 116.237C134.604 116.237 135.027 116.237 135.454 116.239C135.452 119.895 135.454 123.549 135.452 127.205C135.027 127.205 134.604 127.205 134.181 127.205C134.181 124.91 134.179 122.615 134.181 120.32C133.73 120.32 133.28 120.318 132.831 120.322C132.835 118.967 132.825 117.616 132.837 116.263C132.348 116.241 131.861 116.235 131.375 116.233C131.369 118.53 131.375 120.827 131.373 123.122C130.948 123.122 130.523 123.122 130.1 123.122C130.1 132.648 130.1 142.171 130.1 151.695C130.523 151.695 130.948 151.695 131.373 151.695C131.371 152.122 131.371 152.549 131.373 152.976C131.816 152.974 132.256 152.972 132.701 152.974C132.707 153.899 132.707 154.825 132.703 155.753C133.619 155.796 134.536 155.775 135.454 155.779C135.452 156.2 135.452 156.625 135.452 157.05C135.915 157.05 136.377 157.05 136.842 157.054C136.848 157.547 136.854 158.04 136.874 158.535C137.335 158.533 137.798 158.533 138.26 158.537C138.258 158.976 138.26 159.419 138.26 159.86C139.132 159.86 140.002 159.86 140.876 159.862C140.874 160.281 140.874 160.704 140.874 161.125C141.785 161.157 142.699 161.141 143.612 161.143C143.614 161.62 143.62 162.101 143.626 162.582C144.095 162.58 144.562 162.58 145.033 162.586C145.033 163.033 145.031 163.482 145.033 163.933C145.92 163.937 146.808 163.935 147.695 163.935C147.693 164.36 147.693 164.785 147.695 165.216C148.623 165.224 149.553 165.22 150.482 165.218C150.492 165.673 150.494 166.129 150.498 166.588C151.396 166.588 152.291 166.586 153.189 166.59C153.205 167.065 153.211 167.542 153.215 168.021C154.092 168.019 154.97 168.019 155.85 168.021C155.848 168.448 155.85 168.881 155.85 169.312C156.783 169.316 157.717 169.316 158.65 169.312C158.652 169.793 158.656 170.274 158.66 170.757C159.568 170.757 160.476 170.751 161.383 170.767C161.381 171.212 161.379 171.655 161.381 172.102C162.259 172.102 163.136 172.102 164.014 172.102C164.012 172.525 164.012 172.948 164.012 173.375C165.377 173.389 166.739 173.379 168.103 173.381C168.101 172.954 168.103 172.529 168.103 172.104C168.54 172.102 168.979 172.1 169.42 172.102C169.418 171.663 169.418 171.226 169.418 170.791C169.571 170.787 169.879 170.777 170.03 170.773L169.98 170.607C170.282 170.611 170.585 170.615 170.892 170.621C170.908 169.274 170.852 167.925 170.928 166.578C171.341 166.586 171.754 166.586 172.169 166.592C172.169 165.707 172.171 164.825 172.169 163.943C172.633 163.937 173.1 163.933 173.569 163.933C173.567 163.007 173.569 162.081 173.567 161.157C174.034 161.147 174.502 161.141 174.973 161.141C174.969 160.714 174.971 160.289 174.971 159.864C175.4 159.86 175.831 159.86 176.262 159.86C176.264 158.924 176.254 157.988 176.274 157.052C176.714 157.052 177.153 157.05 177.598 157.05C177.59 156.679 177.588 156.313 177.578 155.946L177.794 156.024L177.716 155.775C178.159 155.777 178.604 155.777 179.05 155.781C179.05 155.316 179.054 154.852 179.06 154.391C179.483 154.393 179.904 154.393 180.331 154.397C180.337 153.499 180.337 152.603 180.331 151.707C180.802 151.697 181.274 151.693 181.751 151.693C181.747 151.25 181.747 150.811 181.745 150.372L181.991 150.448L181.889 150.224C182.302 150.232 182.715 150.232 183.131 150.238C183.133 149.364 183.133 148.49 183.133 147.616C183.568 147.612 184.007 147.61 184.446 147.602C184.44 145.315 184.444 143.03 184.444 140.742C183.544 140.727 182.647 140.734 181.749 140.732C181.747 140.307 181.747 139.882 181.749 139.457C182.208 139.455 182.671 139.453 183.133 139.453C183.133 139.018 183.131 138.581 183.133 138.148C183.917 138.148 184.703 138.142 185.491 138.154C185.499 138.102 185.517 137.996 185.527 137.944C185.617 137.968 185.798 138.014 185.888 138.038C185.888 137.573 185.888 137.108 185.892 136.645C186.327 136.645 186.766 136.645 187.205 136.647C187.205 136.22 187.205 135.795 187.207 135.372C187.638 135.372 188.066 135.37 188.501 135.372C188.499 134.919 188.499 134.468 188.499 134.017C188.968 134.013 189.441 134.009 189.914 134.011C189.939 133.105 189.925 132.199 189.931 131.295C189.022 131.285 188.114 131.289 187.207 131.289C187.205 130.85 187.203 130.408 187.205 129.971C186.832 129.973 186.463 129.979 186.094 129.989L186.138 129.76C186.042 129.782 185.854 129.822 185.761 129.842C185.761 129.389 185.76 128.938 185.762 128.487C184.885 128.487 184.009 128.487 183.133 128.487C183.133 127.604 183.133 126.722 183.133 125.84C182.673 125.838 182.214 125.838 181.757 125.836C181.739 123.998 181.753 122.16 181.749 120.322C181.079 120.32 180.409 120.32 179.74 120.32C179.744 120.482 179.75 120.803 179.752 120.965C180.032 121.098 180.066 121.39 180.113 121.667C179.322 121.675 178.53 121.673 177.74 121.667C177.708 122.547 177.71 123.427 177.734 124.307C177.249 124.411 176.75 124.413 176.26 124.413C176.264 125.343 176.26 126.275 176.262 127.205C175.829 127.205 175.4 127.205 174.971 127.205C174.971 127.632 174.969 128.057 174.971 128.485C174.502 128.485 174.036 128.489 173.569 128.493C173.567 128.944 173.567 129.395 173.569 129.848C170.383 129.848 167.198 129.854 164.014 129.844C164.012 129.391 164.012 128.938 164.012 128.487C163.135 128.487 162.257 128.487 161.379 128.487C161.379 128.063 161.381 127.644 161.387 127.223C160.478 127.195 159.566 127.207 158.658 127.205C158.656 126.75 158.656 126.293 158.658 125.84C157.727 125.838 156.795 125.838 155.866 125.838C155.852 125.359 155.848 124.88 155.846 124.403C154.97 124.405 154.096 124.403 153.223 124.403C153.209 124.226 153.203 124.048 153.203 123.872C153.173 123.619 153.133 123.367 153.081 123.12C152.642 123.122 152.207 123.122 151.773 123.12C151.775 122.186 151.773 121.252 151.773 120.32C151.346 120.318 150.919 120.32 150.494 120.32C150.446 119.336 150.634 118.318 150.332 117.364C150.312 117.44 150.273 117.594 150.255 117.672C149.896 117.662 149.539 117.656 149.183 117.654C149.16 116.274 149.187 114.895 149.164 113.516C148.673 113.5 148.184 113.496 147.695 113.492C147.693 113.045 147.693 112.6 147.695 112.153C147.267 112.153 146.84 112.153 146.413 112.153C146.413 111.728 146.413 111.305 146.415 110.882C145.952 110.878 145.491 110.878 145.031 110.876C145.034 109.942 145.03 109.01 145.034 108.078C143.688 108.064 142.344 108.076 140.999 108.07C141.001 107.661 141.005 107.254 141.015 106.847C140.183 106.771 139.346 106.803 138.512 106.801C138.51 106.543 138.51 106.288 138.51 106.034C137.662 106.034 136.816 106.034 135.969 106.034ZM168.103 106.797C168.103 108.158 168.103 109.519 168.103 110.88C167.672 110.878 167.242 110.878 166.813 110.88C166.811 110.411 166.805 109.94 166.803 109.473C166.33 109.471 165.861 109.469 165.393 109.459C165.391 108.996 165.389 108.533 165.389 108.07C164.928 108.07 164.471 108.072 164.014 108.076C163.994 109.928 164.058 111.78 163.976 113.63C163.559 113.624 163.142 113.622 162.73 113.622C162.728 114.494 162.73 115.366 162.73 116.239C162.279 116.237 161.83 116.237 161.381 116.239C161.379 116.67 161.379 117.103 161.383 117.536C161.595 117.534 162.021 117.53 162.235 117.528L162.083 117.723C162.295 117.687 162.51 117.656 162.726 117.628C162.728 118.099 162.728 118.574 162.73 119.049C161.8 119.047 160.869 119.047 159.939 119.047C159.937 118.582 159.935 118.119 159.937 117.658C159.031 117.656 158.128 117.666 157.224 117.642C157.22 117.175 157.218 116.706 157.218 116.239C156.765 116.237 156.315 116.237 155.864 116.235C155.854 115.855 155.838 115.476 155.812 115.101C156.233 114.836 156.751 114.999 157.22 114.961C157.218 114.514 157.218 114.069 157.22 113.624C156.745 113.624 156.273 113.624 155.802 113.622C155.832 113.981 155.872 114.343 155.92 114.704C155.822 114.798 155.726 114.893 155.632 114.989C155.275 114.969 154.922 114.959 154.569 114.949C154.573 114.504 154.577 114.059 154.597 113.614C154.132 113.624 153.67 113.624 153.209 113.626C153.211 115.857 153.209 118.089 153.209 120.322C153.662 120.32 154.114 120.32 154.569 120.32C154.571 120.815 154.579 121.31 154.615 121.807C155.026 121.801 155.435 121.799 155.85 121.799C155.848 122.236 155.85 122.675 155.85 123.116C156.785 123.128 157.721 123.122 158.656 123.122C158.654 123.549 158.654 123.976 158.656 124.405C159.566 124.405 160.476 124.393 161.385 124.421C161.379 124.894 161.383 125.367 161.391 125.842C162.265 125.838 163.138 125.84 164.014 125.838C164.012 126.293 164.012 126.746 164.014 127.203C165.377 127.209 166.741 127.201 168.105 127.209C168.101 127.632 168.101 128.057 168.101 128.485C169.031 128.489 169.96 128.487 170.892 128.487C170.89 128.059 170.89 127.63 170.892 127.205C171.315 127.203 171.744 127.205 172.171 127.205C172.169 125.407 172.173 123.609 172.169 121.809C172.637 121.803 173.106 121.799 173.577 121.793C173.561 122.661 173.569 123.529 173.569 124.397C174.036 124.401 174.502 124.403 174.971 124.405C174.969 123.491 174.985 122.577 174.949 121.665C174.524 121.669 174.097 121.671 173.677 121.679C173.677 121.226 173.679 120.773 173.681 120.322C174.54 120.32 175.4 120.32 176.262 120.322C176.26 117.6 176.262 114.877 176.262 112.155C175.829 112.153 175.4 112.153 174.971 112.155C174.969 111.728 174.971 111.305 174.971 110.882C174.506 110.88 174.04 110.876 173.577 110.872C173.571 110.664 173.557 110.251 173.549 110.046L173.844 109.976L173.521 109.892C173.539 109.788 173.573 109.583 173.589 109.479C173.116 109.471 172.641 109.467 172.173 109.465C172.169 108.998 172.169 108.533 172.169 108.068C171.295 108.074 170.421 108.072 169.549 108.07C169.549 107.655 169.553 107.242 169.565 106.829C169.077 106.805 168.59 106.797 168.103 106.797ZM157.216 108.09C157.218 108.545 157.22 109 157.222 109.457C158.126 109.481 159.031 109.469 159.935 109.471C159.935 109.004 159.937 108.537 159.939 108.072C159.029 108.074 158.122 108.058 157.216 108.09ZM158.656 113.624C158.654 114.069 158.656 114.516 158.656 114.961C159.52 114.961 160.382 114.961 161.246 114.963C161.246 114.516 161.246 114.069 161.248 113.624C160.384 113.624 159.52 113.624 158.656 113.624ZM63.0439 118.783C63.0439 119.633 63.0439 120.484 63.0439 121.336C63.8936 121.334 64.7454 121.336 65.5951 121.334C65.5951 120.484 65.5951 119.633 65.5951 118.783C64.7454 118.781 63.8936 118.781 63.0439 118.783ZM184.444 119.045C184.442 119.466 184.44 119.887 184.444 120.312C184.005 120.318 183.568 120.32 183.133 120.322C183.133 121.256 183.133 122.188 183.133 123.122C183.568 123.122 184.005 123.122 184.442 123.124C184.442 123.551 184.442 123.976 184.444 124.405C184.925 124.403 185.405 124.401 185.89 124.393C185.888 122.619 185.884 120.843 185.892 119.071C185.409 119.051 184.927 119.045 184.444 119.045ZM195.369 120.32C195.367 121.254 195.367 122.188 195.369 123.122C194.007 123.122 192.646 123.124 191.286 123.122C191.286 123.549 191.286 123.974 191.288 124.403C190.833 124.403 190.38 124.403 189.929 124.407C189.935 125.98 189.917 127.553 189.939 129.125C190.193 129.339 190.44 129.562 190.66 129.82C190.845 129.832 191.035 129.846 191.228 129.86C191.252 130.225 191.39 130.55 191.617 130.842C191.663 130.844 191.759 130.85 191.804 130.852C191.914 131.293 192.417 131.323 192.754 131.524C192.906 131.436 193.059 131.348 193.215 131.261C193.638 131.275 194.088 131.594 194.495 131.356C194.795 131.608 195.267 131.65 195.527 131.303C195.902 131.289 196.279 131.287 196.658 131.285C196.658 129.927 196.662 128.57 196.656 127.213C197.136 127.207 197.617 127.203 198.102 127.199C198.104 125.858 198.09 124.515 198.112 123.174C197.625 123.136 197.138 123.116 196.652 123.104C196.664 122.176 196.656 121.248 196.66 120.32C196.227 120.318 195.796 120.32 195.369 120.32ZM182.114 124.399C182.122 124.511 182.138 124.737 182.146 124.848H182.244C182.505 125.1 182.8 125.307 183.096 125.525C183.122 125.152 183.133 124.778 183.145 124.409C182.8 124.403 182.457 124.401 182.114 124.399ZM184.268 125.894C184.709 126.419 185.479 126.096 186.076 126.189C186.261 126.483 186.624 126.431 186.917 126.501C186.915 126.589 186.915 126.76 186.913 126.848L187.179 126.866C187.193 126.525 187.205 126.183 187.217 125.842C186.233 125.852 185.248 125.792 184.268 125.894ZM70.6956 126.445C70.6996 127.293 70.6976 128.143 70.6976 128.993C71.5453 128.993 72.3931 128.993 73.2408 128.993C73.2408 128.141 73.2408 127.291 73.2408 126.441C72.3931 126.441 71.5453 126.437 70.6956 126.445ZM78.3453 128.993C78.3453 129.844 78.3453 130.694 78.3453 131.546C77.4936 131.546 76.6438 131.546 75.7941 131.546C75.7921 132.396 75.7921 133.248 75.7941 134.099C76.6438 134.099 77.4936 134.099 78.3453 134.099C78.3453 133.248 78.3453 132.398 78.3453 131.548C79.195 131.546 80.0448 131.546 80.8965 131.546C80.8965 130.694 80.8965 129.844 80.8965 128.993C80.0448 128.993 79.195 128.993 78.3453 128.993ZM60.5006 133.077C60.5006 133.927 60.5006 134.777 60.5006 135.629C61.3484 135.629 62.1961 135.629 63.0439 135.629C63.0439 134.777 63.0439 133.927 63.0439 133.077C62.1961 133.077 61.3484 133.077 60.5006 133.077ZM65.5951 133.077C65.5951 133.927 65.5951 134.777 65.5951 135.629C66.4448 135.629 67.2966 135.629 68.1463 135.629C68.1463 134.777 68.1463 133.927 68.1463 133.077C67.2966 133.077 66.4448 133.075 65.5951 133.077ZM63.0439 135.629C63.0439 136.478 63.0439 137.326 63.0439 138.174C63.8936 138.174 64.7434 138.174 65.5951 138.174C65.5951 137.326 65.5951 136.478 65.5951 135.629C64.7434 135.629 63.8936 135.629 63.0439 135.629ZM65.5951 138.182C65.5951 139.03 65.5951 139.878 65.5951 140.727C66.4448 140.727 67.2966 140.727 68.1463 140.727C68.1463 139.878 68.1463 139.03 68.1463 138.182C67.2966 138.182 66.4448 138.182 65.5951 138.182ZM68.1463 140.794C68.1463 141.645 68.1463 142.495 68.1463 143.347C67.2966 143.345 66.4448 143.345 65.5951 143.347C65.5951 144.197 65.5951 145.047 65.5951 145.9C66.4448 145.9 67.2966 145.9 68.1463 145.9C68.1463 145.047 68.1463 144.197 68.1463 143.347C68.9941 143.345 69.8418 143.345 70.6896 143.347C70.6916 142.495 70.6896 141.645 70.6916 140.794C69.8418 140.792 68.9941 140.792 68.1463 140.794ZM65.5951 148.452C65.5951 149.3 65.5951 150.148 65.5951 150.997C66.4448 150.997 67.2966 150.997 68.1463 150.997C68.1463 150.148 68.1463 149.3 68.1463 148.452C67.2966 148.452 66.4448 148.452 65.5951 148.452ZM182.876 159.087C182.876 159.938 182.876 160.79 182.876 161.64C183.724 161.64 184.57 161.64 185.419 161.642C185.419 160.79 185.419 159.938 185.419 159.087C184.57 159.087 183.724 159.087 182.876 159.087ZM182.876 164.195C182.876 165.045 182.876 165.895 182.876 166.747C183.724 166.745 184.57 166.745 185.419 166.747C185.419 165.895 185.419 165.045 185.419 164.195C184.572 164.193 183.724 164.193 182.876 164.195ZM72.7342 166.747C72.7342 167.597 72.7342 168.45 72.7342 169.304C73.5839 169.296 74.4357 169.3 75.2854 169.3C75.2854 168.448 75.2854 167.597 75.2854 166.747C74.4357 166.745 73.5859 166.747 72.7342 166.747ZM67.6397 166.747C67.6397 167.597 67.6397 168.448 67.6397 169.3C68.4575 169.326 69.2773 169.26 70.0932 169.306C70.3066 170.126 70.1231 171.006 70.1829 171.852C71.0327 171.852 71.8844 171.852 72.7342 171.852C72.7342 172.701 72.7342 173.549 72.7362 174.397C73.5859 174.397 74.4357 174.397 75.2854 174.397C75.2854 173.549 75.2854 172.701 75.2874 171.852C74.4357 171.852 73.5839 171.852 72.7342 171.852C72.7342 171 72.7382 170.15 72.7282 169.3C71.9343 169.264 71.1244 169.38 70.3385 169.236C69.9695 168.497 70.2887 167.559 70.1829 166.747C69.3352 166.745 68.4874 166.745 67.6397 166.747ZM70.1829 174.397C70.1829 175.247 70.1829 176.099 70.1829 176.95C71.0327 176.95 71.8844 176.95 72.7342 176.95C72.7342 176.099 72.7342 175.247 72.7342 174.397C71.8844 174.397 71.0327 174.397 70.1829 174.397ZM187.971 181.033C187.971 181.881 187.971 182.729 187.971 183.577C188.82 183.577 189.672 183.577 190.524 183.577C190.522 182.725 190.522 181.873 190.522 181.023C189.67 181.033 188.82 181.033 187.971 181.033ZM101.568 195.149C101.542 195.628 101.534 196.107 101.532 196.59C101.965 196.59 102.398 196.59 102.832 196.588C102.826 196.103 102.814 195.618 102.763 195.139C102.364 195.145 101.965 195.147 101.568 195.149ZM166.551 198.372C166.484 199.218 166.695 200.116 166.444 200.931C165.634 200.966 164.82 200.907 164.01 200.933C164.008 201.781 164.008 202.629 164.01 203.477C164.856 203.477 165.704 203.477 166.551 203.477C166.645 202.661 166.364 201.757 166.687 200.998C167.477 200.829 168.299 200.966 169.105 200.925C169.105 200.072 169.103 199.222 169.105 198.372C168.253 198.37 167.401 198.37 166.551 198.372ZM192.052 206.03C192.052 206.88 192.05 207.732 192.054 208.584C192.904 208.58 193.753 208.582 194.603 208.582C194.603 207.73 194.603 206.88 194.603 206.03C193.751 206.03 192.902 206.03 192.052 206.03ZM186.957 206.03C186.957 206.88 186.955 207.73 186.957 208.582C187.803 208.582 188.651 208.582 189.501 208.582C189.499 207.73 189.499 206.88 189.501 206.03C188.651 206.028 187.803 206.028 186.957 206.03ZM189.501 208.582C189.499 209.43 189.499 210.279 189.501 211.129C190.352 211.127 191.204 211.127 192.058 211.129C192.048 210.279 192.052 209.43 192.052 208.582C191.2 208.582 190.35 208.582 189.501 208.582ZM192.05 211.135C192.052 211.983 192.052 212.829 192.052 213.679C192.902 213.679 193.751 213.679 194.603 213.679C194.603 212.827 194.603 211.977 194.603 211.127C193.751 211.127 192.9 211.121 192.05 211.135ZM122.195 214.703C122.195 215.551 122.195 216.4 122.195 217.248C123.045 217.248 123.897 217.248 124.748 217.248C124.746 216.398 124.746 215.549 124.746 214.703C123.897 214.701 123.045 214.701 122.195 214.703ZM117.101 214.703C117.099 215.549 117.099 216.398 117.101 217.248C117.912 217.17 118.792 217.412 119.562 217.12C119.754 216.334 119.594 215.506 119.644 214.703C118.796 214.701 117.948 214.701 117.101 214.703ZM119.644 217.382C119.612 218.186 119.664 218.992 119.644 219.8C120.494 219.8 121.345 219.798 122.195 219.8C122.195 218.948 122.195 218.098 122.195 217.248C121.353 217.326 120.434 217.074 119.644 217.382Z" fill="black"/>
<path d="M127.297 55.0171C127.754 55.0171 128.21 55.0171 128.669 55.0191C128.669 55.4661 128.669 55.9132 128.669 56.3622C128.21 56.3622 127.754 56.3622 127.299 56.3622C127.297 55.9132 127.297 55.4661 127.297 55.0171Z" fill="black"/>
<path d="M64.0635 65.7275C64.9152 65.7275 65.765 65.7275 66.6167 65.7295C66.6147 66.5797 66.6147 67.4299 66.6167 68.2801C65.765 68.2801 64.9152 68.2801 64.0635 68.2801C64.0635 67.4299 64.0635 66.5777 64.0635 65.7275Z" fill="black"/>
<path d="M204.821 76.8967C205.256 76.8927 205.691 76.8887 206.13 76.8887C206.132 78.1939 206.13 79.5011 206.132 80.8083C205.693 80.8044 205.256 80.8004 204.821 80.7964C204.825 79.4951 204.825 78.1959 204.821 76.8967Z" fill="black"/>
<path d="M209.902 92.7705C210.748 92.7705 211.595 92.7705 212.445 92.7705C212.443 93.6207 212.443 94.4729 212.445 95.3231C211.595 95.3231 210.748 95.3231 209.902 95.3231C209.9 94.4729 209.9 93.6207 209.902 92.7705Z" fill="black"/>
<path d="M212.447 95.3228C213.297 95.3228 214.146 95.3228 214.998 95.3228C214.996 96.171 214.998 97.0191 214.998 97.8673C214.146 97.8673 213.297 97.8673 212.447 97.8673C212.447 97.0191 212.447 96.171 212.447 95.3228Z" fill="black"/>
<path d="M209.9 97.8778C210.748 97.8778 211.596 97.8758 212.446 97.8778C212.444 98.724 212.444 99.5722 212.446 100.42C211.596 100.42 210.748 100.42 209.902 100.42C209.9 99.5722 209.902 98.724 209.9 97.8778Z" fill="black"/>
<path d="M212.447 100.422C213.297 100.42 214.148 100.42 215 100.422C214.996 101.272 214.998 102.122 214.998 102.974C214.146 102.974 213.297 102.972 212.447 102.974C212.447 102.122 212.447 101.272 212.447 100.422Z" fill="black"/>
<path d="M185.75 106.857C186.229 106.809 186.711 106.787 187.196 106.767C187.202 107.202 187.204 107.639 187.206 108.076C186.723 108.072 186.243 108.068 185.764 108.048C185.76 107.649 185.758 107.252 185.75 106.857Z" fill="black"/>
<path d="M55.3965 113.684C56.2462 113.684 57.096 113.686 57.9477 113.684C57.9477 114.532 57.9477 115.38 57.9477 116.231C57.096 116.229 56.2462 116.229 55.3965 116.229C55.3965 115.38 55.3965 114.532 55.3965 113.684Z" fill="black"/>
<path d="M50.3028 113.686C51.1505 113.684 51.9983 113.684 52.846 113.684C52.844 114.532 52.846 115.38 52.846 116.229C51.9963 116.229 51.1485 116.229 50.3008 116.229C50.3008 115.38 50.3008 114.532 50.3028 113.686Z" fill="black"/>
<path d="M57.9477 116.239C58.7955 116.237 59.6452 116.239 60.495 116.235C60.501 117.081 60.497 117.929 60.499 118.777C59.6512 118.785 58.8015 118.783 57.9537 118.781C57.9437 119.632 57.9477 120.484 57.9477 121.336C57.096 121.336 56.2462 121.334 55.3965 121.336C55.3965 120.484 55.3965 119.634 55.3965 118.783C56.2462 118.783 57.096 118.779 57.9477 118.785C57.9457 117.935 57.9477 117.087 57.9477 116.239Z" fill="black"/>
<path d="M50.3008 121.334C50.3028 120.484 50.3008 119.634 50.3028 118.782C51.1505 118.782 51.9983 118.782 52.846 118.784C52.846 119.634 52.846 120.484 52.846 121.334C51.9963 121.336 51.1485 121.336 50.3008 121.334Z" fill="black"/>
<path d="M135.452 128.487C135.916 128.487 136.381 128.487 136.85 128.489C136.85 129.421 136.848 130.353 136.852 131.285C136.383 131.287 135.916 131.289 135.452 131.289C135.45 130.355 135.45 129.421 135.452 128.487Z" fill="black"/>
<path d="M179.055 136.645C179.95 136.647 180.848 136.643 181.745 136.649C181.745 137.106 181.747 137.563 181.749 138.022C180.85 138.03 179.95 138.026 179.051 138.026C179.049 137.565 179.051 137.104 179.055 136.645Z" fill="black"/>
<path d="M173.676 147.614C175.467 147.612 177.26 147.612 179.052 147.612C179.052 148.973 179.052 150.334 179.052 151.695C178.607 151.695 178.16 151.693 177.717 151.695C177.717 152.116 177.717 152.537 177.721 152.96C177.232 152.972 176.748 152.974 176.263 152.978C176.259 152.549 176.259 152.122 176.261 151.695C175.359 151.693 174.458 151.713 173.558 151.659C173.564 151.228 173.566 150.795 173.57 150.366C171.316 150.362 169.062 150.366 166.81 150.364C166.808 150.809 166.808 151.256 166.81 151.703C166.331 151.697 165.855 151.681 165.38 151.653C165.396 150.745 165.394 149.839 165.38 148.933C168.149 148.813 170.929 149.037 173.69 148.813C173.68 148.412 173.676 148.011 173.676 147.614Z" fill="black"/>
<path d="M170.89 155.78C171.782 155.78 172.674 155.778 173.567 155.782C173.565 156.658 173.565 157.538 173.565 158.416C173.144 158.414 172.724 158.408 172.307 158.4L172.402 158.546C172.185 158.546 171.746 158.546 171.529 158.546L171.521 158.217L171.291 158.534L170.958 158.56C170.817 157.64 170.918 156.706 170.89 155.78Z" fill="black"/>
<path d="M42.6475 173.373C43.4972 173.373 44.345 173.373 45.1947 173.373C45.2027 174.223 45.1987 175.075 45.1987 175.928C44.3489 175.928 43.4972 175.928 42.6475 175.926C42.6475 175.075 42.6475 174.223 42.6475 173.373Z" fill="black"/>
<path d="M37.5522 178.48C38.4 178.48 39.2478 178.48 40.0955 178.48C40.0955 179.331 40.0955 180.181 40.0955 181.033C40.9453 181.033 41.795 181.033 42.6467 181.033C42.6467 181.881 42.6467 182.729 42.6467 183.578C41.797 183.578 40.9453 183.578 40.0955 183.578C40.0955 184.428 40.0955 185.278 40.0955 186.13C39.2478 186.13 38.4 186.13 37.5522 186.13C37.5522 185.278 37.5522 184.428 37.5522 183.578C38.4 183.578 39.2478 183.578 40.0955 183.578C40.0955 182.725 40.0955 181.875 40.0955 181.025C39.2478 181.023 38.4 181.025 37.5522 181.025C37.5522 180.175 37.5522 179.327 37.5522 178.48Z" fill="black"/>
<path d="M42.6475 178.48C43.4972 178.48 44.3489 178.48 45.1987 178.48C45.1987 179.329 45.1987 180.177 45.1987 181.025C44.3489 181.025 43.4992 181.025 42.6475 181.025C42.6475 180.177 42.6475 179.327 42.6475 178.48Z" fill="black"/>
<path d="M35.0009 181.032C35.8506 181.032 36.7004 181.032 37.5521 181.032C37.5521 181.88 37.5521 182.728 37.5521 183.576C36.7004 183.576 35.8506 183.576 35.0009 183.576C34.9989 182.728 35.0009 181.88 35.0009 181.032Z" fill="black"/>
<path d="M130.099 183.053C130.522 183.051 130.946 183.051 131.371 183.053C131.371 186.205 131.371 189.358 131.371 192.509C130.944 192.507 130.522 192.507 130.099 192.509C130.099 189.356 130.099 186.205 130.099 183.053Z" fill="black"/>
<path d="M40.0947 186.132C40.9445 186.13 41.7962 186.13 42.646 186.13C42.646 186.981 42.646 187.833 42.646 188.685C41.7962 188.683 40.9445 188.683 40.0947 188.685C40.0947 187.833 40.0947 186.983 40.0947 186.132Z" fill="black"/>
<path d="M193.071 186.647C193.921 186.645 194.773 186.645 195.625 186.647C195.623 187.493 195.623 188.341 195.625 189.192C194.773 189.19 193.921 189.19 193.071 189.192C193.071 188.341 193.071 187.493 193.071 186.647Z" fill="black"/>
<path d="M131.37 196.584C131.861 196.586 132.352 196.598 132.84 196.636C132.812 200.693 132.836 204.751 132.83 208.81C132.721 208.816 132.501 208.83 132.391 208.836C132.391 208.239 132.389 207.644 132.391 207.052C132.048 207.05 131.709 207.052 131.37 207.054C131.37 203.563 131.37 200.075 131.37 196.584Z" fill="black"/>
<path d="M88.543 205.006C89.3928 205.008 90.2405 205.006 91.0903 205.008C91.0942 205.856 91.0923 206.708 91.0923 207.56C90.2425 207.558 89.3908 207.558 88.541 207.56C88.541 206.708 88.541 205.856 88.543 205.006Z" fill="black"/>
<path d="M161.458 206.031C162.306 206.031 163.158 206.029 164.009 206.031C164.007 206.881 164.007 207.731 164.009 208.583C163.158 208.583 162.306 208.583 161.456 208.583C161.456 207.731 161.456 206.881 161.458 206.031Z" fill="black"/>
<path d="M199.695 206.03C200.545 206.03 201.397 206.028 202.249 206.032C202.247 206.88 202.247 207.731 202.249 208.583C201.397 208.583 200.545 208.583 199.695 208.583C199.695 207.731 199.695 206.88 199.695 206.03Z" fill="black"/>
<path d="M171.654 206.03C172.372 206.028 173.09 206.032 173.811 206.024C173.944 206.13 174.08 206.24 174.217 206.352C174.198 207.094 174.206 207.839 174.206 208.583C173.354 208.583 172.504 208.583 171.654 208.583C171.652 209.431 171.654 210.279 171.654 211.128C170.803 211.126 169.953 211.128 169.103 211.128C169.101 210.279 169.101 209.431 169.103 208.585C169.953 208.581 170.803 208.583 171.654 208.583C171.654 207.731 171.654 206.881 171.654 206.03Z" fill="black"/>
<path d="M85.9897 207.555C86.8395 207.549 87.6912 207.551 88.541 207.553C88.541 208.403 88.541 209.254 88.541 210.106C87.6912 210.104 86.8395 210.106 85.9897 210.106C85.9897 209.256 85.9897 208.405 85.9897 207.555Z" fill="black"/>
<path d="M129.842 209.599C130.692 209.597 131.541 209.597 132.393 209.599C132.391 210.449 132.391 211.299 132.393 212.151C132.05 212.147 131.711 212.147 131.372 212.151C131.372 212.84 131.372 213.528 131.372 214.221C130.947 214.219 130.522 214.219 130.099 214.221C130.097 213.574 130.099 212.93 130.099 212.285C130.039 212.223 129.924 212.101 129.864 212.041C129.802 211.229 129.858 210.411 129.842 209.599Z" fill="black"/>
<path d="M132.83 210.202C133.279 210.198 133.73 210.2 134.181 210.202C134.179 214.265 134.181 218.33 134.179 222.394C134.602 222.392 135.025 222.392 135.449 222.394C135.451 222.875 135.449 223.36 135.443 223.845C135.021 223.841 134.6 223.839 134.181 223.843C134.179 224.282 134.179 224.725 134.181 225.17C133.68 225.166 133.181 225.138 132.691 225.062C132.703 224.653 132.705 224.244 132.711 223.841C132.27 223.839 131.833 223.843 131.396 223.851C131.346 222.028 131.382 220.204 131.374 218.38C131.731 218.382 132.088 218.384 132.447 218.394L132.481 218.216C132.569 218.232 132.745 218.266 132.834 218.282C132.828 215.588 132.832 212.894 132.83 210.202Z" fill="black"/>
<path d="M171.655 211.13C172.505 211.128 173.355 211.128 174.206 211.128C174.206 211.979 174.206 212.831 174.206 213.683C173.355 213.681 172.505 213.681 171.655 213.683C171.653 212.831 171.655 211.979 171.655 211.13Z" fill="black"/>
<path d="M80.896 212.658C81.7418 212.658 82.5896 212.658 83.4373 212.658C83.4373 213.508 83.4373 214.36 83.4353 215.212C82.5876 215.208 81.7418 215.21 80.8941 215.21C80.8941 214.358 80.8921 213.508 80.896 212.658Z" fill="black"/>
<path d="M85.9897 212.658C86.8395 212.656 87.6912 212.656 88.541 212.658C88.541 213.508 88.541 214.359 88.541 215.211C87.6912 215.211 86.8395 215.209 85.9897 215.211C85.9897 214.359 85.9897 213.508 85.9897 212.658Z" fill="black"/>
<path d="M199.695 216.233C200.545 216.231 201.397 216.231 202.249 216.233C202.247 217.081 202.247 217.933 202.249 218.786C201.397 218.784 200.545 218.784 199.695 218.786C199.695 217.933 199.695 217.081 199.695 216.233Z" fill="black"/>
<path d="M202.25 218.787C203.099 218.785 203.949 218.785 204.801 218.787C204.799 219.633 204.799 220.481 204.801 221.331C203.949 221.329 203.099 221.329 202.25 221.331C202.248 220.481 202.248 219.633 202.25 218.787Z" fill="black"/>
<path d="M122.196 222.354C123.046 222.354 123.896 222.354 124.746 222.354C124.746 223.204 124.746 224.056 124.746 224.906C123.896 224.906 123.044 224.906 122.194 224.908C122.194 224.056 122.194 223.204 122.196 222.354Z" fill="black"/>
</svg>
